<?xml version="1.0" standalone="no"?>
<!DOCTYPE svg PUBLIC "-//W3C//DTD SVG 1.1//EN" "http://www.w3.org/Graphics/SVG/1.1/DTD/svg11.dtd" >
<svg xmlns="http://www.w3.org/2000/svg" xmlns:xlink="http://www.w3.org/1999/xlink" version="1.1">
<metadata>
Created by FontForge 20170731 at Wed Feb  2 18:20:36 2022
 By Aleksey,,,
Copyright (c) 2015 by Radomir Tinkov. All rights reserved.
</metadata>
<defs>
<font id="Gilroy-ThinItalic" horiz-adv-x="1187" >
  <font-face 
    font-family="Gilroy Thin Italic"
    font-weight="250"
    font-style="italic"
    font-stretch="normal"
    units-per-em="2048"
    panose-1="0 0 3 0 0 0 0 0 0 0"
    ascent="1638"
    descent="-410"
    x-height="1024"
    cap-height="1434"
    bbox="-563 -492 2156.88 1966"
    underline-thickness="102"
    underline-position="-307"
    slope="-10"
    unicode-range="U+0020-FB02"
  />
<missing-glyph horiz-adv-x="1024" 
d="M840 1638v-2048h-650v2048h650zM682 1501h-338v-67h133v-76h-135v-68h340v68h-135v76h135v67zM547 1237h-205v-213h340v70h-135v143zM477 1167v-73h-67v73h67zM682 969h-340v-68h135v-76h-135v-67h205v143h135v68zM682 846h-68v-135h-272v-70h340v205zM682 596h-205v-115
h70v47h67v-96h-204v164h-68v-231h340v231zM682 242h-340v-232h340v232zM614 174v-96h-204v96h204zM682 -37h-340v-67h143l-143 -97v-67h340v67h-209l143 97h66v67z" />
    <glyph glyph-name="fi" unicode="fi" horiz-adv-x="1021" 
d="M772 1417q-170 0 -261.5 -77t-119.5 -234l-14 -82h551l-180 -1024h-41l174 987h-510l-174 -987h-41l174 987h-185l7 37h184l14 82q31 176 135 262t293 86q106 0 201 -20l-6 -37q-95 20 -201 20z" />
    <glyph glyph-name="fl" unicode="fl" horiz-adv-x="1021" 
d="M778 1454q104 0 221 -20l-251 -1434h-41l245 1403q-71 14 -180 14q-170 0 -261.5 -77t-119.5 -234l-14 -82h264l-6 -37h-264l-174 -987h-41l174 987h-185l7 37h184l14 82q31 176 135 262t293 86z" />
    <glyph glyph-name="f_f" unicode="ff" horiz-adv-x="1163" 
d="M905 1126q30 179 137.5 271.5t290.5 77.5l-6 -37q-320 25 -381 -312l-18 -102h325l-6 -37h-325l-174 -987h-41l174 987h-510l-174 -987h-41l174 987h-185l7 37h184l14 82q32 179 139 271t289 77l-6 -37q-320 25 -381 -311l-14 -82h510z" />
    <glyph glyph-name="f_f_i" unicode="ffi" horiz-adv-x="1572" 
d="M1327 1438q-170 0 -261.5 -77.5t-119.5 -234.5l-18 -102h551l-181 -1024h-41l175 987h-510l-174 -987h-41l174 987h-510l-174 -987h-41l174 987h-185l7 37h184l14 82q32 180 138.5 271.5t289.5 76.5l-6 -37q-320 25 -381 -311l-14 -82h510l18 102q29 176 134 262.5
t294 86.5q101 0 201 -21l-6 -37q-100 21 -201 21z" />
    <glyph glyph-name="f_f_l" unicode="ffl" horiz-adv-x="1572" 
d="M1333 1475q98 0 221 -21l-256 -1454h-41l250 1423q-77 15 -180 15q-170 0 -261.5 -77.5t-119.5 -234.5l-18 -102h264l-6 -37h-264l-174 -987h-41l174 987h-510l-174 -987h-41l174 987h-185l7 37h184l14 82q32 180 138.5 271.5t289.5 76.5l-6 -37q-320 25 -381 -311
l-14 -82h510l18 102q29 176 134 262.5t294 86.5z" />
    <glyph glyph-name=".notdef" horiz-adv-x="1024" 
d="M840 1638v-2048h-650v2048h650zM682 1501h-338v-67h133v-76h-135v-68h340v68h-135v76h135v67zM547 1237h-205v-213h340v70h-135v143zM477 1167v-73h-67v73h67zM682 969h-340v-68h135v-76h-135v-67h205v143h135v68zM682 846h-68v-135h-272v-70h340v205zM682 596h-205v-115
h70v47h67v-96h-204v164h-68v-231h340v231zM682 242h-340v-232h340v232zM614 174v-96h-204v96h204zM682 -37h-340v-67h143l-143 -97v-67h340v67h-209l143 97h66v67z" />
    <glyph glyph-name=".null" horiz-adv-x="0" 
 />
    <glyph glyph-name="nonmarkingreturn" horiz-adv-x="682" 
 />
    <glyph glyph-name="space" unicode=" " horiz-adv-x="614" 
 />
    <glyph glyph-name="exclam" unicode="!" horiz-adv-x="409" 
d="M152 328l122 696l72 410h41l-72 -410l-122 -696h-41zM113 -20q-22 0 -34 15.5t-7 37.5q4 23 20.5 36t38.5 13t34 -15.5t7 -37.5q-4 -23 -20.5 -36t-38.5 -13z" />
    <glyph glyph-name="quotedbl" unicode="&#x22;" horiz-adv-x="532" 
d="M227 1106l58 328h41l-58 -328h-41zM473 1106l57 328h41l-57 -328h-41z" />
    <glyph glyph-name="numbersign" unicode="#" horiz-adv-x="1253" 
d="M1210 881h-243l-111 -328h244l-17 -41h-241l-140 -410h-45l140 410h-406l-139 -410h-45l139 410h-244l15 41h243l111 328h-244l13 41h245l140 409h45l-140 -409h406l139 409h45l-139 -409h242zM811 553l111 328h-406l-110 -328h405z" />
    <glyph glyph-name="dollar" unicode="$" horiz-adv-x="1128" 
d="M1073 1188q-28 97 -102.5 157.5t-196.5 69.5l-121 -680q88 -32 149.5 -65t113.5 -81t72 -113.5t5 -147.5q-28 -159 -152 -249.5t-321 -98.5l-33 -185h-41l33 185q-172 2 -286 75.5t-136 198.5l37 20q18 -124 122 -191t267 -67h2l123 693q-33 12 -60 22.5t-56.5 24.5
t-53.5 28t-48.5 31t-43 35.5t-35 40.5t-27 46.5t-17 52.5t-6 60.5t6.5 67.5q26 150 155.5 243t307.5 93h8l33 184h41l-33 -186q127 -11 212.5 -75t113.5 -171zM309 1114l-5.5 -60.5t6 -53.5t16 -47.5t25 -41.5t33 -36t38.5 -31.5t43.5 -27.5t47.5 -24.5t50 -22t51 -19.5
l119 667q-169 0 -285 -88t-139 -215zM952 332q10 42 4.5 79.5t-15.5 67.5t-33 57.5t-48 49t-61 42t-72 36.5t-80 32l-121 -678q185 9 293.5 94t132.5 220z" />
    <glyph glyph-name="percent" unicode="%" horiz-adv-x="1492" 
d="M518 848q-133 0 -209 89.5t-53 217.5q23 129 125.5 214t239.5 85q133 0 209 -89.5t53 -217.5q-23 -129 -125.5 -214t-239.5 -85zM522 885q119 0 209.5 75.5t110.5 190.5q20 114 -44.5 190t-181.5 76t-208 -76t-111 -190t44 -190t181 -76zM168 162l1192 1128l37 -18
l-1192 -1129zM944 -20q-133 0 -209 89.5t-53 217.5q23 129 125.5 214t239.5 85q133 0 209 -89.5t53 -217.5q-23 -129 -125.5 -214t-239.5 -85zM948 16q118 0 209 75.5t111 191.5q20 114 -44.5 190t-181.5 76t-208 -76t-111 -190t44 -190.5t181 -76.5z" />
    <glyph glyph-name="ampersand" unicode="&#x26;" horiz-adv-x="1341" 
d="M1182 551q-65 -200 -164 -328l174 -213l-33 -18l-166 203q-186 -215 -481 -215q-199 0 -311 113t-80 290q17 94 76 178.5t134.5 142.5t168.5 103q-53 73 -75.5 142.5t-6.5 156.5q28 154 147.5 251t280.5 97q131 0 224 -64t136 -182l-35 -18q-88 227 -327 227
q-149 0 -255 -90t-130 -221q-6 -32 -6 -62.5t3.5 -55.5t14 -52.5t21 -48t29 -47.5t34 -47t39.5 -50l399 -489q99 129 158 317zM514 16q276 0 457 207l-404 496q-5 6 -45 57q-142 -65 -240.5 -170.5t-119.5 -226.5q-30 -165 73 -264t279 -99z" />
    <glyph glyph-name="quotesingle" unicode="'" horiz-adv-x="266" 
d="M227 1106l58 328h41l-58 -328h-41z" />
    <glyph glyph-name="parenleft" unicode="(" horiz-adv-x="450" 
d="M221 -205q-142 458 -61 926q88 507 387 917h41q-305 -449 -387 -921q-82 -474 61 -922h-41z" />
    <glyph glyph-name="parenright" unicode=")" horiz-adv-x="450" 
d="M301 1638q142 -457 61 -925q-43 -247 -141.5 -482t-245.5 -436h-41q306 450 388 922t-62 921h41z" />
    <glyph glyph-name="asterisk" unicode="*" horiz-adv-x="770" 
d="M758 1257l-6 -36l-211 2l82 -181l-35 -18l-80 182l-137 -182l-35 20l143 179l-211 -2l6 36l211 -2l-82 181l35 18l80 -182l137 182l35 -20l-143 -179z" />
    <glyph glyph-name="plus" unicode="+" horiz-adv-x="1064" 
d="M961 735l-7 -37h-368l-66 -370h-41l66 370h-369l6 37h369l65 371h41l-65 -371h369z" />
    <glyph glyph-name="comma" unicode="," horiz-adv-x="389" 
d="M178 72l-147 -359h-39l131 359h55z" />
    <glyph glyph-name="hyphen" unicode="-" horiz-adv-x="1146" 
d="M223 614l6 37h738l-6 -37h-738z" />
    <glyph glyph-name="period" unicode="." horiz-adv-x="368" 
d="M90 -20q-22 0 -34 15.5t-7 37.5q4 23 21 36t39 13t34 -15.5t7 -37.5q-4 -23 -21 -36t-39 -13z" />
    <glyph glyph-name="slash" unicode="/" horiz-adv-x="1064" 
d="M18 -205h-43l1143 1843h43z" />
    <glyph glyph-name="zero" unicode="0" horiz-adv-x="1290" 
d="M555 -20q-162 0 -266 94t-134.5 258.5t5.5 388.5q59 336 231 534.5t416 198.5q162 0 266 -94t134.5 -258.5t-5.5 -388.5q-59 -336 -231 -534.5t-416 -198.5zM557 16q222 0 384 187.5t220 513.5q57 326 -38.5 513t-317.5 187t-384.5 -187t-219.5 -513q-58 -326 38 -513.5
t318 -187.5z" />
    <glyph glyph-name="one" unicode="1" horiz-adv-x="647" 
d="M573 1434h31l-252 -1434h-41l244 1389l-369 -117l-6 35z" />
    <glyph glyph-name="two" unicode="2" horiz-adv-x="1085" 
d="M12 0l6 37l648 581q141 127 227.5 238.5t105.5 218.5q26 151 -59.5 246.5t-247.5 95.5q-140 0 -250 -65.5t-180 -180.5l-31 21q75 123 198 192.5t269 69.5q170 0 270 -106t70 -279q-20 -114 -109.5 -229t-236.5 -248l-616 -555h823l-6 -37h-881z" />
    <glyph glyph-name="three" unicode="3" horiz-adv-x="1142" 
d="M1100 1434l-6 -37l-459 -557q188 -9 293 -130t73 -304q-33 -192 -185 -309t-361 -117q-151 0 -255.5 67t-136.5 184l35 19q28 -108 122.5 -171t240.5 -63q195 0 332.5 112t167.5 282t-68 281.5t-293 111.5h-12l-13 24l472 570h-752l6 37h799z" />
    <glyph glyph-name="four" unicode="4" horiz-adv-x="1146" 
d="M1069 365l-6 -37h-184l-58 -328h-41l58 328h-799l6 37l754 1069h45l-752 -1069h752l84 475h41l-84 -475h184z" />
    <glyph glyph-name="five" unicode="5" horiz-adv-x="1112" 
d="M1114 1397h-700l-135 -557h327q203 0 315.5 -122.5t79.5 -314.5q-33 -191 -185.5 -307t-360.5 -116q-152 0 -256.5 68.5t-135.5 187.5l35 18q27 -110 121 -174t242 -64q196 0 334 111.5t168 280.5q30 171 -67 283t-296 112h-371l154 631h737z" />
    <glyph glyph-name="six" unicode="6" horiz-adv-x="1126" 
d="M635 920q206 0 319.5 -134t77.5 -342q-24 -137 -104.5 -243t-199.5 -163.5t-259 -57.5q-206 0 -319.5 134.5t-77.5 342.5q30 169 141 286l618 691h48l-521 -580q126 66 277 66zM993 451q33 187 -64.5 309.5t-299.5 122.5t-343.5 -122.5t-174.5 -309.5q-22 -122 12.5 -220
t126 -156.5t225.5 -58.5q202 0 343.5 124t174.5 311z" />
    <glyph glyph-name="seven" unicode="7" horiz-adv-x="1003" 
d="M223 1434h840l-6 -37l-832 -1397h-43l834 1397h-799z" />
    <glyph glyph-name="eight" unicode="8" horiz-adv-x="1134" 
d="M1090 1083q-23 -126 -111.5 -217t-220.5 -127q140 -35 206.5 -135t41.5 -242q-32 -178 -174 -280t-359 -102q-212 0 -319.5 108t-75.5 287q24 143 124.5 239t254.5 129q-117 37 -173.5 130.5t-33.5 218.5q28 162 160.5 262t318.5 100q184 0 286.5 -104.5t74.5 -266.5z
M610 758q178 0 295.5 94t143.5 235q24 141 -60 235.5t-262 94.5t-295 -94.5t-141 -235.5q-26 -141 57.5 -235t261.5 -94zM965 369q27 157 -65 254.5t-296 97.5t-331 -97.5t-154 -254.5q-29 -157 63.5 -255t296.5 -98t330.5 98t155.5 255z" />
    <glyph glyph-name="nine" unicode="9" horiz-adv-x="1126" 
d="M729 1454q206 0 319.5 -134.5t77.5 -342.5q-30 -170 -141 -287l-618 -690h-48l521 580q-126 -66 -277 -66q-206 0 -319.5 134t-77.5 341q37 208 194 336.5t369 128.5zM1087 983q22 122 -12.5 219.5t-126 156t-225.5 58.5q-202 0 -343.5 -123.5t-174.5 -310.5t64.5 -309.5
t299.5 -122.5t343.5 122.5t174.5 309.5z" />
    <glyph glyph-name="colon" unicode=":" horiz-adv-x="368" 
d="M250 881q-22 0 -34 15.5t-7 37.5q4 23 20.5 36t38.5 13t34 -15.5t7 -37.5q-4 -23 -20.5 -36t-38.5 -13zM90 -20q-22 0 -34 15.5t-7 37.5q4 23 21 36t39 13t34 -15.5t7 -37.5q-4 -23 -21 -36t-39 -13z" />
    <glyph glyph-name="semicolon" unicode=";" horiz-adv-x="407" 
d="M289 881q-22 0 -34 15.5t-7 37.5q4 23 20.5 36t38.5 13t34 -15.5t7 -37.5q-4 -23 -20.5 -36t-38.5 -13zM178 72l-147 -359h-39l131 359h55z" />
    <glyph glyph-name="less" unicode="&#x3c;" horiz-adv-x="1105" 
d="M1067 1110l-8 -43l-834 -352l709 -353l-6 -38l-752 374l4 19l2 18z" />
    <glyph glyph-name="equal" unicode="=" horiz-adv-x="1085" 
d="M213 903l6 37h799l-6 -37h-799zM139 494l8 36h799l-8 -36h-799z" />
    <glyph glyph-name="greater" unicode="&#x3e;" horiz-adv-x="1105" 
d="M250 1110l751 -375l-2 -18l-4 -19l-884 -374l6 43l837 352l-712 352z" />
    <glyph glyph-name="question" unicode="?" horiz-adv-x="1077" 
d="M459 328q13 74 47 142.5t79 122t96.5 104.5t103 98.5t95 94.5t75.5 102.5t42 113.5q26 140 -50.5 225.5t-252.5 85.5q-134 0 -249 -67t-169 -168l-32 18q61 113 188.5 183.5t267.5 70.5q177 0 272 -95.5t66 -256.5q-10 -60 -42.5 -117.5t-76 -106t-95 -97t-103.5 -98.5
t-96.5 -102.5t-78.5 -117.5t-46 -135h-41zM418 -20q-22 0 -34 15.5t-7 37.5q4 23 20.5 36t38.5 13t34 -15.5t7 -37.5q-4 -23 -20.5 -36t-38.5 -13z" />
    <glyph glyph-name="at" unicode="@" horiz-adv-x="1710" 
d="M999 1253q95 0 178.5 -21.5t147.5 -59t116.5 -90t85 -114.5t54 -131.5t22 -142t-9.5 -145.5q-16 -91 -44 -162.5t-61.5 -117t-74 -75.5t-80 -42.5t-80.5 -12.5q-93 0 -127 59.5t-20 143.5l4 18q-52 -81 -136.5 -128.5t-185.5 -47.5q-139 0 -219 97t-55 235
q25 139 133.5 231.5t253.5 92.5q99 0 167.5 -52t92.5 -139l31 176h41l-86 -483q-14 -80 14 -123t99 -43q106 0 183 99t109 278q33 184 -28.5 336.5t-201.5 240t-329 87.5q-195 0 -373.5 -93.5t-299.5 -255t-156 -356.5q-36 -200 31.5 -361.5t221 -252.5t363.5 -91
q201 0 353 54l8 -35q-160 -55 -367 -55q-165 0 -300 56.5t-221.5 154.5t-122 236.5t-7.5 297.5q36 203 161.5 371.5t314.5 267t400 98.5zM795 221q120 0 215 77t123 196l6 34q15 119 -53.5 197t-188.5 78q-125 0 -222.5 -83.5t-119.5 -207.5q-22 -125 47 -208t193 -83z" />
    <glyph glyph-name="A" unicode="A" horiz-adv-x="1286" 
d="M1104 0l-86 391h-789l-223 -391h-45l819 1434h51l314 -1434h-41zM250 428h760l-209 963z" />
    <glyph glyph-name="B" unicode="B" horiz-adv-x="1290" 
d="M1225 1071q-20 -115 -101 -206t-194 -128q123 -26 189 -129t44 -235q-12 -74 -49 -141t-94 -118.5t-137 -82.5t-170 -31h-598l252 1434h534q158 0 253.5 -106t70.5 -257zM807 750q132 0 243 95t134 228q23 134 -59.5 229t-223.5 95h-500l-114 -647h520zM1122 375
q25 139 -56 238.5t-218 99.5h-567l-119 -676h557q151 0 264.5 98t138.5 240z" />
    <glyph glyph-name="C" unicode="C" horiz-adv-x="1562" 
d="M766 -20q-205 0 -356.5 97.5t-218 267.5t-31.5 376q27 153 104 288t188 233t256 155t300 57q195 0 342.5 -90t220.5 -240l-35 -18q-69 143 -208.5 227t-321.5 84q-149 0 -287 -55.5t-243 -150t-177.5 -223t-97.5 -271.5q-34 -189 25 -349.5t200.5 -256t337.5 -95.5
q190 0 359.5 89t281.5 241l33 -20q-112 -156 -290.5 -251t-381.5 -95z" />
    <glyph glyph-name="D" unicode="D" horiz-adv-x="1515" 
d="M879 1434q142 0 258 -58t188 -156t100 -231.5t2 -279.5q-35 -197 -146 -358t-283 -256t-371 -95h-512l252 1434h512zM1386 715q17 113 8 214.5t-52 187.5t-108 148t-158.5 97t-203.5 35h-471l-239 -1360h471q138 0 266.5 53.5t226.5 145t166.5 216t93.5 263.5z" />
    <glyph glyph-name="E" unicode="E" horiz-adv-x="1105" 
d="M1149 1397h-748l-114 -656h696l-6 -36h-698l-117 -668h758l-7 -37h-798l252 1434h788z" />
    <glyph glyph-name="F" unicode="F" horiz-adv-x="1075" 
d="M1128 1397h-727l-116 -664h716l-6 -37h-716l-123 -696h-41l252 1434h768z" />
    <glyph glyph-name="G" unicode="G" horiz-adv-x="1681" 
d="M1581 641l-4 -20q-37 -184 -145.5 -329.5t-274 -228.5t-360.5 -83q-110 0 -206.5 27.5t-171 76.5t-132 118.5t-89 152.5t-43 178.5t6.5 197.5q23 147 99 280t187 230.5t256.5 155t301.5 57.5q205 0 350 -92.5t215 -237.5l-35 -18q-68 140 -207 225.5t-328 85.5
q-147 0 -284.5 -55t-242.5 -148.5t-176.5 -220t-94.5 -266.5q-31 -193 32.5 -355.5t212 -259t351.5 -96.5q138 0 263 46.5t219 126.5t160 187t93 228h-678l6 37h719z" />
    <glyph glyph-name="H" unicode="H" horiz-adv-x="1433" 
d="M1350 1434h41l-252 -1434h-41l127 719h-942l-127 -719h-41l252 1434h41l-119 -678h942z" />
    <glyph glyph-name="I" unicode="I" horiz-adv-x="450" 
d="M367 1434h41l-252 -1434h-41z" />
    <glyph glyph-name="J" unicode="J" horiz-adv-x="1134" 
d="M432 -20q-155 0 -255 61t-128 170l35 18q24 -99 111.5 -156t236.5 -57q178 0 301.5 99.5t151.5 253.5l186 1065h41l-186 -1065q-32 -177 -169 -283t-325 -106z" />
    <glyph glyph-name="K" unicode="K" horiz-adv-x="1138" 
d="M1260 1434l-930 -703l698 -731h-51l-694 725l-127 -725h-41l252 1434h41l-121 -686l911 686h62z" />
    <glyph glyph-name="L" unicode="L" horiz-adv-x="1024" 
d="M162 37h717l-7 -37h-757l6 37l246 1397h41z" />
    <glyph glyph-name="M" unicode="M" horiz-adv-x="1679" 
d="M1636 1434l-252 -1434h-41l242 1372l-751 -944h-17l-418 954l-243 -1382h-41l252 1434h51l416 -947l747 947h55z" />
    <glyph glyph-name="N" unicode="N" horiz-adv-x="1433" 
d="M115 0l252 1434h41l700 -1366l242 1366h41l-252 -1434h-41l-701 1366l-241 -1366h-41z" />
    <glyph glyph-name="O" unicode="O" horiz-adv-x="1720" 
d="M768 -20q-150 0 -276.5 59t-208 159t-116 237.5t-7.5 287.5q35 201 163 369t314 265t387 97q119 0 225 -38t184 -106t132.5 -161.5t70 -204t-3.5 -233.5q-35 -201 -163 -369t-314 -265t-387 -97zM772 16q189 0 365.5 94t298 255t155.5 352q25 143 -7 272.5t-108 223
t-195 149t-261 55.5t-280.5 -55.5t-248 -149t-187.5 -223t-103 -272.5q-34 -190 30 -351.5t208 -255.5t333 -94z" />
    <glyph glyph-name="P" unicode="P" 
d="M799 1434q194 0 298.5 -123.5t73.5 -306.5q-30 -182 -174.5 -306.5t-341.5 -124.5h-399l-100 -573h-41l252 1434h432zM1130 1004q29 170 -63 281.5t-266 111.5h-400l-139 -787h395q177 0 310.5 112t162.5 282z" />
    <glyph glyph-name="Q" unicode="Q" horiz-adv-x="1730" 
d="M1632 711q-29 -162 -119.5 -305t-224.5 -244l146 -174l-29 -27l-148 178q-227 -159 -489 -159q-150 0 -276.5 59t-208 159t-116 237.5t-7.5 287.5q35 201 163 369t314 265t387 97q119 0 225 -38t184 -106t132.5 -161.5t70 -204t-3.5 -233.5zM1264 190q127 99 213.5 236
t113.5 291q25 143 -7 272.5t-108 223t-195 149t-261 55.5t-280.5 -55.5t-248 -149t-187.5 -223t-103 -272.5q-34 -190 30 -351.5t208 -255.5t333 -94q243 0 461 152l-270 326l26 24z" />
    <glyph glyph-name="R" unicode="R" horiz-adv-x="1269" 
d="M920 1434q109 0 193 -56.5t122.5 -152.5t19.5 -207q-26 -147 -136.5 -257t-256.5 -138l256 -623h-41l-254 616q-16 -2 -47 -2h-512l-108 -614h-41l252 1434h553zM1217 1024q28 154 -62 263.5t-242 109.5h-512l-131 -746h512q152 0 279.5 109.5t155.5 263.5z" />
    <glyph glyph-name="S" unicode="S" horiz-adv-x="1128" 
d="M504 -20q-188 0 -310.5 84.5t-150.5 230.5l37 18q25 -138 135 -217.5t291 -79.5q197 0 314 86t143 224q15 81 -5.5 143t-79.5 107t-114 72t-146 61q-150 55 -210 91q-187 110 -161 302q1 9 3 18q29 151 155.5 242.5t296.5 91.5q163 0 267.5 -79.5t140.5 -209.5l-35 -16
q-35 121 -127 194.5t-246 73.5q-158 0 -272 -83.5t-139 -217.5q-12 -65 4.5 -119.5t43 -88.5t86.5 -69.5t96 -51t110 -44.5q7 -3 10 -4q38 -15 65.5 -26.5t61 -26.5t58 -29t51.5 -32t45.5 -36t36.5 -40t28.5 -46.5t17 -52.5t6.5 -60t-7 -68q-32 -165 -166.5 -253.5
t-333.5 -88.5z" />
    <glyph glyph-name="T" unicode="T" horiz-adv-x="1105" 
d="M1206 1434l-6 -37h-471l-246 -1397h-41l246 1397h-471l6 37h983z" />
    <glyph glyph-name="U" unicode="U" horiz-adv-x="1392" 
d="M612 -20q-238 0 -356 135.5t-80 345.5l172 973h41l-172 -973q-19 -91 -1 -172t62.5 -141.5t130 -96t201.5 -35.5q115 0 212.5 35t164.5 97t110.5 141.5t59.5 171.5l172 973h41l-172 -973q-37 -216 -195 -348.5t-391 -132.5z" />
    <glyph glyph-name="V" unicode="V" horiz-adv-x="1224" 
d="M498 0l-295 1434h41l284 -1389l772 1389h46l-799 -1434h-49z" />
    <glyph glyph-name="W" unicode="W" horiz-adv-x="2007" 
d="M408 0l-164 1434h39l157 -1385l699 1385h49l213 -1385l643 1385h43l-668 -1434h-49l-213 1384l-700 -1384h-49z" />
    <glyph glyph-name="X" unicode="X" horiz-adv-x="1146" 
d="M1229 1434l-594 -707l360 -727h-43l-344 696l-585 -696h-52l617 733l-346 701h43l331 -668l562 668h51z" />
    <glyph glyph-name="Y" unicode="Y" horiz-adv-x="1146" 
d="M1268 1434l-645 -760l-119 -674h-41l119 676l-379 758h43l360 -725l615 725h47z" />
    <glyph glyph-name="Z" unicode="Z" horiz-adv-x="1085" 
d="M1145 1434l-6 -37l-1071 -1360h852l-7 -37h-901l6 37l1074 1360h-813l6 37h860z" />
    <glyph glyph-name="bracketleft" unicode="[" horiz-adv-x="552" 
d="M705 1599h-328l-314 -1765h330l-8 -39h-369l326 1843h369z" />
    <glyph glyph-name="backslash" unicode="\" horiz-adv-x="1064" 
d="M799 -205l-498 1843h37l498 -1843h-37z" />
    <glyph glyph-name="bracketright" unicode="]" horiz-adv-x="552" 
d="M608 1638l-325 -1843h-369l8 39h326l313 1765h-328l7 39h368z" />
    <glyph glyph-name="asciicircum" unicode="^" horiz-adv-x="1036" 
d="M694 1434l252 -615h-41l-231 565l-428 -565h-49l465 615h32z" />
    <glyph glyph-name="underscore" unicode="_" horiz-adv-x="983" 
d="M-51 -242l6 37h819l-6 -37h-819z" />
    <glyph glyph-name="grave" unicode="`" horiz-adv-x="290" 
d="M365 1167l-123 246h-41l131 -246h33z" />
    <glyph glyph-name="a" unicode="a" horiz-adv-x="1355" 
d="M1221 1024h41l-181 -1024h-41l52 289q-79 -144 -219 -226.5t-310 -82.5q-108 0 -202 45.5t-156.5 121t-90 179t-8.5 213.5q40 225 209 365t396 140q170 0 293.5 -104.5t154.5 -267.5zM569 16q207 0 363.5 133.5t193.5 342.5q24 137 -25 256.5t-154.5 189.5t-241.5 70
q-207 0 -364 -133.5t-194 -342.5q-18 -103 7 -198t82 -165t144 -111.5t189 -41.5z" />
    <glyph glyph-name="b" unicode="b" horiz-adv-x="1355" 
d="M793 1044q107 0 201 -45.5t156.5 -121t90 -179t8.5 -213.5q-40 -225 -208.5 -365t-395.5 -140q-171 0 -294 104.5t-154 267.5l-62 -352h-41l252 1434h41l-123 -699q78 143 219 226t310 83zM1208 492q18 103 -7 198t-82 165t-144 111.5t-189 41.5q-207 0 -363.5 -133.5
t-193.5 -342.5q-18 -103 7 -198t82 -165t144 -111.5t189 -41.5q207 0 363.5 133.5t193.5 342.5z" />
    <glyph glyph-name="c" unicode="c" 
d="M543 -20q-150 0 -260 71.5t-157.5 194.5t-21.5 272q40 226 218.5 376t408.5 150q147 0 255 -68t147 -181l-35 -21q-34 108 -131.5 171t-241.5 63q-212 0 -377.5 -142.5t-202.5 -353.5q-24 -138 18.5 -251.5t144 -179t241.5 -65.5q138 0 261 63.5t196 170.5l30 -21
q-78 -118 -207.5 -183.5t-285.5 -65.5z" />
    <glyph glyph-name="d" unicode="d" horiz-adv-x="1355" 
d="M1292 1434h41l-252 -1434h-41l52 289q-79 -144 -219 -226.5t-310 -82.5q-108 0 -202 45.5t-156.5 121t-90 179t-8.5 213.5q40 225 209 365t396 140q170 0 293.5 -104t154.5 -266zM569 16q207 0 363.5 133.5t193.5 342.5q24 137 -25 256.5t-154.5 189.5t-241.5 70
q-207 0 -364 -133.5t-194 -342.5q-18 -103 7 -198t82 -165t144 -111.5t189 -41.5z" />
    <glyph glyph-name="e" unicode="e" horiz-adv-x="1222" 
d="M711 1044q114 0 202 -44t138 -118.5t68.5 -170.5t0.5 -201l-4 -23h-977q-28 -210 83 -340.5t317 -130.5q140 0 255.5 56.5t182.5 154.5l31 -20q-74 -107 -199 -167t-277 -60q-151 0 -259 69t-153 191.5t-18 275.5q26 150 110 270t214.5 189t284.5 69zM145 524h940
q28 217 -76 350.5t-302 133.5q-206 0 -363.5 -135.5t-198.5 -348.5z" />
    <glyph glyph-name="f" unicode="f" horiz-adv-x="612" 
d="M350 1106q32 180 138.5 271.5t289.5 76.5l-6 -37q-320 25 -381 -311l-14 -82h325l-6 -37h-325l-174 -987h-41l174 987h-185l7 37h184z" />
    <glyph glyph-name="g" unicode="g" horiz-adv-x="1376" 
d="M1241 1024h41l-170 -961q-40 -230 -194.5 -361.5t-393.5 -131.5q-177 0 -291 69t-147 173l35 18q28 -94 134.5 -158.5t270.5 -64.5q218 0 362.5 120.5t182.5 335.5l39 224q-77 -141 -215.5 -224t-300.5 -83q-153 0 -269 75.5t-169 204.5t-29 279q35 218 206 361.5
t388 143.5q181 0 305 -103.5t154 -268.5zM596 16q198 0 354.5 131.5t194.5 329.5l2 17q23 140 -25.5 258.5t-155.5 187t-247 68.5q-201 0 -359 -136t-192 -340q-23 -140 25.5 -259t155.5 -188t247 -69z" />
    <glyph glyph-name="h" unicode="h" horiz-adv-x="1177" 
d="M723 1044q173 0 265 -108.5t61 -284.5l-115 -651h-41l115 651q27 155 -50 256t-239 101q-176 0 -310.5 -121.5t-175.5 -321.5l-98 -565h-41l252 1434h41l-119 -674q71 138 193 211t262 73z" />
    <glyph glyph-name="i" unicode="i" horiz-adv-x="409" 
d="M350 1333q-21 0 -32.5 14t-6.5 33q5 20 20 33.5t36 13.5q20 0 31 -14t8 -33t-19 -33t-37 -14zM94 0l180 1024h41l-180 -1024h-41z" />
    <glyph glyph-name="j" unicode="j" horiz-adv-x="428" 
d="M385 1427q20 0 31 -14t8 -33t-18.5 -33t-36.5 -14t-32.5 14t-6.5 33q5 20 19.5 33.5t35.5 13.5zM80 -184l213 1208h41l-213 -1208q-23 -129 -104.5 -196t-223.5 -50l6 37q122 -13 192 42.5t89 166.5z" />
    <glyph glyph-name="k" unicode="k" horiz-adv-x="944" 
d="M963 1024l-691 -496l521 -528h-54l-512 520l-92 -520h-41l252 1434h41l-156 -891l668 481h64z" />
    <glyph glyph-name="l" unicode="l" horiz-adv-x="411" 
d="M96 0l115 657l147 838h41l-147 -838l-115 -657h-41z" />
    <glyph glyph-name="m" unicode="m" horiz-adv-x="1792" 
d="M1380 1044q71 0 129 -22.5t100 -68.5t56.5 -116.5t-0.5 -166.5l-117 -670h-41l117 670q28 161 -41.5 249.5t-208.5 88.5q-155 0 -272 -107.5t-156 -302.5l-104 -598h-41l117 670q29 162 -39 250t-207 88q-156 0 -273.5 -107.5t-156.5 -298.5l-107 -602h-41l180 1024h41
l-41 -233q44 86 112.5 144.5t140.5 83.5t149 25q125 0 206 -68.5t85 -201.5q66 134 177 202t236 68z" />
    <glyph glyph-name="n" unicode="n" horiz-adv-x="1177" 
d="M723 1044q173 0 265 -108.5t61 -284.5l-115 -651h-41l115 651q27 155 -50 256t-239 101q-174 0 -308 -120.5t-175 -318.5l-101 -569h-41l180 1024h41l-47 -262q71 137 193.5 209.5t261.5 72.5z" />
    <glyph glyph-name="o" unicode="o" horiz-adv-x="1273" 
d="M545 -20q-109 0 -200.5 42.5t-151 114.5t-84.5 172t-5 211q40 225 220 374.5t405 149.5q145 0 255.5 -71.5t160.5 -196t24 -272.5q-40 -225 -219.5 -374.5t-404.5 -149.5zM549 16q207 0 374.5 143.5t204.5 352.5q24 137 -21.5 251t-146.5 179.5t-235 65.5
q-207 0 -375 -143.5t-205 -352.5q-24 -137 21.5 -251t147 -179.5t235.5 -65.5z" />
    <glyph glyph-name="p" unicode="p" horiz-adv-x="1355" 
d="M793 1044q107 0 201 -45.5t156.5 -121t90 -179t8.5 -213.5q-40 -225 -208.5 -365t-395.5 -140q-171 0 -294 104t-154 266l-134 -760h-40l251 1434h41l-51 -287q79 142 219.5 224.5t309.5 82.5zM1208 492q18 103 -7 198t-82 165t-144 111.5t-189 41.5
q-207 0 -363.5 -133.5t-193.5 -342.5q-18 -103 7 -198t82 -165t144 -111.5t189 -41.5q207 0 363.5 133.5t193.5 342.5z" />
    <glyph glyph-name="q" unicode="q" horiz-adv-x="1355" 
d="M1221 1024h41l-252 -1434h-41l123 699q-77 -143 -217.5 -226t-311.5 -83q-108 0 -202 45.5t-156.5 121t-90 179t-8.5 213.5q40 225 209 365t396 140q170 0 293.5 -104.5t154.5 -267.5zM569 16q207 0 363.5 133.5t193.5 342.5q24 137 -25 256.5t-154.5 189.5t-241.5 70
q-207 0 -364 -133.5t-194 -342.5q-18 -103 7 -198t82 -165t144 -111.5t189 -41.5z" />
    <glyph glyph-name="r" unicode="r" horiz-adv-x="665" 
d="M270 772q67 134 184.5 200.5t241.5 63.5l-6 -37q-76 0 -149 -28.5t-135 -81.5t-107 -135.5t-63 -184.5l-101 -569h-41l180 1024h41z" />
    <glyph glyph-name="s" unicode="s" horiz-adv-x="954" 
d="M416 -20q-281 0 -359 215l37 16q66 -195 326 -195q130 0 225 57.5t115 162.5q10 55 -5.5 97.5t-50 69t-81.5 47t-100 36.5t-105.5 32t-99 38t-80.5 51.5t-48.5 75t-3.5 105.5q21 121 122.5 188.5t246.5 67.5q110 0 197.5 -53.5t119.5 -142.5l-34 -17q-30 81 -109 129
t-178 48q-125 0 -215 -58.5t-109 -169.5q-9 -52 7.5 -91.5t51 -65t81.5 -45t100 -35t105.5 -32t98.5 -40t79.5 -54.5t47.5 -79t3 -111q-21 -116 -127.5 -181.5t-257.5 -65.5z" />
    <glyph glyph-name="t" unicode="t" horiz-adv-x="776" 
d="M430 987l-133 -760q-24 -135 44.5 -176t248.5 -14l-6 -37q-194 -31 -274 23.5t-54 203.5l133 760h-244l7 37h243l49 274l43 13l-51 -287h328l-6 -37h-328z" />
    <glyph glyph-name="u" unicode="u" horiz-adv-x="1177" 
d="M1042 1024h41l-180 -1024h-41l47 262q-71 -137 -193 -209.5t-261 -72.5q-173 0 -265 108.5t-61 284.5l115 651h41l-115 -651q-27 -155 50 -256t239 -101q174 0 308 120.5t175 318.5z" />
    <glyph glyph-name="v" unicode="v" horiz-adv-x="1007" 
d="M1010 1024h47l-621 -1024h-45l-260 1024h41l246 -979z" />
    <glyph glyph-name="w" unicode="w" horiz-adv-x="1576" 
d="M1540 1024h45l-516 -1024h-45l-156 969l-495 -969h-45l-156 1024h39l147 -969l496 969h45l154 -971z" />
    <glyph glyph-name="x" unicode="x" horiz-adv-x="1024" 
d="M1032 1024l-493 -502l333 -522h-45l-315 494l-487 -494h-54l518 526l-317 498h45l301 -469l461 469h53z" />
    <glyph glyph-name="y" unicode="y" horiz-adv-x="1044" 
d="M1049 1024h45l-643 -1118q-89 -155 -206.5 -240.5t-242.5 -75.5l6 37q107 -9 217 71t189 220l18 31l-301 1075h39l289 -1026z" />
    <glyph glyph-name="z" unicode="z" horiz-adv-x="1003" 
d="M971 1024l-4 -23l-869 -964h719l-6 -37h-778l4 23l868 964h-678l6 37h738z" />
    <glyph glyph-name="braceleft" unicode="{" horiz-adv-x="692" 
d="M522 -223q-143 -15 -203.5 52t-37.5 194l81 469q20 107 -29.5 157.5t-176.5 50.5l6 37q127 0 194 50.5t86 158.5l84 467q24 132 107 196.5t221 49.5l-6 -37q-122 13 -192 -42.5t-89 -166.5l-84 -467q-19 -104 -69.5 -160t-139.5 -69q78 -13 111 -74.5t18 -150.5l-81 -469
q-21 -116 28.5 -169t177.5 -40z" />
    <glyph glyph-name="bar" unicode="|" horiz-adv-x="450" 
d="M43 -410l332 1885h41l-332 -1885h-41z" />
    <glyph glyph-name="braceright" unicode="}" horiz-adv-x="694" 
d="M244 1661q143 15 203.5 -52t37.5 -194l-82 -469q-20 -107 30 -158t177 -51l-6 -37q-127 0 -194 -50t-86 -158l-84 -467q-24 -132 -107 -196.5t-221 -49.5l6 37q122 -13 192 42.5t89 166.5l84 467q19 104 69.5 160t139.5 69q-78 13 -111.5 75t-18.5 150l82 469
q21 116 -28.5 169t-177.5 40z" />
    <glyph glyph-name="asciitilde" unicode="~" horiz-adv-x="1173" 
d="M201 606l-37 17q10 22 23 44.5t37 53t51 53t66 38t81.5 15t97.5 -23.5t113 -70q51 -42 99.5 -62.5t86 -21.5t71.5 12t58 32t45.5 46t33 47t20.5 41l36 -16q-14 -33 -34.5 -66t-63 -72t-92 -55.5t-124 1t-155.5 81.5q-52 41 -101 61.5t-86 22t-71 -11.5t-57.5 -32.5
t-44.5 -46t-32.5 -46.5t-20.5 -41z" />
    <glyph glyph-name="exclamdown" unicode="&#xa1;" horiz-adv-x="409" 
d="M297 1044q22 0 34 -15.5t7 -37.5q-4 -23 -20.5 -36t-38.5 -13t-34 15.5t-7 37.5q4 23 20.5 36t38.5 13zM258 696l-123 -696l-72 -410h-40l71 410l123 696h41z" />
    <glyph glyph-name="cent" unicode="&#xa2;" 
d="M1133 979q-25 76 -81.5 130.5t-138.5 80.5l-483 -944q73 -25 154 -25q138 0 260.5 63.5t195.5 170.5l31 -21q-79 -118 -208 -184t-285 -66q-90 0 -164 27l-109 -211h-43l115 225q-137 61 -202.5 195.5t-35.5 302.5q40 226 218.5 376t408.5 150q59 0 127 -14l102 199h43
l-108 -211q88 -29 149.5 -87.5t87.5 -136.5zM395 258l482 942q-55 12 -117 12q-140 0 -264.5 -65.5t-208 -178.5t-107.5 -251q-28 -156 30.5 -279t184.5 -180z" />
    <glyph glyph-name="sterling" unicode="&#xa3;" horiz-adv-x="1228" 
d="M866 1417q-162 0 -266.5 -96t-130.5 -246l-74 -422h531l-6 -37h-533l-102 -579h819l-6 -37h-1086l6 37h226l102 579h-184l6 37h186l74 422q30 172 147.5 275.5t290.5 103.5q129 0 219 -67t132 -187l-33 -20q-87 237 -318 237z" />
    <glyph glyph-name="currency" unicode="&#xa4;" horiz-adv-x="1134" 
d="M1145 1153l-170 -145q91 -124 61 -295q-29 -169 -164 -291l119 -146l-30 -22l-119 141q-143 -108 -312 -108q-168 0 -272 110l-168 -143l-24 27l170 143q-93 128 -64 297t166 293l-121 143l31 23l119 -144q140 111 311 111q167 0 272 -111l170 144zM995 717
q29 166 -64 279.5t-257 113.5t-298 -113.5t-163 -279.5t64.5 -279.5t257.5 -113.5t297.5 113.5t162.5 279.5z" />
    <glyph glyph-name="yen" unicode="&#xa5;" horiz-adv-x="1146" 
d="M1268 1434l-631 -744h389l-6 -37h-402l-38 -225h401l-6 -37h-402l-69 -391h-41l69 391h-397l6 37h398l39 225h-398l6 37h389l-372 744h43l360 -725l615 725h47z" />
    <glyph glyph-name="brokenbar" unicode="&#xa6;" horiz-adv-x="450" 
d="M242 717l133 758h41l-133 -758h-41zM43 -410l133 758h41l-133 -758h-41z" />
    <glyph glyph-name="section" unicode="&#xa7;" horiz-adv-x="1032" 
d="M676 1417q-135 0 -227 -70t-111 -182q-10 -60 4 -106t64 -86.5t82.5 -60t113.5 -59.5q25 -13 37 -19q134 -68 174 -95q117 -80 119 -186q1 -23 -4 -49q-14 -72 -63.5 -133t-125.5 -99q90 -93 68 -223q-22 -127 -127.5 -202.5t-263.5 -75.5q-138 0 -230.5 64.5
t-119.5 191.5l34 18q24 -118 107 -178t215 -60q136 0 230 66t116 180q9 49 -2.5 92.5t-35 75.5t-67.5 64.5t-84 54.5t-100 51q-138 66 -185 99q-132 91 -116 217l2 14q12 71 62.5 131.5t126.5 99.5q-94 90 -72 217t126.5 206t258.5 79q116 0 204 -58.5t122 -168.5l-33 -19
q-32 100 -109.5 154.5t-189.5 54.5zM887 508q8 43 -1.5 79.5t-29 62t-57 52t-71 44t-85.5 43.5q-17 8 -25 12q-10 5 -38.5 19t-41 20.5t-36.5 19t-39 22t-33 22t-33 24.5q-71 -34 -118.5 -90t-57.5 -121q-9 -53 6.5 -95t62 -78t82 -55.5t109.5 -54.5q14 -7 21 -10
q137 -63 209 -125q72 32 118 87t58 122z" />
    <glyph glyph-name="dieresis" unicode="&#xa8;" horiz-adv-x="491" 
d="M203 1188q-17 0 -27.5 12t-7.5 29t17.5 29t31.5 12t26.5 -12t6.5 -29t-16.5 -29t-30.5 -12zM530 1188q-17 0 -27 12t-7 29t17.5 29t31.5 12t26.5 -12t6.5 -29t-17 -29t-31 -12z" />
    <glyph glyph-name="copyright" unicode="&#xa9;" horiz-adv-x="1730" 
d="M770 -20q-150 0 -276.5 59t-209 159t-117 238t-7.5 289q35 202 162.5 369.5t314.5 263.5t393 96q150 0 276.5 -59t209 -159t117.5 -238t9 -289q-27 -151 -109 -286.5t-197.5 -232.5t-263.5 -153.5t-302 -56.5zM776 16q190 0 368 93.5t301 255t157 352.5q18 118 3.5 222.5
t-66 192t-125.5 151t-175 99t-215 35.5q-143 0 -282 -55t-249.5 -148.5t-188.5 -223.5t-103 -273q-26 -143 6.5 -273t109.5 -223.5t196.5 -149t262.5 -55.5zM840 324q-170 0 -264.5 115.5t-65.5 281.5q30 167 156.5 278t300.5 111q107 0 188.5 -51t118.5 -139l-37 -19
q-33 81 -104.5 126.5t-171.5 45.5q-153 0 -268 -102t-142 -254q-27 -151 56 -254t237 -103q100 0 186 46.5t141 125.5l33 -18q-61 -88 -156 -139t-208 -51z" />
    <glyph glyph-name="guillemotleft" unicode="&#xab;" horiz-adv-x="872" 
d="M539 961l-269 -332l146 -324h-43l-148 328l264 328h50zM748 961l-269 -332l146 -324h-43l-148 328l264 328h50z" />
    <glyph glyph-name="logicalnot" unicode="&#xac;" horiz-adv-x="1064" 
d="M969 782l-58 -327h-41l52 290h-738l6 37h779z" />
    <glyph glyph-name="registered" unicode="&#xae;" horiz-adv-x="1730" 
d="M1030 1454q150 0 276.5 -59t209 -159t117.5 -238t9 -289q-27 -151 -109 -286.5t-197.5 -232.5t-263.5 -153.5t-302 -56.5q-150 0 -276.5 59t-209 159t-117 238t-7.5 289q35 202 162.5 369.5t314.5 263.5t393 96zM1602 717q18 118 3.5 222.5t-66 192t-125.5 151t-175 99
t-215 35.5q-143 0 -282 -55t-249.5 -148.5t-188.5 -223.5t-103 -273q-26 -143 6.5 -273t109.5 -223.5t196.5 -149t262.5 -55.5q190 0 368 93.5t301 255t157 352.5zM975 1096q128 0 185 -69.5t42 -158.5q-30 -180 -225 -213l145 -317h-43l-141 313q-12 -2 -41 -2h-172
l-55 -311h-41l133 758h213zM1161 872q14 81 -35 134t-157 53h-172l-66 -373h172q226 0 258 186z" />
    <glyph glyph-name="macron" unicode="&#xaf;" horiz-adv-x="573" 
d="M168 1231l6 33h492l-7 -33h-491z" />
    <glyph glyph-name="degree" unicode="&#xb0;" horiz-adv-x="790" 
d="M496 1085q-121 0 -191.5 86t-50.5 205q22 120 119.5 201.5t224.5 81.5q124 0 194 -86t48 -205q-21 -121 -116.5 -202t-227.5 -81zM504 1122q107 0 191.5 71.5t103.5 178.5q19 106 -41 178t-166 72t-192 -72.5t-105 -177.5t42 -177.5t167 -72.5z" />
    <glyph glyph-name="plusminus" unicode="&#xb1;" horiz-adv-x="1064" 
d="M614 858h369l-6 -37h-369l-65 -370h-41l65 370h-368l6 37h368l66 371h41zM90 205l6 37h778l-6 -37h-778z" />
    <glyph glyph-name="acute" unicode="&#xb4;" horiz-adv-x="286" 
d="M156 1167h39l211 246h-46z" />
    <glyph glyph-name="uni00B5" unicode="&#xb5;" horiz-adv-x="1249" 
d="M958 143q-9 -53 13.5 -79.5t70.5 -26.5h41l-6 -37h-41q-63 0 -96.5 38.5t-21.5 104.5l20 117q-70 -135 -192 -207.5t-261 -72.5q-125 0 -206.5 58.5t-108.5 162.5l-107 -611h-40l251 1434h41l-116 -666q-22 -150 55 -246t235 -96q172 0 305 116.5t177 309.5l102 582h41z
" />
    <glyph glyph-name="paragraph" unicode="&#xb6;" horiz-adv-x="1126" 
d="M1186 1434l-6 -37h-123l-318 -1807h-41l318 1807h-348l-318 -1807h-41l195 1106q-101 1 -177.5 53t-110 138.5t-15.5 185.5q26 153 151.5 257t280.5 104h553z" />
    <glyph glyph-name="periodcentered" unicode="&#xb7;" horiz-adv-x="366" 
d="M205 635q-22 0 -34 15.5t-7 37.5q4 23 20.5 36t38.5 13t34 -15.5t7 -37.5q-4 -23 -20.5 -36t-38.5 -13z" />
    <glyph glyph-name="cedilla" unicode="&#xb8;" horiz-adv-x="440" 
d="M100 -162q71 3 120 -30t38 -99q-12 -78 -110 -112t-271 -11l6 33q155 -20 241 5.5t97 88.5q9 48 -31.5 73.5t-132.5 18.5l35 195h37z" />
    <glyph glyph-name="guillemotright" unicode="&#xbb;" horiz-adv-x="874" 
d="M334 961l147 -328l-264 -328h-49l268 332l-145 324h43zM543 961l147 -328l-264 -328h-49l268 332l-145 324h43z" />
    <glyph glyph-name="onequarter" unicode="&#xbc;" horiz-adv-x="1728" 
d="M449 1380v-2l-259 -88l-6 37l295 107h21l-146 -820h-41zM1313 1434h47l-1106 -1434h-47zM1616 221l-6 -37h-127l-33 -184h-41l33 184h-465l6 37l420 598h43l-418 -598h420l43 248h41l-43 -248h127z" />
    <glyph glyph-name="onehalf" unicode="&#xbd;" horiz-adv-x="1703" 
d="M449 1380v-2l-259 -88l-6 37l295 107h21l-146 -820h-41zM1313 1434h47l-1106 -1434h-47zM1622 610q-16 -123 -149 -233l-414 -340h479l-6 -37h-545l4 31l453 370q57 46 94.5 102.5t44.5 108.5q13 79 -36.5 137t-143.5 58q-82 0 -151 -43.5t-101 -110.5l-35 19
q37 75 114.5 123.5t174.5 48.5q114 0 172 -68t45 -166z" />
    <glyph glyph-name="threequarters" unicode="&#xbe;" horiz-adv-x="1929" 
d="M670 840q-20 -109 -101 -179.5t-213 -70.5q-198 0 -241 151l37 19q32 -133 206 -133q114 0 185.5 62.5t87.5 154.5q15 93 -34 155t-163 62h-4l-14 26l274 310h-440l6 37h487l-6 -37l-268 -301q111 -9 164 -82t37 -174zM1513 1434h48l-1106 -1434h-47zM1817 221l-7 -37
h-127l-32 -184h-41l32 184h-464l6 37l420 598h43l-418 -598h420l43 248h41l-43 -248h127z" />
    <glyph glyph-name="questiondown" unicode="&#xbf;" horiz-adv-x="1077" 
d="M659 1044q22 0 34 -15.5t7 -37.5q-4 -23 -20.5 -36t-38.5 -13t-34 15.5t-7 37.5q4 23 20.5 36t38.5 13zM618 696q-13 -74 -47 -142.5t-79 -122t-96.5 -104.5t-103 -98.5t-95 -94.5t-75.5 -102.5t-42 -113.5q-26 -140 50.5 -225.5t252.5 -85.5q134 0 249 67t169 168
l33 -18q-61 -113 -189 -183.5t-268 -70.5q-177 0 -272 95.5t-66 256.5q10 60 42.5 117.5t76.5 106t95.5 97t103 98.5t96.5 102.5t79 117.5t46 135h40z" />
    <glyph glyph-name="Agrave" unicode="&#xc0;" horiz-adv-x="1286" 
d="M883 1577h-33l-131 246h41zM1104 0l-86 391h-789l-223 -391h-45l819 1434h51l314 -1434h-41zM250 428h760l-209 963z" />
    <glyph glyph-name="Aacute" unicode="&#xc1;" horiz-adv-x="1286" 
d="M1030 1823l-211 -246h-39l205 246h45zM1104 0l-86 391h-789l-223 -391h-45l819 1434h51l314 -1434h-41zM250 428h760l-209 963z" />
    <glyph glyph-name="Acircumflex" unicode="&#xc2;" horiz-adv-x="1286" 
d="M870 1798l-245 -221h-50l273 246h45l186 -246h-41zM1104 0l-86 391h-789l-223 -391h-45l819 1434h51l314 -1434h-41zM250 428h760l-209 963z" />
    <glyph glyph-name="Atilde" unicode="&#xc3;" horiz-adv-x="1286" 
d="M842 1692q-51 66 -100.5 74.5t-83.5 -32t-48 -116.5h-35q16 94 62 144t107 39.5t118 -85.5q77 -95 145 -68t89 142h34q-12 -69 -42.5 -114.5t-70 -61t-86 3.5t-89.5 74zM1104 0l-86 391h-789l-223 -391h-45l819 1434h51l314 -1434h-41zM250 428h760l-209 963z" />
    <glyph glyph-name="Adieresis" unicode="&#xc4;" horiz-adv-x="1286" 
d="M670 1597q-17 0 -27.5 12t-7.5 29t17.5 29t31.5 12t26.5 -12t6.5 -29t-16.5 -29t-30.5 -12zM997 1597q-17 0 -27 12t-7 29t17.5 29t31.5 12t26 -12t6 -29t-16.5 -29t-30.5 -12zM1104 0l-86 391h-789l-223 -391h-45l819 1434h51l314 -1434h-41zM250 428h760l-209 963z" />
    <glyph glyph-name="Aring" unicode="&#xc5;" horiz-adv-x="1286" 
d="M1104 0l-86 391h-789l-223 -391h-45l809 1415q-70 10 -105.5 60.5t-23.5 121.5q13 82 75.5 133.5t147.5 51.5t132 -51t34 -134q-12 -73 -65 -123t-129 -59l309 -1415h-41zM678 1597q-12 -67 24 -109t107 -42q70 0 121 41.5t63 109.5t-25.5 110t-107.5 42
q-69 0 -119.5 -41.5t-62.5 -110.5zM250 428h760l-209 963z" />
    <glyph glyph-name="AE" unicode="&#xc6;" horiz-adv-x="1757" 
d="M1800 1397h-686l-115 -656h635l-6 -36h-637l-117 -668h697l-6 -37h-738l74 418h-592l-327 -418h-52l1129 1434h747zM338 455h569l164 931z" />
    <glyph glyph-name="Ccedilla" unicode="&#xc7;" horiz-adv-x="1562" 
d="M1006 1417q-149 0 -287 -55.5t-243 -150t-177.5 -223t-97.5 -271.5q-34 -189 25 -349.5t200.5 -256t337.5 -95.5q190 0 359.5 89t281.5 241l33 -20q-109 -151 -279 -245t-366 -101l-25 -142q71 3 120 -30t38 -99q-12 -78 -110 -112t-271 -11l6 33q155 -20 241 5.5
t97 88.5q9 48 -31.5 73.5t-132.5 18.5l31 175q-151 1 -275.5 59.5t-203.5 157t-111.5 235t-5.5 289.5t104 288t188 233t256 155t300 57q195 0 342.5 -90t220.5 -240l-35 -18q-69 143 -208.5 227t-321.5 84z" />
    <glyph glyph-name="Egrave" unicode="&#xc8;" horiz-adv-x="1105" 
d="M827 1577h-32l-131 246h41zM1149 1397h-748l-114 -656h696l-6 -36h-698l-117 -668h758l-7 -37h-798l252 1434h788z" />
    <glyph glyph-name="Eacute" unicode="&#xc9;" horiz-adv-x="1105" 
d="M975 1823l-211 -246h-39l205 246h45zM1149 1397h-748l-114 -656h696l-6 -36h-698l-117 -668h758l-7 -37h-798l252 1434h788z" />
    <glyph glyph-name="Ecircumflex" unicode="&#xca;" horiz-adv-x="1105" 
d="M815 1798l-246 -221h-49l273 246h45l186 -246h-41zM1149 1397h-748l-114 -656h696l-6 -36h-698l-117 -668h758l-7 -37h-798l252 1434h788z" />
    <glyph glyph-name="Edieresis" unicode="&#xcb;" horiz-adv-x="1105" 
d="M614 1597q-17 0 -27 12t-7 29t17.5 29t31.5 12t26.5 -12t6.5 -29t-17 -29t-31 -12zM942 1597q-17 0 -27.5 12t-7.5 29t17.5 29t31.5 12t26.5 -12t6.5 -29t-16.5 -29t-30.5 -12zM1149 1397h-748l-114 -656h696l-6 -36h-698l-117 -668h758l-7 -37h-798l252 1434h788z" />
    <glyph glyph-name="Igrave" unicode="&#xcc;" horiz-adv-x="450" 
d="M465 1577l-123 246h-41l131 -246h33zM367 1434h41l-252 -1434h-41z" />
    <glyph glyph-name="Iacute" unicode="&#xcd;" horiz-adv-x="450" 
d="M362 1577h39l211 246h-45zM367 1434h41l-252 -1434h-41z" />
    <glyph glyph-name="Icircumflex" unicode="&#xce;" horiz-adv-x="450" 
d="M662 1577h-41l-168 221l-246 -221h-49l272 246h45zM115 0l252 1434h41l-252 -1434h-41z" />
    <glyph glyph-name="Idieresis" unicode="&#xcf;" horiz-adv-x="450" 
d="M252 1597q-17 0 -27.5 12t-7.5 29t17.5 29t31.5 12t26.5 -12t6.5 -29t-16.5 -29t-30.5 -12zM580 1597q-17 0 -27.5 12t-7.5 29t17.5 29t31.5 12t26.5 -12t6.5 -29t-16.5 -29t-30.5 -12zM367 1434h41l-252 -1434h-41z" />
    <glyph glyph-name="Eth" unicode="&#xd0;" horiz-adv-x="1556" 
d="M920 1434q142 0 258 -58t188 -156t100 -231.5t2 -279.5q-35 -197 -146 -358t-283 -256t-371 -95h-512l123 698h-123l6 37h123l123 699h512zM1427 715q17 113 8 214.5t-52 187.5t-108 148t-158.5 97t-203.5 35h-471l-116 -662h573l-6 -37h-574l-116 -661h471
q138 0 266.5 53.5t226.5 145t166.5 216t93.5 263.5z" />
    <glyph glyph-name="Ntilde" unicode="&#xd1;" horiz-adv-x="1433" 
d="M649 1618q16 94 62 144t107 39.5t118 -85.5q77 -95 144.5 -68t88.5 142h35q-16 -92 -62.5 -141.5t-108 -39.5t-118.5 83q-51 66 -100 74.5t-83 -32t-48 -116.5h-35zM115 0l252 1434h41l700 -1366l242 1366h41l-252 -1434h-41l-701 1366l-241 -1366h-41z" />
    <glyph glyph-name="Ograve" unicode="&#xd2;" horiz-adv-x="1720" 
d="M1100 1577l-123 246h-41l131 -246h33zM768 -20q-150 0 -276.5 59t-208 159t-116 237.5t-7.5 287.5q35 201 163 369t314 265t387 97q119 0 225 -38t184 -106t132.5 -161.5t70 -204t-3.5 -233.5q-35 -201 -163 -369t-314 -265t-387 -97zM772 16q189 0 365.5 94t298 255
t155.5 352q25 143 -7 272.5t-108 223t-195 149t-261 55.5t-280.5 -55.5t-248 -149t-187.5 -223t-103 -272.5q-34 -190 30 -351.5t208 -255.5t333 -94z" />
    <glyph glyph-name="Oacute" unicode="&#xd3;" horiz-adv-x="1720" 
d="M997 1577h39l211 246h-45zM768 -20q-150 0 -276.5 59t-208 159t-116 237.5t-7.5 287.5q35 201 163 369t314 265t387 97q119 0 225 -38t184 -106t132.5 -161.5t70 -204t-3.5 -233.5q-35 -201 -163 -369t-314 -265t-387 -97zM772 16q189 0 365.5 94t298 255t155.5 352
q25 143 -7 272.5t-108 223t-195 149t-261 55.5t-280.5 -55.5t-248 -149t-187.5 -223t-103 -272.5q-34 -190 30 -351.5t208 -255.5t333 -94z" />
    <glyph glyph-name="Ocircumflex" unicode="&#xd4;" horiz-adv-x="1720" 
d="M1087 1798l-245 -221h-49l272 246h45l186 -246h-41zM1024 1454q119 0 225 -38t184 -106t132.5 -161.5t70 -204t-3.5 -233.5q-35 -201 -163 -369t-314 -265t-387 -97q-150 0 -276.5 59t-208 159t-116 237.5t-7.5 287.5q35 201 163 369t314 265t387 97zM1591 717
q25 143 -7 272.5t-108 223t-195 149t-261 55.5t-280.5 -55.5t-248 -149t-187.5 -223t-103 -272.5q-34 -190 30 -351.5t208 -255.5t333 -94t365.5 94t298 255t155.5 352z" />
    <glyph glyph-name="Otilde" unicode="&#xd5;" horiz-adv-x="1720" 
d="M793 1618q16 94 61.5 144t106.5 39.5t118 -85.5q77 -95 145 -68t89 142h35q-16 -92 -62.5 -141.5t-108 -39.5t-118.5 83q-51 66 -100.5 74.5t-83.5 -32t-48 -116.5h-34zM768 -20q-150 0 -276.5 59t-208 159t-116 237.5t-7.5 287.5q35 201 163 369t314 265t387 97
q119 0 225 -38t184 -106t132.5 -161.5t70 -204t-3.5 -233.5q-35 -201 -163 -369t-314 -265t-387 -97zM772 16q189 0 365.5 94t298 255t155.5 352q25 143 -7 272.5t-108 223t-195 149t-261 55.5t-280.5 -55.5t-248 -149t-187.5 -223t-103 -272.5q-34 -190 30 -351.5
t208 -255.5t333 -94z" />
    <glyph glyph-name="Odieresis" unicode="&#xd6;" horiz-adv-x="1720" 
d="M887 1597q-17 0 -27.5 12t-7.5 29t17.5 29t31.5 12t26.5 -12t6.5 -29t-16.5 -29t-30.5 -12zM1214 1597q-17 0 -27 12t-7 29t17.5 29t31.5 12t26.5 -12t6.5 -29t-17 -29t-31 -12zM768 -20q-150 0 -276.5 59t-208 159t-116 237.5t-7.5 287.5q35 201 163 369t314 265t387 97
q119 0 225 -38t184 -106t132.5 -161.5t70 -204t-3.5 -233.5q-35 -201 -163 -369t-314 -265t-387 -97zM772 16q189 0 365.5 94t298 255t155.5 352q25 143 -7 272.5t-108 223t-195 149t-261 55.5t-280.5 -55.5t-248 -149t-187.5 -223t-103 -272.5q-34 -190 30 -351.5
t208 -255.5t333 -94z" />
    <glyph glyph-name="multiply" unicode="&#xd7;" horiz-adv-x="950" 
d="M897 1022l-360 -307l251 -303l-28 -25l-252 303l-354 -303l-29 25l360 307l-252 303l29 25l252 -304l354 304z" />
    <glyph glyph-name="Oslash" unicode="&#xd8;" horiz-adv-x="1740" 
d="M1503 1262q97 -103 138 -247t12 -304q-27 -150 -108.5 -285.5t-197.5 -233t-262.5 -155t-296.5 -57.5q-261 0 -434 165l-149 -145l-31 20l154 150q-96 105 -136.5 249.5t-11.5 303.5q35 201 163 369t314 265t387 97q254 0 435 -166l149 146l31 -21zM221 717
q-27 -151 9.5 -286t125.5 -232l1094 1063q-165 155 -410 155q-142 0 -280.5 -55.5t-248 -149t-187.5 -223t-103 -272.5zM1612 717q27 151 -9.5 286t-125.5 232l-1094 -1063q76 -74 181.5 -115t228.5 -41q189 0 365.5 94t298 255t155.5 352z" />
    <glyph glyph-name="Ugrave" unicode="&#xd9;" horiz-adv-x="1392" 
d="M928 1577l-123 246h-41l131 -246h33zM612 -20q-238 0 -356 135.5t-80 345.5l172 973h41l-172 -973q-19 -91 -1 -172t62.5 -141.5t130 -96t201.5 -35.5q115 0 212.5 35t164.5 97t110.5 141.5t59.5 171.5l172 973h41l-172 -973q-37 -216 -195 -348.5t-391 -132.5z" />
    <glyph glyph-name="Uacute" unicode="&#xda;" horiz-adv-x="1392" 
d="M825 1577h39l211 246h-45zM612 -20q-238 0 -356 135.5t-80 345.5l172 973h41l-172 -973q-19 -91 -1 -172t62.5 -141.5t130 -96t201.5 -35.5q115 0 212.5 35t164.5 97t110.5 141.5t59.5 171.5l172 973h41l-172 -973q-37 -216 -195 -348.5t-391 -132.5z" />
    <glyph glyph-name="Ucircumflex" unicode="&#xdb;" horiz-adv-x="1392" 
d="M915 1798l-245 -221h-49l272 246h45l186 -246h-41zM1329 1434h41l-172 -973q-37 -216 -195 -348.5t-391 -132.5q-238 0 -356 135.5t-80 345.5l172 973h41l-172 -973q-19 -91 -1 -172t62.5 -141.5t130 -96t201.5 -35.5q115 0 212.5 35t164.5 97t110.5 141.5t59.5 171.5z
" />
    <glyph glyph-name="Udieresis" unicode="&#xdc;" horiz-adv-x="1392" 
d="M715 1597q-17 0 -27.5 12t-7.5 29t17.5 29t31.5 12t26.5 -12t6.5 -29t-16.5 -29t-30.5 -12zM1042 1597q-17 0 -27 12t-7 29t17.5 29t31.5 12t26.5 -12t6.5 -29t-17 -29t-31 -12zM612 -20q-238 0 -356 135.5t-80 345.5l172 973h41l-172 -973q-19 -91 -1 -172t62.5 -141.5
t130 -96t201.5 -35.5q115 0 212.5 35t164.5 97t110.5 141.5t59.5 171.5l172 973h41l-172 -973q-37 -216 -195 -348.5t-391 -132.5z" />
    <glyph glyph-name="Yacute" unicode="&#xdd;" horiz-adv-x="1146" 
d="M961 1823l-211 -246h-39l204 246h46zM1268 1434l-645 -760l-119 -674h-41l119 676l-379 758h43l360 -725l615 725h47z" />
    <glyph glyph-name="Thorn" unicode="&#xde;" 
d="M750 1147q194 0 298 -123t74 -307q-30 -182 -174.5 -306t-341.5 -124h-399l-51 -287h-41l252 1434h41l-52 -287h394zM1081 717q29 170 -63 281.5t-266 111.5h-402l-137 -786h395q177 0 310.5 111.5t162.5 281.5z" />
    <glyph glyph-name="germandbls" unicode="&#xdf;" horiz-adv-x="1058" 
d="M504 -10l8 37q165 -12 276.5 62t126.5 200q7 61 -14.5 120.5t-57.5 108t-72.5 94.5t-60 95t-18.5 94q4 34 29.5 70t61 68.5t71 67.5t64.5 79.5t38 91.5q19 106 -48.5 172.5t-196.5 66.5q-156 0 -256.5 -91t-128.5 -251l-191 -1075h-41l191 1075q32 183 146.5 281
t285.5 98q145 0 223.5 -83t56.5 -202q-9 -46 -38.5 -92.5t-66 -84t-72.5 -72t-60.5 -67.5t-26.5 -60q-3 -39 22 -84.5t61 -90t71 -93.5t56 -112.5t13 -129.5q-19 -144 -142.5 -225t-309.5 -68z" />
    <glyph glyph-name="agrave" unicode="&#xe0;" horiz-adv-x="1355" 
d="M803 1167h-33l-131 246h41zM1221 1024h41l-181 -1024h-41l52 289q-79 -144 -219 -226.5t-310 -82.5q-108 0 -202 45.5t-156.5 121t-90 179t-8.5 213.5q40 225 209 365t396 140q170 0 293.5 -104.5t154.5 -267.5zM569 16q207 0 363.5 133.5t193.5 342.5q24 137 -25 256.5
t-154.5 189.5t-241.5 70q-207 0 -364 -133.5t-194 -342.5q-18 -103 7 -198t82 -165t144 -111.5t189 -41.5z" />
    <glyph glyph-name="aacute" unicode="&#xe1;" horiz-adv-x="1355" 
d="M950 1413l-211 -246h-39l205 246h45zM1221 1024h41l-181 -1024h-41l52 289q-79 -144 -219 -226.5t-310 -82.5q-108 0 -202 45.5t-156.5 121t-90 179t-8.5 213.5q40 225 209 365t396 140q170 0 293.5 -104.5t154.5 -267.5zM569 16q207 0 363.5 133.5t193.5 342.5
q24 137 -25 256.5t-154.5 189.5t-241.5 70q-207 0 -364 -133.5t-194 -342.5q-18 -103 7 -198t82 -165t144 -111.5t189 -41.5z" />
    <glyph glyph-name="acircumflex" unicode="&#xe2;" horiz-adv-x="1355" 
d="M791 1389l-246 -222h-49l272 246h45l186 -246h-41zM1221 1024h41l-181 -1024h-41l52 289q-79 -144 -219 -226.5t-310 -82.5q-108 0 -202 45.5t-156.5 121t-90 179t-8.5 213.5q40 225 209 365t396 140q170 0 293.5 -104.5t154.5 -267.5zM569 16q207 0 363.5 133.5
t193.5 342.5q24 137 -25 256.5t-154.5 189.5t-241.5 70q-207 0 -364 -133.5t-194 -342.5q-18 -103 7 -198t82 -165t144 -111.5t189 -41.5z" />
    <glyph glyph-name="atilde" unicode="&#xe3;" horiz-adv-x="1355" 
d="M762 1282q-51 66 -100.5 74.5t-83.5 -32t-48 -116.5h-34q16 94 61.5 144t106.5 40t118 -85q77 -95 145 -68.5t89 141.5h35q-16 -92 -62.5 -141.5t-108 -39.5t-118.5 83zM1221 1024h41l-181 -1024h-41l52 289q-79 -144 -219 -226.5t-310 -82.5q-108 0 -202 45.5
t-156.5 121t-90 179t-8.5 213.5q40 225 209 365t396 140q170 0 293.5 -104.5t154.5 -267.5zM569 16q207 0 363.5 133.5t193.5 342.5q24 137 -25 256.5t-154.5 189.5t-241.5 70q-207 0 -364 -133.5t-194 -342.5q-18 -103 7 -198t82 -165t144 -111.5t189 -41.5z" />
    <glyph glyph-name="adieresis" unicode="&#xe4;" horiz-adv-x="1355" 
d="M590 1188q-17 0 -27.5 12t-7.5 29t17.5 29t31.5 12t26.5 -12t6.5 -29t-16.5 -29t-30.5 -12zM918 1188q-17 0 -27.5 12t-7.5 29t17.5 29t31.5 12t26.5 -12t6.5 -29t-16.5 -29t-30.5 -12zM1221 1024h41l-181 -1024h-41l52 289q-79 -144 -219 -226.5t-310 -82.5
q-108 0 -202 45.5t-156.5 121t-90 179t-8.5 213.5q40 225 209 365t396 140q170 0 293.5 -104.5t154.5 -267.5zM569 16q207 0 363.5 133.5t193.5 342.5q24 137 -25 256.5t-154.5 189.5t-241.5 70q-207 0 -364 -133.5t-194 -342.5q-18 -103 7 -198t82 -165t144 -111.5
t189 -41.5z" />
    <glyph glyph-name="aring" unicode="&#xe5;" horiz-adv-x="1355" 
d="M750 1147q-87 0 -132.5 52.5t-31.5 131.5q13 82 75.5 133.5t147.5 51.5t132 -51t34 -134q-14 -80 -76 -132t-149 -52zM623 1331q-12 -67 24 -109t107 -42q70 0 121 41.5t63 109.5t-25.5 110t-107.5 42q-69 0 -119.5 -41.5t-62.5 -110.5zM1221 1024h41l-181 -1024h-41
l52 289q-79 -144 -219 -226.5t-310 -82.5q-108 0 -202 45.5t-156.5 121t-90 179t-8.5 213.5q40 225 209 365t396 140q170 0 293.5 -104.5t154.5 -267.5zM569 16q207 0 363.5 133.5t193.5 342.5q24 137 -25 256.5t-154.5 189.5t-241.5 70q-207 0 -364 -133.5t-194 -342.5
q-18 -103 7 -198t82 -165t144 -111.5t189 -41.5z" />
    <glyph glyph-name="ae" unicode="&#xe6;" horiz-adv-x="2250" 
d="M1739 1044q114 0 202 -44t138 -118.5t68.5 -170.5t0.5 -201l-4 -23h-977q-28 -210 83 -340.5t317 -130.5q140 0 255.5 56.5t182.5 154.5l31 -20q-74 -107 -198.5 -167t-276.5 -60q-172 0 -286 90.5t-142 244.5l-56 -315h-37l54 303q-84 -147 -232.5 -235t-318.5 -88
q-110 0 -201 42t-150 113.5t-83.5 171.5t-4.5 211q40 225 220 375.5t407 150.5q164 0 282 -93t152 -244l56 317h36l-53 -305q78 149 219.5 237t315.5 88zM549 16q207 0 375.5 143.5t205.5 352.5q24 137 -21 251t-146.5 179.5t-237.5 65.5q-207 0 -375 -143.5t-205 -352.5
q-24 -137 20.5 -251t146 -179.5t237.5 -65.5zM1174 524h940q28 217 -76.5 350.5t-302.5 133.5q-206 0 -363 -135t-198 -349z" />
    <glyph glyph-name="ccedilla" unicode="&#xe7;" 
d="M725 1008q-212 0 -377.5 -142.5t-202.5 -353.5q-24 -138 18.5 -251.5t144 -179t241.5 -65.5q138 0 261 63.5t196 170.5l30 -21q-75 -113 -199 -179t-272 -70l-24 -142q70 3 119 -30t38 -99q-12 -78 -110 -112t-271 -11l7 33q155 -20 241 5.5t97 88.5q9 48 -31.5 73.5
t-132.5 18.5l30 175q-222 6 -343 160.5t-81 377.5q40 226 218.5 376t408.5 150q147 0 255 -68t147 -181l-35 -21q-34 108 -131.5 171t-241.5 63z" />
    <glyph glyph-name="egrave" unicode="&#xe8;" horiz-adv-x="1222" 
d="M784 1167h-32l-131 246h41zM711 1044q114 0 202 -44t138 -118.5t68.5 -170.5t0.5 -201l-4 -23h-977q-28 -210 83 -340.5t317 -130.5q140 0 255.5 56.5t182.5 154.5l31 -20q-74 -107 -199 -167t-277 -60q-151 0 -259 69t-153 191.5t-18 275.5q26 150 110 270t214.5 189
t284.5 69zM145 524h940q28 217 -76 350.5t-302 133.5q-206 0 -363.5 -135.5t-198.5 -348.5z" />
    <glyph glyph-name="eacute" unicode="&#xe9;" horiz-adv-x="1222" 
d="M932 1413l-211 -246h-39l205 246h45zM711 1044q114 0 202 -44t138 -118.5t68.5 -170.5t0.5 -201l-4 -23h-977q-28 -210 83 -340.5t317 -130.5q140 0 255.5 56.5t182.5 154.5l31 -20q-74 -107 -199 -167t-277 -60q-151 0 -259 69t-153 191.5t-18 275.5q26 150 110 270
t214.5 189t284.5 69zM145 524h940q28 217 -76 350.5t-302 133.5q-206 0 -363.5 -135.5t-198.5 -348.5z" />
    <glyph glyph-name="ecircumflex" unicode="&#xea;" horiz-adv-x="1222" 
d="M772 1389l-246 -222h-49l273 246h45l186 -246h-41zM711 1044q114 0 202 -44t138 -118.5t68.5 -170.5t0.5 -201l-4 -23h-977q-28 -210 83 -340.5t317 -130.5q140 0 255.5 56.5t182.5 154.5l31 -20q-74 -107 -199 -167t-277 -60q-151 0 -259 69t-153 191.5t-18 275.5
q26 150 110 270t214.5 189t284.5 69zM145 524h940q28 217 -76 350.5t-302 133.5q-206 0 -363.5 -135.5t-198.5 -348.5z" />
    <glyph glyph-name="edieresis" unicode="&#xeb;" horiz-adv-x="1222" 
d="M571 1188q-17 0 -27 12t-7 29t17.5 29t31.5 12t26 -12t6 -29t-16.5 -29t-30.5 -12zM899 1188q-17 0 -27.5 12t-7.5 29t17.5 29t31.5 12t26.5 -12t6.5 -29t-16.5 -29t-30.5 -12zM711 1044q114 0 202 -44t138 -118.5t68.5 -170.5t0.5 -201l-4 -23h-977q-28 -210 83 -340.5
t317 -130.5q140 0 255.5 56.5t182.5 154.5l31 -20q-74 -107 -199 -167t-277 -60q-151 0 -259 69t-153 191.5t-18 275.5q26 150 110 270t214.5 189t284.5 69zM145 524h940q28 217 -76 350.5t-302 133.5q-206 0 -363.5 -135.5t-198.5 -348.5z" />
    <glyph glyph-name="igrave" unicode="&#xec;" horiz-adv-x="409" 
d="M354 1167l-90 246h-43l96 -246h37zM135 0h-41l180 1024h41z" />
    <glyph glyph-name="iacute" unicode="&#xed;" horiz-adv-x="409" 
d="M281 1167h36l183 246h-43zM94 0l180 1024h41l-180 -1024h-41z" />
    <glyph glyph-name="icircumflex" unicode="&#xee;" horiz-adv-x="409" 
d="M512 1167h-45l-109 213l-182 -213h-45l211 246h45zM94 0l180 1024h41l-180 -1024h-41z" />
    <glyph glyph-name="idieresis" unicode="&#xef;" horiz-adv-x="409" 
d="M203 1188q-17 0 -27.5 12t-7.5 29t17.5 29t31.5 12t26.5 -12t6.5 -29t-16.5 -29t-30.5 -12zM449 1188q-17 0 -27.5 12t-7.5 29t17.5 29t31.5 12t26.5 -12t6.5 -29t-16.5 -29t-30.5 -12zM94 0l180 1024h41l-180 -1024h-41z" />
    <glyph glyph-name="eth" unicode="&#xf0;" horiz-adv-x="1208" 
d="M1055 743q68 -118 39 -299q-40 -219 -196 -341.5t-363 -122.5q-139 0 -248 65t-161.5 184.5t-25.5 266.5q24 138 107.5 242t199 156t244.5 52q179 0 301 -92l-211 375l-303 -168l6 45l279 156l-96 172h39l88 -156l252 139l-9 -45l-225 -125zM1053 451q28 173 -29 274
q-108 184 -379 184q-190 0 -331 -117t-173 -300q-23 -129 18.5 -238t142 -173.5t239.5 -64.5q195 0 336 120t176 315z" />
    <glyph glyph-name="ntilde" unicode="&#xf1;" horiz-adv-x="1177" 
d="M711 1282q-51 66 -100.5 74.5t-83.5 -32t-48 -116.5h-35q16 94 62 144.5t107 40t118 -85.5q77 -95 145 -68.5t89 141.5h34q-12 -69 -42.5 -114.5t-70 -61t-86 3.5t-89.5 74zM723 1044q173 0 265 -108.5t61 -284.5l-115 -651h-41l115 651q27 155 -50 256t-239 101
q-174 0 -308 -120.5t-175 -318.5l-101 -569h-41l180 1024h41l-47 -262q71 137 193.5 209.5t261.5 72.5z" />
    <glyph glyph-name="ograve" unicode="&#xf2;" horiz-adv-x="1273" 
d="M788 1167l-122 246h-41l131 -246h32zM545 -20q-109 0 -200.5 42.5t-151 114.5t-84.5 172t-5 211q40 225 220 374.5t405 149.5q145 0 255.5 -71.5t160.5 -196t24 -272.5q-40 -225 -219.5 -374.5t-404.5 -149.5zM549 16q207 0 374.5 143.5t204.5 352.5q24 137 -21.5 251
t-146.5 179.5t-235 65.5q-207 0 -375 -143.5t-205 -352.5q-24 -137 21.5 -251t147 -179.5t235.5 -65.5z" />
    <glyph glyph-name="oacute" unicode="&#xf3;" horiz-adv-x="1273" 
d="M686 1167h39l211 246h-45zM545 -20q-109 0 -200.5 42.5t-151 114.5t-84.5 172t-5 211q40 225 220 374.5t405 149.5q145 0 255.5 -71.5t160.5 -196t24 -272.5q-40 -225 -219.5 -374.5t-404.5 -149.5zM549 16q207 0 374.5 143.5t204.5 352.5q24 137 -21.5 251t-146.5 179.5
t-235 65.5q-207 0 -375 -143.5t-205 -352.5q-24 -137 21.5 -251t147 -179.5t235.5 -65.5z" />
    <glyph glyph-name="ocircumflex" unicode="&#xf4;" horiz-adv-x="1273" 
d="M776 1389l-246 -222h-49l273 246h45l186 -246h-41zM729 1044q145 0 255.5 -71.5t160.5 -196t24 -272.5q-40 -225 -219.5 -374.5t-404.5 -149.5q-109 0 -200.5 42.5t-151 114.5t-84.5 172t-5 211q40 225 220 374.5t405 149.5zM1128 512q24 137 -21.5 251t-146.5 179.5
t-235 65.5q-207 0 -375 -143.5t-205 -352.5q-24 -137 21.5 -251t147 -179.5t235.5 -65.5q207 0 374.5 143.5t204.5 352.5z" />
    <glyph glyph-name="otilde" unicode="&#xf5;" horiz-adv-x="1273" 
d="M481 1208q16 94 62 144.5t107 40t118 -85.5q77 -95 144.5 -68.5t88.5 141.5h35q-12 -69 -42.5 -114.5t-70 -61t-86 3.5t-89.5 74q-51 66 -100.5 74.5t-83.5 -32t-48 -116.5h-35zM545 -20q-109 0 -200.5 42.5t-151 114.5t-84.5 172t-5 211q40 225 220 374.5t405 149.5
q145 0 255.5 -71.5t160.5 -196t24 -272.5q-40 -225 -219.5 -374.5t-404.5 -149.5zM549 16q207 0 374.5 143.5t204.5 352.5q24 137 -21.5 251t-146.5 179.5t-235 65.5q-207 0 -375 -143.5t-205 -352.5q-24 -137 21.5 -251t147 -179.5t235.5 -65.5z" />
    <glyph glyph-name="odieresis" unicode="&#xf6;" horiz-adv-x="1273" 
d="M575 1188q-17 0 -27 12t-7 29t17.5 29t31.5 12t26.5 -12t6.5 -29t-17 -29t-31 -12zM903 1188q-17 0 -27.5 12t-7.5 29t18 29t32 12t26 -12t6 -29t-16.5 -29t-30.5 -12zM545 -20q-109 0 -200.5 42.5t-151 114.5t-84.5 172t-5 211q40 225 220 374.5t405 149.5
q145 0 255.5 -71.5t160.5 -196t24 -272.5q-40 -225 -219.5 -374.5t-404.5 -149.5zM549 16q207 0 374.5 143.5t204.5 352.5q24 137 -21.5 251t-146.5 179.5t-235 65.5q-207 0 -375 -143.5t-205 -352.5q-24 -137 21.5 -251t147 -179.5t235.5 -65.5z" />
    <glyph glyph-name="divide" unicode="&#xf7;" 
d="M688 1049q-22 0 -34 15.5t-7 37.5q3 21 20.5 35t39.5 14q21 0 33.5 -15.5t9.5 -37.5q-4 -21 -22 -35t-40 -14zM176 698l6 37h901l-6 -37h-901zM553 283q-22 0 -34 15.5t-7 37.5q3 21 20 35t39 14q21 0 33.5 -15.5t9.5 -37.5q-4 -22 -21.5 -35.5t-39.5 -13.5z" />
    <glyph glyph-name="oslash" unicode="&#xf8;" horiz-adv-x="1273" 
d="M1200 1004l-123 -113q63 -75 87.5 -175t4.5 -212q-40 -225 -219.5 -374.5t-404.5 -149.5q-198 0 -324 126l-117 -106l-30 20l123 113q-63 75 -88 175t-5 212q40 225 220 374.5t405 149.5q198 0 324 -126l116 106zM145 512q-37 -206 80 -352l799 731q-117 117 -299 117
q-207 0 -375 -143.5t-205 -352.5zM1128 512q37 207 -79 352l-799 -731q117 -117 299 -117q207 0 374.5 143.5t204.5 352.5z" />
    <glyph glyph-name="ugrave" unicode="&#xf9;" horiz-adv-x="1177" 
d="M745 1167h-32l-131 246h41zM1042 1024h41l-180 -1024h-41l47 262q-71 -137 -193 -209.5t-261 -72.5q-173 0 -265 108.5t-61 284.5l115 651h41l-115 -651q-27 -155 50 -256t239 -101q174 0 308 120.5t175 318.5z" />
    <glyph glyph-name="uacute" unicode="&#xfa;" horiz-adv-x="1177" 
d="M893 1413l-211 -246h-39l205 246h45zM1042 1024h41l-180 -1024h-41l47 262q-71 -137 -193 -209.5t-261 -72.5q-173 0 -265 108.5t-61 284.5l115 651h41l-115 -651q-27 -155 50 -256t239 -101q174 0 308 120.5t175 318.5z" />
    <glyph glyph-name="ucircumflex" unicode="&#xfb;" horiz-adv-x="1177" 
d="M733 1389l-246 -222h-49l273 246h45l186 -246h-41zM1042 1024h41l-180 -1024h-41l47 262q-71 -137 -193 -209.5t-261 -72.5q-173 0 -265 108.5t-61 284.5l115 651h41l-115 -651q-27 -155 50 -256t239 -101q174 0 308 120.5t175 318.5z" />
    <glyph glyph-name="udieresis" unicode="&#xfc;" horiz-adv-x="1177" 
d="M532 1188q-17 0 -27 12t-7 29t17.5 29t31.5 12t26.5 -12t6.5 -29t-17 -29t-31 -12zM860 1188q-17 0 -27.5 12t-7.5 29t17.5 29t31.5 12t26.5 -12t6.5 -29t-16.5 -29t-30.5 -12zM1042 1024h41l-180 -1024h-41l47 262q-71 -137 -193 -209.5t-261 -72.5q-173 0 -265 108.5
t-61 284.5l115 651h41l-115 -651q-27 -155 50 -256t239 -101q174 0 308 120.5t175 318.5z" />
    <glyph glyph-name="yacute" unicode="&#xfd;" horiz-adv-x="1044" 
d="M811 1413l-211 -246h-39l205 246h45zM1049 1024h45l-643 -1118q-89 -155 -206.5 -240.5t-242.5 -75.5l6 37q107 -9 217 71t189 220l18 31l-301 1075h39l289 -1026z" />
    <glyph glyph-name="thorn" unicode="&#xfe;" horiz-adv-x="1355" 
d="M793 1044q107 0 201 -45.5t156.5 -121t90 -179t8.5 -213.5q-40 -225 -208.5 -365t-395.5 -140q-171 0 -294 104t-154 266l-134 -760h-40l323 1844h41l-123 -699q78 143 219 226t310 83zM1208 492q18 103 -7 198t-82 165t-144 111.5t-189 41.5q-207 0 -363.5 -133.5
t-193.5 -342.5q-18 -103 7 -198t82 -165t144 -111.5t189 -41.5q207 0 363.5 133.5t193.5 342.5z" />
    <glyph glyph-name="ydieresis" unicode="&#xff;" horiz-adv-x="1044" 
d="M451 1188q-17 0 -27.5 12t-7.5 29t17.5 29t31.5 12t26.5 -12t6.5 -29t-16.5 -29t-30.5 -12zM778 1188q-17 0 -27.5 12t-7.5 29t18 29t32 12t26 -12t6 -29t-16.5 -29t-30.5 -12zM1049 1024h45l-643 -1118q-89 -155 -206.5 -240.5t-242.5 -75.5l6 37q107 -9 217 71t189 220
l18 31l-301 1075h39l289 -1026z" />
    <glyph glyph-name="Amacron" unicode="&#x100;" horiz-adv-x="1286" 
d="M1094 1673l-7 -33h-491l6 33h492zM1104 0l-86 391h-789l-223 -391h-45l819 1434h51l314 -1434h-41zM250 428h760l-209 963z" />
    <glyph glyph-name="amacron" unicode="&#x101;" horiz-adv-x="1355" 
d="M1014 1264l-6 -33h-492l6 33h492zM1221 1024h41l-181 -1024h-41l52 289q-79 -144 -219 -226.5t-310 -82.5q-108 0 -202 45.5t-156.5 121t-90 179t-8.5 213.5q40 225 209 365t396 140q170 0 293.5 -104.5t154.5 -267.5zM569 16q207 0 363.5 133.5t193.5 342.5
q24 137 -25 256.5t-154.5 189.5t-241.5 70q-207 0 -364 -133.5t-194 -342.5q-18 -103 7 -198t82 -165t144 -111.5t189 -41.5z" />
    <glyph glyph-name="Abreve" unicode="&#x102;" horiz-adv-x="1286" 
d="M838 1581q-111 0 -171.5 59.5t-43.5 155.5h36q-13 -82 36 -132t143 -50t160 50t79 132h37q-17 -97 -92 -156t-184 -59zM1104 0l-86 391h-789l-223 -391h-45l819 1434h51l314 -1434h-41zM250 428h760l-209 963z" />
    <glyph glyph-name="abreve" unicode="&#x103;" horiz-adv-x="1355" 
d="M758 1171q-111 0 -171.5 59.5t-43.5 155.5h37q-14 -82 35 -132t143 -50t160 50t79 132h37q-17 -97 -92 -156t-184 -59zM1221 1024h41l-181 -1024h-41l52 289q-79 -144 -219 -226.5t-310 -82.5q-108 0 -202 45.5t-156.5 121t-90 179t-8.5 213.5q40 225 209 365t396 140
q170 0 293.5 -104.5t154.5 -267.5zM569 16q207 0 363.5 133.5t193.5 342.5q24 137 -25 256.5t-154.5 189.5t-241.5 70q-207 0 -364 -133.5t-194 -342.5q-18 -103 7 -198t82 -165t144 -111.5t189 -41.5z" />
    <glyph glyph-name="Aogonek" unicode="&#x104;" horiz-adv-x="1286" 
d="M895 -293q-9 -47 16 -75.5t72 -28.5q55 0 94 20l-6 -37q-33 -16 -94 -16q-65 0 -98 38t-21 101q22 135 244 301l-84 381h-789l-223 -391h-45l819 1434h51l314 -1434q-117 -88 -178 -156.5t-72 -136.5zM250 428h760l-209 963z" />
    <glyph glyph-name="aogonek" unicode="&#x105;" horiz-adv-x="1355" 
d="M1081 0q-116 -87 -177.5 -156.5t-72.5 -138.5q-9 -46 16.5 -74t72.5 -28q54 0 94 18l-6 -35q-39 -16 -95 -16q-62 0 -96 38.5t-22 100.5q22 140 249 309l48 271q-79 -144 -219 -226.5t-310 -82.5q-108 0 -202 45.5t-156.5 121t-90 179t-8.5 213.5q40 225 209 365t396 140
q170 0 293.5 -104.5t154.5 -267.5l62 352h41zM569 16q207 0 363.5 133.5t193.5 342.5q24 137 -25 256.5t-154.5 189.5t-241.5 70q-207 0 -364 -133.5t-194 -342.5q-18 -103 7 -198t82 -165t144 -111.5t189 -41.5z" />
    <glyph glyph-name="Cacute" unicode="&#x106;" horiz-adv-x="1562" 
d="M997 1577h39l211 246h-45zM766 -20q-205 0 -356.5 97.5t-218 267.5t-31.5 376q27 153 104 288t188 233t256 155t300 57q195 0 342.5 -90t220.5 -240l-35 -18q-69 143 -208.5 227t-321.5 84q-149 0 -287 -55.5t-243 -150t-177.5 -223t-97.5 -271.5q-34 -189 25 -349.5
t200.5 -256t337.5 -95.5q190 0 359.5 89t281.5 241l33 -20q-112 -156 -290.5 -251t-381.5 -95z" />
    <glyph glyph-name="cacute" unicode="&#x107;" 
d="M694 1167h39l211 246h-45zM543 -20q-150 0 -260 71.5t-157.5 194.5t-21.5 272q40 226 218.5 376t408.5 150q147 0 255 -68t147 -181l-35 -21q-34 108 -131.5 171t-241.5 63q-212 0 -377.5 -142.5t-202.5 -353.5q-24 -138 18.5 -251.5t144 -179t241.5 -65.5
q138 0 261 63.5t196 170.5l30 -21q-78 -118 -207.5 -183.5t-285.5 -65.5z" />
    <glyph glyph-name="Cdotaccent" unicode="&#x10a;" horiz-adv-x="1562" 
d="M1051 1597q-26 0 -41 18t-11 44t25 43.5t47 17.5t40.5 -17.5t10.5 -43.5q-5 -26 -25 -44t-46 -18zM766 -20q-205 0 -356.5 97.5t-218 267.5t-31.5 376q27 153 104 288t188 233t256 155t300 57q195 0 342.5 -90t220.5 -240l-35 -18q-69 143 -208.5 227t-321.5 84
q-149 0 -287 -55.5t-243 -150t-177.5 -223t-97.5 -271.5q-34 -189 25 -349.5t200.5 -256t337.5 -95.5q190 0 359.5 89t281.5 241l33 -20q-112 -156 -290.5 -251t-381.5 -95z" />
    <glyph glyph-name="cdotaccent" unicode="&#x10b;" 
d="M748 1188q-26 0 -41 17.5t-11 43.5q5 26 25.5 44t46.5 18t41 -18t10 -44t-25 -43.5t-46 -17.5zM543 -20q-150 0 -260 71.5t-157.5 194.5t-21.5 272q40 226 218.5 376t408.5 150q147 0 255 -68t147 -181l-35 -21q-34 108 -131.5 171t-241.5 63q-212 0 -377.5 -142.5
t-202.5 -353.5q-24 -138 18.5 -251.5t144 -179t241.5 -65.5q138 0 261 63.5t196 170.5l30 -21q-78 -118 -207.5 -183.5t-285.5 -65.5z" />
    <glyph glyph-name="Ccaron" unicode="&#x10c;" horiz-adv-x="1562" 
d="M1022 1577l-186 246h43l168 -221l243 221h49l-272 -246h-45zM1006 1417q-149 0 -287 -55.5t-243 -150t-177.5 -223t-97.5 -271.5q-34 -189 25 -349.5t200.5 -256t337.5 -95.5q190 0 359.5 89t281.5 241l33 -20q-112 -156 -290.5 -251t-381.5 -95q-205 0 -356.5 97.5
t-218 267.5t-31.5 376q27 153 104 288t188 233t256 155t300 57q195 0 342.5 -90t220.5 -240l-35 -18q-69 143 -208.5 227t-321.5 84z" />
    <glyph glyph-name="ccaron" unicode="&#x10d;" 
d="M719 1167l-187 246h43l168 -221l244 221h49l-272 -246h-45zM725 1008q-212 0 -377.5 -142.5t-202.5 -353.5q-24 -138 18.5 -251.5t144 -179t241.5 -65.5q138 0 261 63.5t196 170.5l30 -21q-78 -118 -207.5 -183.5t-285.5 -65.5q-150 0 -260 71.5t-157.5 194.5t-21.5 272
q40 226 218.5 376t408.5 150q147 0 255 -68t147 -181l-35 -21q-34 108 -131.5 171t-241.5 63z" />
    <glyph glyph-name="Dcaron" unicode="&#x10e;" horiz-adv-x="1515" 
d="M858 1577l-186 246h43l168 -221l243 221h50l-273 -246h-45zM879 1434q142 0 258 -58t188 -156t100 -231.5t2 -279.5q-35 -197 -146 -358t-283 -256t-371 -95h-512l252 1434h512zM1386 715q17 113 8 214.5t-52 187.5t-108 148t-158.5 97t-203.5 35h-471l-239 -1360h471
q138 0 266.5 53.5t226.5 145t166.5 216t93.5 263.5z" />
    <glyph glyph-name="dcaron" unicode="&#x10f;" horiz-adv-x="1404" 
d="M1159 674l133 760h41l-252 -1434h-41l52 289q-79 -144 -219 -226.5t-310 -82.5q-108 0 -202 45.5t-156.5 121t-90 179t-8.5 213.5q40 225 209 365t396 140q170 0 293.5 -104t154.5 -266zM1526 1434h41l-90 -349h-33zM569 16q207 0 363.5 133.5t193.5 342.5
q24 137 -25 256.5t-154.5 189.5t-241.5 70q-207 0 -364 -133.5t-194 -342.5q-18 -103 7 -198t82 -165t144 -111.5t189 -41.5z" />
    <glyph glyph-name="Dcroat" unicode="&#x110;" horiz-adv-x="1556" 
d="M920 1434q142 0 258 -58t188 -156t100 -231.5t2 -279.5q-35 -197 -146 -358t-283 -256t-371 -95h-512l123 698h-123l6 37h123l123 699h512zM1427 715q17 113 8 214.5t-52 187.5t-108 148t-158.5 97t-203.5 35h-471l-116 -662h573l-6 -37h-574l-116 -661h471
q138 0 266.5 53.5t226.5 145t166.5 216t93.5 263.5z" />
    <glyph glyph-name="dcroat" unicode="&#x111;" horiz-adv-x="1363" 
d="M1434 1253l-7 -34h-131l-215 -1219h-41l52 289q-79 -144 -219 -226.5t-310 -82.5q-108 0 -202 45.5t-156.5 121t-90 179t-8.5 213.5q40 225 209 365t396 140q170 0 293.5 -104t154.5 -266l96 545h-483l6 34h484l30 181h41l-30 -181h131zM569 16q207 0 363.5 133.5
t193.5 342.5q24 137 -25 256.5t-154.5 189.5t-241.5 70q-207 0 -364 -133.5t-194 -342.5q-18 -103 7 -198t82 -165t144 -111.5t189 -41.5z" />
    <glyph glyph-name="Emacron" unicode="&#x112;" horiz-adv-x="1105" 
d="M1038 1673l-6 -33h-491l6 33h491zM1149 1397h-748l-114 -656h696l-6 -36h-698l-117 -668h758l-7 -37h-798l252 1434h788z" />
    <glyph glyph-name="emacron" unicode="&#x113;" horiz-adv-x="1222" 
d="M995 1264l-6 -33h-491l6 33h491zM711 1044q114 0 202 -44t138 -118.5t68.5 -170.5t0.5 -201l-4 -23h-977q-28 -210 83 -340.5t317 -130.5q140 0 255.5 56.5t182.5 154.5l31 -20q-74 -107 -199 -167t-277 -60q-151 0 -259 69t-153 191.5t-18 275.5q26 150 110 270
t214.5 189t284.5 69zM145 524h940q28 217 -76 350.5t-302 133.5q-206 0 -363.5 -135.5t-198.5 -348.5z" />
    <glyph glyph-name="Edotaccent" unicode="&#x116;" horiz-adv-x="1105" 
d="M778 1597q-26 0 -41 18t-10 44q4 26 25 43.5t47 17.5t40.5 -17.5t10.5 -43.5q-5 -26 -25.5 -44t-46.5 -18zM1149 1397h-748l-114 -656h696l-6 -36h-698l-117 -668h758l-7 -37h-798l252 1434h788z" />
    <glyph glyph-name="edotaccent" unicode="&#x117;" horiz-adv-x="1222" 
d="M735 1188q-26 0 -40.5 17.5t-10.5 43.5q5 26 25.5 44t46.5 18t41 -18t10 -44q-4 -26 -25 -43.5t-47 -17.5zM711 1044q114 0 202 -44t138 -118.5t68.5 -170.5t0.5 -201l-4 -23h-977q-28 -210 83 -340.5t317 -130.5q140 0 255.5 56.5t182.5 154.5l31 -20
q-74 -107 -199 -167t-277 -60q-151 0 -259 69t-153 191.5t-18 275.5q26 150 110 270t214.5 189t284.5 69zM145 524h940q28 217 -76 350.5t-302 133.5q-206 0 -363.5 -135.5t-198.5 -348.5z" />
    <glyph glyph-name="Eogonek" unicode="&#x118;" horiz-adv-x="1110" 
d="M1149 1397h-748l-114 -656h696l-6 -36h-698l-117 -668h758l-7 -37q-227 -157 -249 -291q-9 -47 16.5 -76.5t75.5 -29.5q48 0 94 18l-6 -35q-39 -16 -94 -16q-67 0 -101 40t-22 103q22 139 235 287h-747l252 1434h788z" />
    <glyph glyph-name="eogonek" unicode="&#x119;" horiz-adv-x="1222" 
d="M711 1044q114 0 202 -44t138 -118.5t68.5 -170.5t0.5 -201l-4 -23h-977q-28 -210 83 -340.5t317 -130.5q140 0 255.5 56.5t182.5 154.5l31 -20q-36 -50 -88 -96q-206 -180 -282 -260t-87 -146q-8 -46 15.5 -74t84.5 -28q45 0 86 16l-6 -33q-39 -16 -88 -16
q-73 0 -107 37.5t-22 101.5q12 62 74 137t192 181q-112 -47 -248 -47q-151 0 -259 69t-153 191.5t-18 275.5q26 150 110 270t214.5 189t284.5 69zM145 524h940q28 217 -76 350.5t-302 133.5q-206 0 -363.5 -135.5t-198.5 -348.5z" />
    <glyph glyph-name="Ecaron" unicode="&#x11a;" horiz-adv-x="1105" 
d="M750 1577l-187 246h43l168 -221l244 221h49l-272 -246h-45zM1149 1397h-748l-114 -656h696l-6 -36h-698l-117 -668h758l-7 -37h-798l252 1434h788z" />
    <glyph glyph-name="ecaron" unicode="&#x11b;" horiz-adv-x="1222" 
d="M707 1167l-187 246h43l168 -221l244 221h49l-272 -246h-45zM711 1044q114 0 202 -44t138 -118.5t68.5 -170.5t0.5 -201l-4 -23h-977q-28 -210 83 -340.5t317 -130.5q140 0 255.5 56.5t182.5 154.5l31 -20q-74 -107 -199 -167t-277 -60q-151 0 -259 69t-153 191.5
t-18 275.5q26 150 110 270t214.5 189t284.5 69zM145 524h940q28 217 -76 350.5t-302 133.5q-206 0 -363.5 -135.5t-198.5 -348.5z" />
    <glyph glyph-name="Gbreve" unicode="&#x11e;" horiz-adv-x="1681" 
d="M1055 1581q-111 0 -171.5 59.5t-43.5 155.5h37q-14 -82 35 -132t143 -50t160 50t79 132h37q-17 -97 -92 -156t-184 -59zM1581 641l-4 -20q-37 -184 -145.5 -329.5t-274 -228.5t-360.5 -83q-110 0 -206.5 27.5t-171 76.5t-132 118.5t-89 152.5t-43 178.5t6.5 197.5
q23 147 99 280t187 230.5t256.5 155t301.5 57.5q205 0 350 -92.5t215 -237.5l-35 -18q-68 140 -207 225.5t-328 85.5q-147 0 -284.5 -55t-242.5 -148.5t-176.5 -220t-94.5 -266.5q-31 -193 32.5 -355.5t212 -259t351.5 -96.5q138 0 263 46.5t219 126.5t160 187t93 228h-678
l6 37h719z" />
    <glyph glyph-name="gbreve" unicode="&#x11f;" horiz-adv-x="1376" 
d="M795 1171q-111 0 -171.5 59.5t-43.5 155.5h36q-13 -82 36 -132t143 -50t160 50t79 132h37q-17 -97 -92 -156t-184 -59zM1241 1024h41l-170 -961q-40 -230 -194.5 -361.5t-393.5 -131.5q-177 0 -291 69t-147 173l35 18q28 -94 134.5 -158.5t270.5 -64.5q218 0 362.5 120.5
t182.5 335.5l39 224q-77 -141 -215.5 -224t-300.5 -83q-153 0 -269 75.5t-169 204.5t-29 279q35 218 206 361.5t388 143.5q181 0 305 -103.5t154 -268.5zM596 16q198 0 354.5 131.5t194.5 329.5l2 17q23 140 -25.5 258.5t-155.5 187t-247 68.5q-201 0 -359 -136t-192 -340
q-23 -140 25.5 -259t155.5 -188t247 -69z" />
    <glyph glyph-name="Gdotaccent" unicode="&#x120;" horiz-adv-x="1681" 
d="M1051 1597q-26 0 -41 18t-11 44t25 43.5t47 17.5t40.5 -17.5t10.5 -43.5q-5 -26 -25 -44t-46 -18zM1581 641l-4 -20q-37 -184 -145.5 -329.5t-274 -228.5t-360.5 -83q-110 0 -206.5 27.5t-171 76.5t-132 118.5t-89 152.5t-43 178.5t6.5 197.5q23 147 99 280t187 230.5
t256.5 155t301.5 57.5q205 0 350 -92.5t215 -237.5l-35 -18q-68 140 -207 225.5t-328 85.5q-147 0 -284.5 -55t-242.5 -148.5t-176.5 -220t-94.5 -266.5q-31 -193 32.5 -355.5t212 -259t351.5 -96.5q138 0 263 46.5t219 126.5t160 187t93 228h-678l6 37h719z" />
    <glyph glyph-name="gdotaccent" unicode="&#x121;" horiz-adv-x="1376" 
d="M791 1188q-26 0 -41 17.5t-11 43.5q5 26 25.5 44t46.5 18t41 -18t10 -44t-25 -43.5t-46 -17.5zM1241 1024h41l-170 -961q-40 -230 -194.5 -361.5t-393.5 -131.5q-177 0 -291 69t-147 173l35 18q28 -94 134.5 -158.5t270.5 -64.5q218 0 362.5 120.5t182.5 335.5l39 224
q-77 -141 -215.5 -224t-300.5 -83q-153 0 -269 75.5t-169 204.5t-29 279q35 218 206 361.5t388 143.5q181 0 305 -103.5t154 -268.5zM596 16q198 0 354.5 131.5t194.5 329.5l2 17q23 140 -25.5 258.5t-155.5 187t-247 68.5q-201 0 -359 -136t-192 -340q-23 -140 25.5 -259
t155.5 -188t247 -69z" />
    <glyph glyph-name="Gcommaaccent" unicode="&#x122;" horiz-adv-x="1681" 
d="M1581 641l-4 -20q-37 -184 -145.5 -329.5t-274 -228.5t-360.5 -83q-110 0 -206.5 27.5t-171 76.5t-132 118.5t-89 152.5t-43 178.5t6.5 197.5q23 147 99 280t187 230.5t256.5 155t301.5 57.5q205 0 350 -92.5t215 -237.5l-35 -18q-68 140 -207 225.5t-328 85.5
q-147 0 -284.5 -55t-242.5 -148.5t-176.5 -220t-94.5 -266.5q-31 -193 32.5 -355.5t212 -259t351.5 -96.5q138 0 263 46.5t219 126.5t160 187t93 228h-678l6 37h719zM668 -492l82 349h41l-91 -349h-32z" />
    <glyph glyph-name="gcommaaccent" unicode="&#x123;" horiz-adv-x="1376" 
d="M879 1556l-82 -348h-41l90 348h33zM1241 1024h41l-170 -961q-40 -230 -194.5 -361.5t-393.5 -131.5q-177 0 -291 69t-147 173l35 18q28 -94 134.5 -158.5t270.5 -64.5q218 0 362.5 120.5t182.5 335.5l39 224q-77 -141 -215.5 -224t-300.5 -83q-153 0 -269 75.5
t-169 204.5t-29 279q35 218 206 361.5t388 143.5q181 0 305 -103.5t154 -268.5zM596 16q198 0 354.5 131.5t194.5 329.5l2 17q23 140 -25.5 258.5t-155.5 187t-247 68.5q-201 0 -359 -136t-192 -340q-23 -140 25.5 -259t155.5 -188t247 -69z" />
    <glyph glyph-name="Hbar" unicode="&#x126;" horiz-adv-x="1556" 
d="M1542 1124l-6 -37h-145l-191 -1087h-41l127 719h-942l-127 -719h-41l191 1087h-142l6 37h142l55 310h41l-55 -310h942l55 310h41l-55 -310h145zM1292 756l58 331h-942l-58 -331h942z" />
    <glyph glyph-name="hbar" unicode="&#x127;" horiz-adv-x="1218" 
d="M764 1044q173 0 265 -108.5t61 -284.5l-115 -651h-41l115 651q27 155 -50 256t-239 101q-176 0 -310.5 -121.5t-175.5 -321.5l-98 -565h-41l215 1219h-164l7 34h163l31 181h41l-31 -181h369l-6 -34h-369l-82 -459q71 138 193 211t262 73z" />
    <glyph glyph-name="Imacron" unicode="&#x12a;" horiz-adv-x="450" 
d="M178 1640l6 33h492l-6 -33h-492zM367 1434h41l-252 -1434h-41z" />
    <glyph glyph-name="imacron" unicode="&#x12b;" horiz-adv-x="409" 
d="M168 1231l6 33h328l-6 -33h-328zM94 0l180 1024h41l-180 -1024h-41z" />
    <glyph glyph-name="Iogonek" unicode="&#x12e;" horiz-adv-x="450" 
d="M-2 -291q-8 -47 17.5 -76.5t74.5 -29.5q54 0 94 18l-6 -35q-39 -16 -94 -16q-67 0 -99.5 37.5t-23.5 101.5q18 118 156 299l250 1426h41l-252 -1434q-70 -95 -109 -163t-49 -128z" />
    <glyph glyph-name="iogonek" unicode="&#x12f;" horiz-adv-x="409" 
d="M367 1427q20 0 31 -14t8 -33t-19 -33t-37 -14t-32.5 14t-6.5 33q5 20 20 33.5t36 13.5zM135 0q-95 -134 -118 -177q-30 -56 -40 -110q-8 -48 18 -79t75 -31q53 0 94 16l-6 -33q-39 -16 -95 -16q-67 0 -100 39.5t-22 103.5q22 113 155 297l178 1014h41z" />
    <glyph glyph-name="Idotaccent" unicode="&#x130;" horiz-adv-x="450" 
d="M416 1597q-26 0 -41 18t-10 44t25 43.5t46 17.5t40.5 -17.5t10.5 -43.5q-5 -26 -25 -44t-46 -18zM367 1434h41l-252 -1434h-41z" />
    <glyph glyph-name="dotlessi" unicode="&#x131;" horiz-adv-x="409" 
d="M94 0l180 1024h41l-180 -1024h-41z" />
    <glyph glyph-name="Kcommaaccent" unicode="&#x136;" horiz-adv-x="1138" 
d="M1260 1434l-930 -703l698 -731h-51l-694 725l-127 -725h-41l252 1434h41l-121 -686l911 686h62zM436 -492l82 349h41l-90 -349h-33z" />
    <glyph glyph-name="kcommaaccent" unicode="&#x137;" horiz-adv-x="944" 
d="M963 1024l-691 -496l521 -528h-54l-512 520l-92 -520h-41l252 1434h41l-156 -891l668 481h64zM309 -492l82 349h41l-90 -349h-33z" />
    <glyph glyph-name="Lacute" unicode="&#x139;" horiz-adv-x="1024" 
d="M637 1823l-211 -246h-39l205 246h45zM162 37h717l-7 -37h-757l6 37l246 1397h41z" />
    <glyph glyph-name="lacute" unicode="&#x13a;" horiz-adv-x="411" 
d="M373 1577h39l211 246h-45zM96 0l115 657l147 838h41l-147 -838l-115 -657h-41z" />
    <glyph glyph-name="Lcommaaccent" unicode="&#x13b;" horiz-adv-x="1024" 
d="M162 37h717l-7 -37h-757l6 37l246 1397h41zM381 -492l82 349h41l-90 -349h-33z" />
    <glyph glyph-name="lcommaaccent" unicode="&#x13c;" horiz-adv-x="411" 
d="M96 0l115 657l147 838h41l-147 -838l-115 -657h-41zM23 -492l90 349h-41l-82 -349h33z" />
    <glyph glyph-name="Lcaron" unicode="&#x13d;" horiz-adv-x="1024" 
d="M162 37h717l-7 -37h-757l6 37l246 1397h41zM797 1434l-90 -349h-33l82 349h41z" />
    <glyph glyph-name="lcaron" unicode="&#x13e;" horiz-adv-x="442" 
d="M96 0l115 657l147 838h41l-147 -838l-115 -657h-41zM526 1147l90 348h-41l-81 -348h32z" />
    <glyph glyph-name="Lslash" unicode="&#x141;" horiz-adv-x="1044" 
d="M182 37h717l-6 -37h-758l6 37l88 504l-135 -80l8 47l136 80l149 846h41l-143 -818l479 283l-6 -47l-482 -285z" />
    <glyph glyph-name="lslash" unicode="&#x142;" horiz-adv-x="491" 
d="M520 901l-8 -43l-209 -127l-12 -74l-115 -657h-41l115 657l8 45l-205 -124l6 43l207 124l131 750h41l-127 -721z" />
    <glyph glyph-name="Nacute" unicode="&#x143;" horiz-adv-x="1433" 
d="M854 1577h39l211 246h-45zM115 0l252 1434h41l700 -1366l242 1366h41l-252 -1434h-41l-701 1366l-241 -1366h-41z" />
    <glyph glyph-name="nacute" unicode="&#x144;" horiz-adv-x="1177" 
d="M899 1413l-211 -246h-39l205 246h45zM723 1044q173 0 265 -108.5t61 -284.5l-115 -651h-41l115 651q27 155 -50 256t-239 101q-174 0 -308 -120.5t-175 -318.5l-101 -569h-41l180 1024h41l-47 -262q71 137 193.5 209.5t261.5 72.5z" />
    <glyph glyph-name="Ncommaaccent" unicode="&#x145;" horiz-adv-x="1433" 
d="M115 0l252 1434h41l700 -1366l242 1366h41l-252 -1434h-41l-701 1366l-241 -1366h-41zM537 -492l90 349h-41l-82 -349h33z" />
    <glyph glyph-name="ncommaaccent" unicode="&#x146;" horiz-adv-x="1177" 
d="M723 1044q173 0 265 -108.5t61 -284.5l-115 -651h-41l115 651q27 155 -50 256t-239 101q-174 0 -308 -120.5t-175 -318.5l-101 -569h-41l180 1024h41l-47 -262q71 137 193.5 209.5t261.5 72.5zM418 -492l82 349h41l-90 -349h-33z" />
    <glyph glyph-name="Ncaron" unicode="&#x147;" horiz-adv-x="1433" 
d="M879 1577l-187 246h43l168 -221l244 221h49l-272 -246h-45zM1350 1434h41l-252 -1434h-41l-701 1366l-241 -1366h-41l252 1434h41l700 -1366z" />
    <glyph glyph-name="ncaron" unicode="&#x148;" horiz-adv-x="1177" 
d="M674 1167l-187 246h43l168 -221l244 221h49l-272 -246h-45zM723 1044q173 0 265 -108.5t61 -284.5l-115 -651h-41l115 651q27 155 -50 256t-239 101q-174 0 -308 -120.5t-175 -318.5l-101 -569h-41l180 1024h41l-47 -262q71 137 193.5 209.5t261.5 72.5z" />
    <glyph glyph-name="Eng" unicode="&#x14a;" horiz-adv-x="1433" 
d="M1350 1434h41l-252 -1434q-38 -223 -153 -316.5t-318 -93.5l6 37q186 0 288 89t136 284l-701 1366l-241 -1366h-41l252 1434h41l700 -1366z" />
    <glyph glyph-name="eng" unicode="&#x14b;" horiz-adv-x="1177" 
d="M723 1044q173 0 265 -108.5t61 -284.5l-148 -835q-22 -127 -106.5 -194t-221.5 -52l7 37q122 -13 191.5 42.5t88.5 166.5l148 835q27 155 -50 256t-239 101q-174 0 -308 -120.5t-175 -318.5l-101 -569h-41l180 1024h41l-47 -262q71 137 193.5 209.5t261.5 72.5z" />
    <glyph glyph-name="Omacron" unicode="&#x14c;" horiz-adv-x="1720" 
d="M813 1640l6 33h492l-6 -33h-492zM768 -20q-150 0 -276.5 59t-208 159t-116 237.5t-7.5 287.5q35 201 163 369t314 265t387 97q119 0 225 -38t184 -106t132.5 -161.5t70 -204t-3.5 -233.5q-35 -201 -163 -369t-314 -265t-387 -97zM772 16q189 0 365.5 94t298 255
t155.5 352q25 143 -7 272.5t-108 223t-195 149t-261 55.5t-280.5 -55.5t-248 -149t-187.5 -223t-103 -272.5q-34 -190 30 -351.5t208 -255.5t333 -94z" />
    <glyph glyph-name="omacron" unicode="&#x14d;" horiz-adv-x="1273" 
d="M502 1231l6 33h491l-6 -33h-491zM545 -20q-109 0 -200.5 42.5t-151 114.5t-84.5 172t-5 211q40 225 220 374.5t405 149.5q145 0 255.5 -71.5t160.5 -196t24 -272.5q-40 -225 -219.5 -374.5t-404.5 -149.5zM549 16q207 0 374.5 143.5t204.5 352.5q24 137 -21.5 251
t-146.5 179.5t-235 65.5q-207 0 -375 -143.5t-205 -352.5q-24 -137 21.5 -251t147 -179.5t235.5 -65.5z" />
    <glyph glyph-name="Ohungarumlaut" unicode="&#x150;" horiz-adv-x="1720" 
d="M821 1577h37l197 266h-45zM1108 1577h39l213 266h-45zM768 -20q-150 0 -276.5 59t-208 159t-116 237.5t-7.5 287.5q35 201 163 369t314 265t387 97q119 0 225 -38t184 -106t132.5 -161.5t70 -204t-3.5 -233.5q-35 -201 -163 -369t-314 -265t-387 -97zM772 16
q189 0 365.5 94t298 255t155.5 352q25 143 -7 272.5t-108 223t-195 149t-261 55.5t-280.5 -55.5t-248 -149t-187.5 -223t-103 -272.5q-34 -190 30 -351.5t208 -255.5t333 -94z" />
    <glyph glyph-name="ohungarumlaut" unicode="&#x151;" horiz-adv-x="1273" 
d="M510 1167h37l196 267h-45zM797 1167h39l213 267h-45zM545 -20q-109 0 -200.5 42.5t-151 114.5t-84.5 172t-5 211q40 225 220 374.5t405 149.5q145 0 255.5 -71.5t160.5 -196t24 -272.5q-40 -225 -219.5 -374.5t-404.5 -149.5zM549 16q207 0 374.5 143.5t204.5 352.5
q24 137 -21.5 251t-146.5 179.5t-235 65.5q-207 0 -375 -143.5t-205 -352.5q-24 -137 21.5 -251t147 -179.5t235.5 -65.5z" />
    <glyph glyph-name="OE" unicode="&#x152;" horiz-adv-x="1875" 
d="M1919 1397h-686l-115 -656h635l-6 -36h-637l-117 -668h697l-7 -37h-737l246 1395q-83 22 -193 22q-198 0 -370 -94.5t-283 -253.5t-145 -352q-35 -193 20 -352.5t194 -254t337 -94.5q106 0 200 23l-6 -39q-95 -20 -201 -20q-157 0 -281.5 58.5t-199 159t-103 236
t-1.5 287.5t102.5 286.5t185.5 233t254.5 156t301.5 57.5q106 0 194 -20h727z" />
    <glyph glyph-name="oe" unicode="&#x153;" horiz-adv-x="2240" 
d="M1731 1044q75 0 139.5 -20t112 -56.5t84 -86t54.5 -109t24 -126t-7 -136.5l-4 -23h-977q-28 -211 82.5 -341t316.5 -130q140 0 256 56.5t183 154.5l30 -20q-74 -106 -199 -166.5t-272 -60.5q-190 0 -308 107t-130 282q-74 -174 -230 -281.5t-343 -107.5q-108 0 -199 42
t-150.5 113.5t-84 171.5t-5.5 211q40 225 220 375.5t407 150.5q181 0 299 -108.5t133 -280.5q71 176 222.5 282.5t345.5 106.5zM549 16q206 0 370 143t201 353t-76 353t-319 143q-207 0 -375 -143.5t-205 -352.5q-24 -137 20.5 -251t146 -179.5t237.5 -65.5zM1163 524h940
q28 217 -76.5 350.5t-302.5 133.5q-206 0 -363 -135t-198 -349z" />
    <glyph glyph-name="Racute" unicode="&#x154;" horiz-adv-x="1269" 
d="M991 1823l-211 -246h-39l205 246h45zM920 1434q109 0 193 -56.5t122.5 -152.5t19.5 -207q-26 -147 -136.5 -257t-256.5 -138l256 -623h-41l-254 616q-16 -2 -47 -2h-512l-108 -614h-41l252 1434h553zM1217 1024q28 154 -62 263.5t-242 109.5h-512l-131 -746h512
q152 0 279.5 109.5t155.5 263.5z" />
    <glyph glyph-name="racute" unicode="&#x155;" horiz-adv-x="665" 
d="M709 1413l-211 -246h-39l205 246h45zM270 772q67 134 184.5 200.5t241.5 63.5l-6 -37q-76 0 -149 -28.5t-135 -81.5t-107 -135.5t-63 -184.5l-101 -569h-41l180 1024h41z" />
    <glyph glyph-name="Rcommaaccent" unicode="&#x156;" horiz-adv-x="1269" 
d="M920 1434q109 0 193 -56.5t122.5 -152.5t19.5 -207q-26 -147 -136.5 -257t-256.5 -138l256 -623h-41l-254 616q-16 -2 -47 -2h-512l-108 -614h-41l252 1434h553zM1217 1024q28 154 -62 263.5t-242 109.5h-512l-131 -746h512q152 0 279.5 109.5t155.5 263.5zM504 -492
l82 349h41l-90 -349h-33z" />
    <glyph glyph-name="rcommaaccent" unicode="&#x157;" horiz-adv-x="665" 
d="M270 772q67 134 184.5 200.5t241.5 63.5l-6 -37q-76 0 -149 -28.5t-135 -81.5t-107 -135.5t-63 -184.5l-101 -569h-41l180 1024h41zM-12 -492l82 349h41l-91 -349h-32z" />
    <glyph glyph-name="Rcaron" unicode="&#x158;" horiz-adv-x="1269" 
d="M766 1577l-186 246h43l168 -221l243 221h49l-272 -246h-45zM920 1434q109 0 193 -56.5t122.5 -152.5t19.5 -207q-26 -147 -136.5 -257t-256.5 -138l256 -623h-41l-254 616q-16 -2 -47 -2h-512l-108 -614h-41l252 1434h553zM1217 1024q28 154 -62 263.5t-242 109.5h-512
l-131 -746h512q152 0 279.5 109.5t155.5 263.5z" />
    <glyph glyph-name="rcaron" unicode="&#x159;" horiz-adv-x="665" 
d="M483 1167l-186 246h43l168 -221l244 221h49l-273 -246h-45zM270 772q67 134 184.5 200.5t241.5 63.5l-6 -37q-76 0 -149 -28.5t-135 -81.5t-107 -135.5t-63 -184.5l-101 -569h-41l180 1024h41z" />
    <glyph glyph-name="Sacute" unicode="&#x15a;" horiz-adv-x="1128" 
d="M694 1577h39l211 246h-45zM504 -20q-188 0 -310.5 84.5t-150.5 230.5l37 18q25 -138 135 -217.5t291 -79.5q197 0 314 86t143 224q15 81 -5.5 143t-79.5 107t-114 72t-146 61q-150 55 -210 91q-187 110 -161 302q1 9 3 18q29 151 155.5 242.5t296.5 91.5
q163 0 267.5 -79.5t140.5 -209.5l-35 -16q-35 121 -127 194.5t-246 73.5q-158 0 -272 -83.5t-139 -217.5q-12 -65 4.5 -119.5t43 -88.5t86.5 -69.5t96 -51t110 -44.5q7 -3 10 -4q38 -15 65.5 -26.5t61 -26.5t58 -29t51.5 -32t45.5 -36t36.5 -40t28.5 -46.5t17 -52.5t6.5 -60
t-7 -68q-32 -165 -166.5 -253.5t-333.5 -88.5z" />
    <glyph glyph-name="sacute" unicode="&#x15b;" horiz-adv-x="954" 
d="M539 1167h39l210 246h-45zM416 -20q-281 0 -359 215l37 16q66 -195 326 -195q130 0 225 57.5t115 162.5q10 55 -5.5 97.5t-50 69t-81.5 47t-100 36.5t-105.5 32t-99 38t-80.5 51.5t-48.5 75t-3.5 105.5q21 121 122.5 188.5t246.5 67.5q110 0 197.5 -53.5t119.5 -142.5
l-34 -17q-30 81 -109 129t-178 48q-125 0 -215 -58.5t-109 -169.5q-9 -52 7.5 -91.5t51 -65t81.5 -45t100 -35t105.5 -32t98.5 -40t79.5 -54.5t47.5 -79t3 -111q-21 -116 -127.5 -181.5t-257.5 -65.5z" />
    <glyph glyph-name="Scedilla" unicode="&#x15e;" horiz-adv-x="1128" 
d="M702 1417q-158 0 -272 -83.5t-139 -217.5q-12 -65 4.5 -119.5t43 -88.5t86.5 -69.5t96 -51t110 -44.5q7 -3 10 -4q38 -15 65.5 -26.5t61 -26.5t58 -29t51.5 -32t45.5 -36t36.5 -40t28.5 -46.5t17 -52.5t6.5 -60t-7 -68q-32 -165 -166 -253.5t-332 -88.5l-25 -142
q71 3 120 -30t38 -99q-12 -78 -110 -112t-271 -11l6 33q155 -20 241 5.5t97 88.5q9 48 -31.5 73.5t-132.5 18.5l31 175q-174 9 -287 93t-139 222l37 18q25 -138 135 -217.5t291 -79.5q197 0 314 86t143 224q15 81 -5.5 143t-79.5 107t-114 72t-146 61q-150 55 -210 91
q-187 110 -161 302q1 9 3 18q29 151 155.5 242.5t296.5 91.5q163 0 267.5 -79.5t140.5 -209.5l-35 -16q-35 121 -127 194.5t-246 73.5z" />
    <glyph glyph-name="scedilla" unicode="&#x15f;" horiz-adv-x="954" 
d="M551 1008q-125 0 -215 -58.5t-109 -169.5q-9 -52 7.5 -91.5t51 -65t81.5 -45t100 -35t105.5 -32t98.5 -40t79.5 -54.5t47.5 -79t3 -111q-21 -114 -123.5 -179t-251.5 -68l-25 -142q71 3 120 -30t38 -99q-12 -78 -110 -112t-271 -11l6 33q155 -20 241 5.5t97 88.5
q9 48 -31.5 73.5t-132.5 18.5l31 175q-258 11 -332 215l37 16q66 -195 326 -195q130 0 225 57.5t115 162.5q10 55 -5.5 97.5t-50 69t-81.5 47t-100 36.5t-105.5 32t-99 38t-80.5 51.5t-48.5 75t-3.5 105.5q21 121 122.5 188.5t246.5 67.5q110 0 197.5 -53.5t119.5 -142.5
l-34 -17q-30 81 -109 129t-178 48z" />
    <glyph glyph-name="Scaron" unicode="&#x160;" horiz-adv-x="1128" 
d="M719 1577l-187 246h43l168 -221l244 221h49l-272 -246h-45zM702 1417q-158 0 -272 -83.5t-139 -217.5q-12 -65 4.5 -119.5t43 -88.5t86.5 -69.5t96 -51t110 -44.5q7 -3 10 -4q38 -15 65.5 -26.5t61 -26.5t58 -29t51.5 -32t45.5 -36t36.5 -40t28.5 -46.5t17 -52.5t6.5 -60
t-7 -68q-32 -165 -166.5 -253.5t-333.5 -88.5q-188 0 -310.5 84.5t-150.5 230.5l37 18q25 -138 135 -217.5t291 -79.5q197 0 314 86t143 224q15 81 -5.5 143t-79.5 107t-114 72t-146 61q-150 55 -210 91q-187 110 -161 302q1 9 3 18q29 151 155.5 242.5t296.5 91.5
q163 0 267.5 -79.5t140.5 -209.5l-35 -16q-35 121 -127 194.5t-246 73.5z" />
    <glyph glyph-name="scaron" unicode="&#x161;" horiz-adv-x="954" 
d="M563 1167l-186 246h43l168 -221l243 221h50l-273 -246h-45zM555 1044q110 0 197.5 -53.5t119.5 -142.5l-34 -17q-30 81 -109 129t-178 48q-125 0 -215 -58.5t-109 -169.5q-9 -52 7.5 -91.5t51 -65t81.5 -45t100 -35t105.5 -32t98.5 -40t79.5 -54.5t47.5 -79t3 -111
q-21 -116 -127.5 -181.5t-257.5 -65.5q-281 0 -359 215l37 16q66 -195 326 -195q130 0 225 57.5t115 162.5q10 55 -5.5 97.5t-50 69t-81.5 47t-100 36.5t-105.5 32t-99 38t-80.5 51.5t-48.5 75t-3.5 105.5q21 121 122.5 188.5t246.5 67.5z" />
    <glyph glyph-name="uni0162" unicode="&#x162;" horiz-adv-x="1105" 
d="M1206 1434l-6 -37h-471l-246 -1397h-41l246 1397h-471l6 37h983zM340 -492l82 349h41l-90 -349h-33z" />
    <glyph glyph-name="uni0163" unicode="&#x163;" horiz-adv-x="776" 
d="M430 987l-133 -760q-24 -135 44.5 -176t248.5 -14l-6 -37q-194 -31 -274 23.5t-54 203.5l133 760h-244l7 37h243l49 274l43 13l-51 -287h328l-6 -37h-328zM270 -492l82 349h41l-90 -349h-33z" />
    <glyph glyph-name="Tcaron" unicode="&#x164;" horiz-adv-x="1105" 
d="M715 1577l-187 246h43l168 -221l244 221h49l-272 -246h-45zM1206 1434l-6 -37h-471l-246 -1397h-41l246 1397h-471l6 37h983z" />
    <glyph glyph-name="tcaron" unicode="&#x165;" horiz-adv-x="776" 
d="M713 1458l-82 -307h-33l74 307h41zM430 987l-133 -760q-24 -135 44.5 -176t248.5 -14l-6 -37q-194 -31 -274 23.5t-54 203.5l133 760h-244l7 37h243l49 274l43 13l-51 -287h328l-6 -37h-328z" />
    <glyph glyph-name="Tbar" unicode="&#x166;" horiz-adv-x="1105" 
d="M1200 1397h-471l-117 -662h349l-7 -37h-348l-123 -698h-41l123 698h-348l6 37h348l117 662h-471l6 37h983z" />
    <glyph glyph-name="tbar" unicode="&#x167;" horiz-adv-x="776" 
d="M758 987h-328l-74 -426h215l-6 -35h-215l-53 -299q-24 -135 44.5 -176t248.5 -14l-6 -37q-194 -31 -274 23.5t-54 203.5l53 299h-153l6 35h153l74 426h-244l7 37h243l49 274l43 13l-51 -287h328z" />
    <glyph glyph-name="Umacron" unicode="&#x16a;" horiz-adv-x="1392" 
d="M641 1640l6 33h492l-6 -33h-492zM612 -20q-238 0 -356 135.5t-80 345.5l172 973h41l-172 -973q-19 -91 -1 -172t62.5 -141.5t130 -96t201.5 -35.5q115 0 212.5 35t164.5 97t110.5 141.5t59.5 171.5l172 973h41l-172 -973q-37 -216 -195 -348.5t-391 -132.5z" />
    <glyph glyph-name="umacron" unicode="&#x16b;" horiz-adv-x="1177" 
d="M956 1264l-6 -33h-491l6 33h491zM1042 1024h41l-180 -1024h-41l47 262q-71 -137 -193 -209.5t-261 -72.5q-173 0 -265 108.5t-61 284.5l115 651h41l-115 -651q-27 -155 50 -256t239 -101q174 0 308 120.5t175 318.5z" />
    <glyph glyph-name="Uring" unicode="&#x16e;" horiz-adv-x="1392" 
d="M860 1475q-87 0 -132.5 52.5t-31.5 131.5q13 81 76 132.5t148 51.5t131.5 -50.5t33.5 -133.5q-14 -80 -76 -132t-149 -52zM864 1507q70 0 121.5 42t63.5 110t-26 109.5t-108 41.5t-120 -41t-62 -110q-12 -68 24.5 -110t106.5 -42zM612 -20q-238 0 -356 135.5t-80 345.5
l172 973h41l-172 -973q-19 -91 -1 -172t62.5 -141.5t130 -96t201.5 -35.5q115 0 212.5 35t164.5 97t110.5 141.5t59.5 171.5l172 973h41l-172 -973q-37 -216 -195 -348.5t-391 -132.5z" />
    <glyph glyph-name="uring" unicode="&#x16f;" horiz-adv-x="1177" 
d="M692 1147q-87 0 -132.5 52.5t-31.5 131.5q13 82 76 133.5t148 51.5t132 -51t34 -134q-14 -80 -76.5 -132t-149.5 -52zM565 1331q-12 -67 24 -109t107 -42t122 42t63 109q12 68 -25.5 110t-107.5 42q-69 0 -120 -41.5t-63 -110.5zM1042 1024h41l-180 -1024h-41l47 262
q-71 -137 -193 -209.5t-261 -72.5q-173 0 -265 108.5t-61 284.5l115 651h41l-115 -651q-27 -155 50 -256t239 -101q174 0 308 120.5t175 318.5z" />
    <glyph glyph-name="Uhungarumlaut" unicode="&#x170;" horiz-adv-x="1392" 
d="M649 1577h37l197 266h-45zM936 1577h39l213 266h-45zM612 -20q-238 0 -356 135.5t-80 345.5l172 973h41l-172 -973q-19 -91 -1 -172t62.5 -141.5t130 -96t201.5 -35.5q115 0 212.5 35t164.5 97t110.5 141.5t59.5 171.5l172 973h41l-172 -973q-37 -216 -195 -348.5
t-391 -132.5z" />
    <glyph glyph-name="uhungarumlaut" unicode="&#x171;" horiz-adv-x="1177" 
d="M700 1434l-196 -267h-37l188 267h45zM1006 1434l-213 -267h-39l207 267h45zM1042 1024h41l-180 -1024h-41l47 262q-71 -137 -193 -209.5t-261 -72.5q-173 0 -265 108.5t-61 284.5l115 651h41l-115 -651q-27 -155 50 -256t239 -101q174 0 308 120.5t175 318.5z" />
    <glyph glyph-name="Uogonek" unicode="&#x172;" horiz-adv-x="1392" 
d="M1329 1434h41l-172 -973q-44 -249 -242 -383q-206 -157 -275.5 -225.5t-80.5 -137.5q-8 -49 15.5 -80.5t86.5 -31.5q44 0 84 18l-6 -35q-39 -16 -86 -16q-74 0 -108 42t-23 103q24 131 256 297q-88 -32 -207 -32q-238 0 -356 135.5t-80 345.5l172 973h41l-172 -973
q-19 -91 -1 -172t62.5 -141.5t130 -96t201.5 -35.5q115 0 212.5 35t164.5 97t110.5 141.5t59.5 171.5z" />
    <glyph glyph-name="uogonek" unicode="&#x173;" horiz-adv-x="1177" 
d="M903 0q-115 -86 -176 -156t-74 -139q-9 -46 16 -74t72 -28q54 0 95 16l-7 -33q-39 -16 -94 -16q-65 0 -97 36t-22 99q21 131 248 305l45 252q-71 -137 -193 -209.5t-261 -72.5q-173 0 -265 108.5t-61 284.5l115 651h41l-115 -651q-27 -155 50 -256t239 -101
q174 0 308 120.5t175 318.5l100 569h41z" />
    <glyph glyph-name="Wcircumflex" unicode="&#x174;" horiz-adv-x="2007" 
d="M1231 1798l-246 -221h-49l272 246h45l187 -246h-41zM2044 1434h43l-668 -1434h-49l-213 1384l-700 -1384h-49l-164 1434h39l157 -1385l699 1385h49l213 -1385z" />
    <glyph glyph-name="wcircumflex" unicode="&#x175;" horiz-adv-x="1576" 
d="M850 1389l-246 -222h-49l272 246h45l187 -246h-41zM1540 1024h45l-516 -1024h-45l-156 969l-495 -969h-45l-156 1024h39l147 -969l496 969h45l154 -971z" />
    <glyph glyph-name="Ycircumflex" unicode="&#x176;" horiz-adv-x="1146" 
d="M801 1798l-246 -221h-49l272 246h45l187 -246h-41zM1268 1434l-645 -760l-119 -674h-41l119 676l-379 758h43l360 -725l615 725h47z" />
    <glyph glyph-name="ycircumflex" unicode="&#x177;" horiz-adv-x="1044" 
d="M651 1389l-245 -222h-50l273 246h45l186 -246h-41zM1049 1024h45l-643 -1118q-89 -155 -206.5 -240.5t-242.5 -75.5l6 37q107 -9 217 71t189 220l18 31l-301 1075h39l289 -1026z" />
    <glyph glyph-name="Ydieresis" unicode="&#x178;" horiz-adv-x="1146" 
d="M600 1597q-17 0 -27.5 12t-7.5 29t17.5 29t31.5 12t26.5 -12t6.5 -29t-16.5 -29t-30.5 -12zM928 1597q-17 0 -27.5 12t-7.5 29t17.5 29t31.5 12t26.5 -12t6.5 -29t-16.5 -29t-30.5 -12zM1268 1434l-645 -760l-119 -674h-41l119 676l-379 758h43l360 -725l615 725h47z" />
    <glyph glyph-name="Zacute" unicode="&#x179;" horiz-adv-x="1085" 
d="M940 1823l-211 -246h-39l205 246h45zM1145 1434l-6 -37l-1071 -1360h852l-7 -37h-901l6 37l1074 1360h-813l6 37h860z" />
    <glyph glyph-name="zacute" unicode="&#x17a;" horiz-adv-x="1003" 
d="M827 1413l-211 -246h-38l204 246h45zM971 1024l-4 -23l-869 -964h719l-6 -37h-778l4 23l868 964h-678l6 37h738z" />
    <glyph glyph-name="Zdotaccent" unicode="&#x17b;" horiz-adv-x="1085" 
d="M743 1597q-26 0 -41 18t-10 44q4 26 25 43.5t47 17.5t40.5 -17.5t10.5 -43.5q-5 -26 -25.5 -44t-46.5 -18zM1145 1434l-6 -37l-1071 -1360h852l-7 -37h-901l6 37l1074 1360h-813l6 37h860z" />
    <glyph glyph-name="zdotaccent" unicode="&#x17c;" horiz-adv-x="1003" 
d="M631 1188q-26 0 -40.5 17.5t-10.5 43.5q5 26 25 44t46 18t41 -18t10 -44t-25 -43.5t-46 -17.5zM971 1024l-4 -23l-869 -964h719l-6 -37h-778l4 23l868 964h-678l6 37h738z" />
    <glyph glyph-name="Zcaron" unicode="&#x17d;" horiz-adv-x="1085" 
d="M715 1577l-187 246h43l168 -221l244 221h49l-272 -246h-45zM1145 1434l-6 -37l-1071 -1360h852l-7 -37h-901l6 37l1074 1360h-813l6 37h860z" />
    <glyph glyph-name="zcaron" unicode="&#x17e;" horiz-adv-x="1003" 
d="M602 1167l-186 246h43l168 -221l243 221h50l-273 -246h-45zM971 1024l-4 -23l-869 -964h719l-6 -37h-778l4 23l868 964h-678l6 37h738z" />
    <glyph glyph-name="florin" unicode="&#x192;" horiz-adv-x="882" 
d="M664 1208q52 150 158 211.5t225 18.5l-9 -41q-97 46 -193 -9t-143 -188l-161 -463h268l-6 -39h-275l-311 -891q-51 -147 -157 -209.5t-224 -19.5l6 41q98 -46 194.5 9t141.5 188l307 882h-256l7 39h264z" />
    <glyph glyph-name="Scommaaccent" unicode="&#x218;" horiz-adv-x="1128" 
d="M504 -20q-188 0 -310.5 84.5t-150.5 230.5l37 18q25 -138 135 -217.5t291 -79.5q197 0 314 86t143 224q15 81 -5.5 143t-79.5 107t-114 72t-146 61q-150 55 -210 91q-187 110 -161 302q1 9 3 18q29 151 155.5 242.5t296.5 91.5q163 0 267.5 -79.5t140.5 -209.5l-35 -16
q-35 121 -127 194.5t-246 73.5q-158 0 -272 -83.5t-139 -217.5q-12 -65 4.5 -119.5t43 -88.5t86.5 -69.5t96 -51t110 -44.5q7 -3 10 -4q38 -15 65.5 -26.5t61 -26.5t58 -29t51.5 -32t45.5 -36t36.5 -40t28.5 -46.5t17 -52.5t6.5 -60t-7 -68q-32 -165 -166.5 -253.5
t-333.5 -88.5zM393 -492l90 349h-41l-82 -349h33z" />
    <glyph glyph-name="scommaaccent" unicode="&#x219;" horiz-adv-x="954" 
d="M416 -20q-281 0 -359 215l37 16q66 -195 326 -195q130 0 225 57.5t115 162.5q10 55 -5.5 97.5t-50 69t-81.5 47t-100 36.5t-105.5 32t-99 38t-80.5 51.5t-48.5 75t-3.5 105.5q21 121 122.5 188.5t246.5 67.5q110 0 197.5 -53.5t119.5 -142.5l-34 -17q-30 81 -109 129
t-178 48q-125 0 -215 -58.5t-109 -169.5q-9 -52 7.5 -91.5t51 -65t81.5 -45t100 -35t105.5 -32t98.5 -40t79.5 -54.5t47.5 -79t3 -111q-21 -116 -127.5 -181.5t-257.5 -65.5zM313 -492l90 349h-41l-81 -349h32z" />
    <glyph glyph-name="uni021A" unicode="&#x21a;" horiz-adv-x="1105" 
d="M1206 1434l-6 -37h-471l-246 -1397h-41l246 1397h-471l6 37h983zM340 -492l82 349h41l-90 -349h-33z" />
    <glyph glyph-name="uni021B" unicode="&#x21b;" horiz-adv-x="776" 
d="M430 987l-133 -760q-24 -135 44.5 -176t248.5 -14l-6 -37q-194 -31 -274 23.5t-54 203.5l133 760h-244l7 37h243l49 274l43 13l-51 -287h328l-6 -37h-328zM270 -492l82 349h41l-90 -349h-33z" />
    <glyph glyph-name="circumflex" unicode="&#x2c6;" horiz-adv-x="585" 
d="M659 1167h-41l-167 222l-246 -222h-49l272 246h45z" />
    <glyph glyph-name="caron" unicode="&#x2c7;" horiz-adv-x="585" 
d="M655 1413h50l-273 -246h-45l-186 246h43l168 -221z" />
    <glyph glyph-name="breve" unicode="&#x2d8;" horiz-adv-x="573" 
d="M410 1171q-111 0 -171.5 59.5t-43.5 155.5h36q-13 -82 36 -132t143 -50t160 50t79 132h37q-17 -97 -92 -156t-184 -59z" />
    <glyph glyph-name="dotaccent" unicode="&#x2d9;" horiz-adv-x="122" 
d="M221 1188q-26 0 -40.5 17.5t-10.5 43.5q5 26 25.5 44t46.5 18t41 -18t10 -44q-4 -26 -25 -43.5t-47 -17.5z" />
    <glyph glyph-name="ring" unicode="&#x2da;" horiz-adv-x="471" 
d="M350 1147q-87 0 -132.5 52.5t-31.5 131.5q13 82 76 133.5t148 51.5t131.5 -51t33.5 -134q-14 -80 -76 -132t-149 -52zM354 1180q71 0 122 42t63 109q12 68 -25.5 110t-107.5 42q-69 0 -120 -41.5t-63 -110.5q-12 -67 24 -109t107 -42z" />
    <glyph glyph-name="ogonek" unicode="&#x2db;" horiz-adv-x="321" 
d="M23 -430q-67 0 -101 40t-22 103q22 139 235 287h51q-227 -157 -249 -291q-9 -47 16.5 -76.5t75.5 -29.5q47 0 94 18l-6 -35q-39 -16 -94 -16z" />
    <glyph glyph-name="tilde" unicode="&#x2dc;" horiz-adv-x="606" 
d="M164 1208q16 94 62 144.5t107 40t118 -85.5q77 -95 144.5 -68.5t88.5 141.5h35q-16 -92 -62.5 -141.5t-108 -39.5t-118.5 83q-51 66 -100 74.5t-83 -32t-48 -116.5h-35z" />
    <glyph glyph-name="hungarumlaut" unicode="&#x2dd;" horiz-adv-x="573" 
d="M156 1167h37l196 267h-45zM442 1167h39l213 267h-45z" />
    <glyph glyph-name="gravecomb" unicode="&#x300;" horiz-adv-x="0" 
d="M76 1167l-123 246h-41l131 -246h33z" />
    <glyph glyph-name="acutecomb" unicode="&#x301;" horiz-adv-x="0" 
d="M-131 1167h39l211 246h-45z" />
    <glyph glyph-name="uni0302" unicode="&#x302;" horiz-adv-x="0" 
d="M76 1167h-41l-168 222l-246 -222h-49l272 246h45z" />
    <glyph glyph-name="tildecomb" unicode="&#x303;" horiz-adv-x="0" 
d="M-442 1208q16 94 61.5 144t106.5 40t118 -85q77 -95 145 -68.5t89 141.5h35q-16 -92 -62.5 -141.5t-108 -39.5t-118.5 83q-51 66 -100.5 74.5t-83.5 -32t-48 -116.5h-34z" />
    <glyph glyph-name="uni0304" unicode="&#x304;" horiz-adv-x="0" 
d="M-406 1231l7 33h491l-6 -33h-492z" />
    <glyph glyph-name="uni0306" unicode="&#x306;" horiz-adv-x="0" 
d="M-205 1171q-111 0 -171.5 59.5t-43.5 155.5h37q-14 -82 35 -132t143 -50t160.5 50t79.5 132h37q-17 -97 -92 -156t-185 -59z" />
    <glyph glyph-name="uni0307" unicode="&#x307;" horiz-adv-x="0" 
d="M16 1188q-26 0 -40.5 17.5t-10.5 43.5q5 26 25.5 44t46.5 18t41 -18t10 -44q-4 -26 -25 -43.5t-47 -17.5z" />
    <glyph glyph-name="uni0308" unicode="&#x308;" horiz-adv-x="0" 
d="M-289 1188q-17 0 -27.5 12t-7.5 29t18 29t32 12t26 -12t6 -29t-16.5 -29t-30.5 -12zM39 1188q-17 0 -27.5 12t-7.5 29t17.5 29t31.5 12t26.5 -12t6.5 -29t-16.5 -29t-30.5 -12z" />
    <glyph glyph-name="uni030A" unicode="&#x30a;" horiz-adv-x="0" 
d="M-121 1147q-87 0 -132.5 52.5t-31.5 131.5q13 82 76 133.5t148 51.5t131.5 -51t33.5 -134q-14 -80 -76 -132t-149 -52zM-117 1180q71 0 122 42t63 109q12 68 -26 110t-108 42q-69 0 -119.5 -41.5t-62.5 -110.5q-12 -67 24 -109t107 -42z" />
    <glyph glyph-name="uni030B" unicode="&#x30b;" horiz-adv-x="0" 
d="M-397 1167h37l196 267h-45zM-111 1167h39l213 267h-45z" />
    <glyph glyph-name="uni030C" unicode="&#x30c;" horiz-adv-x="0" 
d="M70 1413h49l-273 -246h-45l-186 246h43l168 -221z" />
    <glyph glyph-name="uni0312" unicode="&#x312;" horiz-adv-x="0" 
d="M182 1966l-90 -348h41l82 348h-33z" />
    <glyph glyph-name="uni0326" unicode="&#x326;" horiz-adv-x="0" 
d="M-246 -492l90 349h-41l-82 -349h33z" />
    <glyph glyph-name="uni0327" unicode="&#x327;" horiz-adv-x="0" 
d="M-340 -162q71 3 120 -30t38 -99q-12 -78 -110 -112t-271 -11l6 33q155 -20 241 5.5t97 88.5q9 48 -31.5 73.5t-132.5 18.5l35 195h37z" />
    <glyph glyph-name="uni0328" unicode="&#x328;" horiz-adv-x="0" 
d="M-299 -430q-67 0 -101 40t-22 103q22 139 236 287h51q-115 -80 -176.5 -150.5t-73.5 -140.5q-9 -47 16.5 -76.5t75.5 -29.5q47 0 94 18l-6 -35q-39 -16 -94 -16z" />
    <glyph glyph-name="uni0394" unicode="&#x394;" horiz-adv-x="1265" 
d="M819 1434l316 -1434h-1184l819 1434h49zM16 37h1069l-294 1354z" />
    <glyph glyph-name="uni03A9" unicode="&#x3a9;" horiz-adv-x="1722" 
d="M1634 709q-41 -229 -203 -414t-378 -258h440l-6 -37h-549l6 37q240 58 422.5 246.5t226.5 433.5q25 143 -7 272.5t-109 223t-196 149t-261 55.5t-280.5 -55.5t-248 -149t-187.5 -223t-103 -272.5q-29 -162 14.5 -304.5t146 -240t246.5 -135.5l-4 -31l-2 -6h-549l6 37h445
q-190 78 -287.5 268t-56.5 420q27 151 108 286t196 232t262 154t300 57q196 0 349 -100.5t223.5 -272.5t35.5 -372z" />
    <glyph glyph-name="pi" unicode="&#x3c0;" horiz-adv-x="1331" 
d="M1339 1024l-6 -37h-170l-174 -987h-41l174 987h-737l-174 -987h-41l174 987h-178l6 37h1167z" />
    <glyph glyph-name="uni0401" unicode="&#x401;" horiz-adv-x="1105" 
d="M614 1597q-17 0 -27 12t-7 29t17.5 29t31.5 12t26.5 -12t6.5 -29t-17 -29t-31 -12zM942 1597q-17 0 -27.5 12t-7.5 29t17.5 29t31.5 12t26.5 -12t6.5 -29t-16.5 -29t-30.5 -12zM1149 1397h-748l-114 -656h696l-6 -36h-698l-117 -668h758l-7 -37h-798l252 1434h788z" />
    <glyph glyph-name="uni0402" unicode="&#x402;" horiz-adv-x="1433" 
d="M989 963q174 0 260.5 -94t57.5 -261l-66 -372q-23 -129 -104.5 -196t-223.5 -50l7 37q122 -13 191.5 42.5t88.5 166.5l66 372q26 153 -47.5 235.5t-227.5 82.5q-99 0 -196.5 -31.5t-210.5 -87.5l-142 -807h-41l246 1397h-430l6 37h983l-6 -37h-512l-96 -543
q228 109 397 109z" />
    <glyph glyph-name="uni0403" unicode="&#x403;" horiz-adv-x="1024" 
d="M952 1821l-211 -246h-39l205 246h45zM1124 1434l-6 -37h-717l-245 -1397h-41l252 1434h757z" />
    <glyph glyph-name="uni0404" unicode="&#x404;" horiz-adv-x="1562" 
d="M1006 1417q-195 0 -366.5 -92t-284.5 -247t-150 -343h854l-6 -37h-854q-28 -186 32 -341.5t200 -248t333 -92.5q190 0 359.5 89t281.5 241l33 -20q-112 -156 -290.5 -251t-381.5 -95q-205 0 -356.5 97.5t-218 267.5t-31.5 376q27 153 104 288t188 233t256 155t300 57
q195 0 342.5 -90t220.5 -240l-35 -18q-69 143 -208.5 227t-321.5 84z" />
    <glyph glyph-name="uni0405" unicode="&#x405;" horiz-adv-x="1128" 
d="M504 -20q-188 0 -310.5 84.5t-150.5 230.5l37 18q25 -138 135 -217.5t291 -79.5q197 0 314 86t143 224q15 81 -5.5 143t-79.5 107t-114 72t-146 61q-150 55 -210 91q-187 110 -161 302q1 9 3 18q29 151 155.5 242.5t296.5 91.5q163 0 267.5 -79.5t140.5 -209.5l-35 -16
q-35 121 -127 194.5t-246 73.5q-158 0 -272 -83.5t-139 -217.5q-12 -65 4.5 -119.5t43 -88.5t86.5 -69.5t96 -51t110 -44.5q7 -3 10 -4q38 -15 65.5 -26.5t61 -26.5t58 -29t51.5 -32t45.5 -36t36.5 -40t28.5 -46.5t17 -52.5t6.5 -60t-7 -68q-32 -165 -166.5 -253.5
t-333.5 -88.5z" />
    <glyph glyph-name="uni0406" unicode="&#x406;" horiz-adv-x="450" 
d="M367 1434h41l-252 -1434h-41z" />
    <glyph glyph-name="uni0407" unicode="&#x407;" horiz-adv-x="450" 
d="M252 1597q-17 0 -27.5 12t-7.5 29t17.5 29t31.5 12t26.5 -12t6.5 -29t-16.5 -29t-30.5 -12zM580 1597q-17 0 -27.5 12t-7.5 29t17.5 29t31.5 12t26.5 -12t6.5 -29t-16.5 -29t-30.5 -12zM367 1434h41l-252 -1434h-41z" />
    <glyph glyph-name="uni0408" unicode="&#x408;" horiz-adv-x="1134" 
d="M432 -20q-155 0 -255 61t-128 170l35 18q24 -99 111.5 -156t236.5 -57q178 0 301.5 99.5t151.5 253.5l186 1065h41l-186 -1065q-32 -177 -169 -283t-325 -106z" />
    <glyph glyph-name="uni0409" unicode="&#x409;" horiz-adv-x="2041" 
d="M1573 778q168 0 270 -117t72 -284t-165 -272t-314 -105h-410l246 1397h-697l-147 -844q-51 -286 -164.5 -429t-302.5 -128l6 37q72 -5 133.5 18.5t117 81.5t99 164.5t70.5 255.5l154 881h778l-115 -656h369zM1874 385q26 152 -63.5 254t-243.5 102h-369l-125 -704h369
q155 0 280.5 98.5t151.5 249.5z" />
    <glyph glyph-name="uni040A" unicode="&#x40a;" horiz-adv-x="2031" 
d="M1563 778q168 0 270 -117t72 -284t-165.5 -272t-314.5 -105h-409l131 741h-860l-131 -741h-41l252 1434h41l-115 -656h860l115 656h41l-115 -656h369zM1864 385q26 152 -64 254t-244 102h-368l-125 -704h369q155 0 280.5 98.5t151.5 249.5z" />
    <glyph glyph-name="uni040B" unicode="&#x40b;" horiz-adv-x="1454" 
d="M989 963q174 0 260.5 -94t57.5 -261l-107 -608h-41l107 608q26 153 -47.5 235.5t-227.5 82.5q-99 0 -196.5 -31.5t-210.5 -87.5l-142 -807h-41l246 1397h-430l6 37h983l-6 -37h-512l-96 -543q228 109 397 109z" />
    <glyph glyph-name="uni040C" unicode="&#x40c;" horiz-adv-x="1138" 
d="M973 1821l-211 -246h-39l205 246h45zM1260 1434l-930 -703l698 -731h-51l-694 725l-127 -725h-41l252 1434h41l-121 -686l911 686h62z" />
    <glyph glyph-name="uni040E" unicode="&#x40e;" horiz-adv-x="1144" 
d="M1036 1671l-6 -33h-491l6 33h491zM1221 1434h45l-672 -1117q-109 -182 -220.5 -255t-232.5 -62l6 37q114 -9 212.5 61.5t193.5 229.5l27 43l-336 1063h37l325 -1020z" />
    <glyph glyph-name="uni040F" unicode="&#x40f;" horiz-adv-x="1433" 
d="M1350 1434h41l-252 -1434h-492l-49 -274h-41l49 274h-491l252 1434h41l-246 -1397h942z" />
    <glyph glyph-name="uni0410" unicode="&#x410;" horiz-adv-x="1286" 
d="M1104 0l-86 391h-789l-223 -391h-45l819 1434h51l314 -1434h-41zM250 428h760l-209 963z" />
    <glyph glyph-name="uni0411" unicode="&#x411;" horiz-adv-x="1198" 
d="M1159 1397h-758l-102 -578h453q106 0 190.5 -56.5t124.5 -153t20 -206.5q-29 -169 -168 -286t-313 -117h-491l252 1434h798zM743 782h-450l-131 -745h450q155 0 282 109.5t153 263.5q28 154 -60.5 263t-243.5 109z" />
    <glyph glyph-name="uni0412" unicode="&#x412;" horiz-adv-x="1290" 
d="M1225 1071q-20 -115 -101 -206t-194 -128q123 -26 189 -129t44 -235q-12 -74 -49 -141t-94 -118.5t-137 -82.5t-170 -31h-598l252 1434h534q158 0 253.5 -106t70.5 -257zM807 750q132 0 243 95t134 228q23 134 -59.5 229t-223.5 95h-500l-114 -647h520zM1122 375
q25 139 -56 238.5t-218 99.5h-567l-119 -676h557q151 0 264.5 98t138.5 240z" />
    <glyph glyph-name="uni0413" unicode="&#x413;" horiz-adv-x="1024" 
d="M1124 1434l-6 -37h-717l-245 -1397h-41l252 1434h757z" />
    <glyph glyph-name="uni0414" unicode="&#x414;" horiz-adv-x="1413" 
d="M1094 37h143l-55 -311h-41l49 274h-1188l-49 -274h-41l55 311h109q78 69 146.5 198.5t103.5 321.5l153 877h860zM367 557q-62 -349 -236 -520h922l239 1360h-778z" />
    <glyph glyph-name="uni0415" unicode="&#x415;" horiz-adv-x="1105" 
d="M1149 1397h-748l-114 -656h696l-6 -36h-698l-117 -668h758l-7 -37h-798l252 1434h788z" />
    <glyph glyph-name="uni0416" unicode="&#x416;" horiz-adv-x="1652" 
d="M1765 1434l-831 -703l588 -731h-45l-588 727l-127 -727h-41l127 727l-840 -727h-57l856 741l-576 693h48l573 -686l121 686h41l-121 -686l815 686h57z" />
    <glyph glyph-name="uni0417" unicode="&#x417;" horiz-adv-x="1103" 
d="M1071 1077q-22 -123 -106 -215.5t-213 -126.5q137 -29 203 -129.5t42 -236.5q-30 -171 -166.5 -280t-336.5 -109q-376 0 -453 299l39 18q63 -281 420 -281q180 0 304.5 101t151.5 256q27 146 -57.5 243t-253.5 97h-158l7 37h120q164 0 278 95.5t138 235.5
q26 149 -62 242.5t-257 93.5q-298 0 -451 -262l-33 21q164 278 490 278q182 0 282.5 -107.5t71.5 -269.5z" />
    <glyph glyph-name="uni0418" unicode="&#x418;" horiz-adv-x="1433" 
d="M115 0l252 1434h41l-238 -1358l1180 1358h41l-252 -1434h-41l239 1360l-1181 -1360h-41z" />
    <glyph glyph-name="uni0419" unicode="&#x419;" horiz-adv-x="1433" 
d="M649 1640l6 33h492l-6 -33h-492zM115 0l252 1434h41l-238 -1358l1180 1358h41l-252 -1434h-41l239 1360l-1181 -1360h-41z" />
    <glyph glyph-name="uni041A" unicode="&#x41a;" horiz-adv-x="1138" 
d="M1260 1434l-930 -703l698 -731h-51l-694 725l-127 -725h-41l252 1434h41l-121 -686l911 686h62z" />
    <glyph glyph-name="uni041B" unicode="&#x41b;" horiz-adv-x="1443" 
d="M-39 -4l6 37q72 -5 133.5 18.5t117 81.5t99 164.5t70.5 255.5l154 881h860l-252 -1434h-41l246 1397h-779l-147 -844q-52 -287 -164.5 -430.5t-302.5 -126.5z" />
    <glyph glyph-name="uni041C" unicode="&#x41c;" horiz-adv-x="1679" 
d="M1636 1434l-252 -1434h-41l242 1372l-751 -944h-17l-418 954l-243 -1382h-41l252 1434h51l416 -947l747 947h55z" />
    <glyph glyph-name="uni041D" unicode="&#x41d;" horiz-adv-x="1433" 
d="M1350 1434h41l-252 -1434h-41l127 719h-942l-127 -719h-41l252 1434h41l-119 -678h942z" />
    <glyph glyph-name="uni041E" unicode="&#x41e;" horiz-adv-x="1720" 
d="M768 -20q-150 0 -276.5 59t-208 159t-116 237.5t-7.5 287.5q35 201 163 369t314 265t387 97q119 0 225 -38t184 -106t132.5 -161.5t70 -204t-3.5 -233.5q-35 -201 -163 -369t-314 -265t-387 -97zM772 16q189 0 365.5 94t298 255t155.5 352q25 143 -7 272.5t-108 223
t-195 149t-261 55.5t-280.5 -55.5t-248 -149t-187.5 -223t-103 -272.5q-34 -190 30 -351.5t208 -255.5t333 -94z" />
    <glyph glyph-name="uni041F" unicode="&#x41f;" horiz-adv-x="1433" 
d="M1391 1434l-252 -1434h-41l245 1397h-942l-245 -1397h-41l252 1434h1024z" />
    <glyph glyph-name="uni0420" unicode="&#x420;" 
d="M799 1434q194 0 298.5 -123.5t73.5 -306.5q-30 -182 -174.5 -306.5t-341.5 -124.5h-399l-100 -573h-41l252 1434h432zM1130 1004q29 170 -63 281.5t-266 111.5h-400l-139 -787h395q177 0 310.5 112t162.5 282z" />
    <glyph glyph-name="uni0421" unicode="&#x421;" horiz-adv-x="1562" 
d="M766 -20q-205 0 -356.5 97.5t-218 267.5t-31.5 376q27 153 104 288t188 233t256 155t300 57q195 0 342.5 -90t220.5 -240l-35 -18q-69 143 -208.5 227t-321.5 84q-149 0 -287 -55.5t-243 -150t-177.5 -223t-97.5 -271.5q-34 -189 25 -349.5t200.5 -256t337.5 -95.5
q190 0 359.5 89t281.5 241l33 -20q-112 -156 -290.5 -251t-381.5 -95z" />
    <glyph glyph-name="uni0422" unicode="&#x422;" horiz-adv-x="1105" 
d="M1206 1434l-6 -37h-471l-246 -1397h-41l246 1397h-471l6 37h983z" />
    <glyph glyph-name="uni0423" unicode="&#x423;" horiz-adv-x="1144" 
d="M1221 1434h45l-672 -1117q-109 -182 -220.5 -255t-232.5 -62l6 37q114 -9 212.5 61.5t193.5 229.5l27 43l-336 1063h37l325 -1020z" />
    <glyph glyph-name="uni0424" unicode="&#x424;" horiz-adv-x="1648" 
d="M977 1274q207 -3 357.5 -67.5t224.5 -193t43 -304.5q-23 -132 -96.5 -237t-183 -171.5t-247 -102.5t-293.5 -38l-28 -160h-41l28 160q-207 3 -356.5 67.5t-223 193t-42.5 304.5q22 133 95 237.5t182.5 171t246.5 102.5t293 38l29 160h41zM1561 717q43 238 -116 376.5
t-474 143.5l-183 -1040q316 5 523 143.5t250 376.5zM160 717q-43 -237 115.5 -376t472.5 -144l182 1040q-314 -5 -520.5 -144t-249.5 -376z" />
    <glyph glyph-name="uni0425" unicode="&#x425;" horiz-adv-x="1146" 
d="M1229 1434l-594 -707l360 -727h-43l-344 696l-585 -696h-52l617 733l-346 701h43l331 -668l562 668h51z" />
    <glyph glyph-name="uni0426" unicode="&#x426;" horiz-adv-x="1413" 
d="M1104 37h143l-55 -311h-41l49 274h-1085l252 1434h41l-246 -1397h901l246 1397h41z" />
    <glyph glyph-name="uni0427" unicode="&#x427;" horiz-adv-x="1290" 
d="M1206 1434h41l-252 -1434h-41l113 645q-219 -92 -422 -92q-119 0 -205.5 30.5t-133.5 84t-63.5 123t-2.5 151.5l86 492h41l-86 -492q-29 -161 63 -256.5t301 -95.5q200 0 430 100v-2z" />
    <glyph glyph-name="uni0428" unicode="&#x428;" horiz-adv-x="1986" 
d="M1903 1434h41l-252 -1434h-1577l252 1434h41l-246 -1397h727l246 1397h41l-246 -1397h727z" />
    <glyph glyph-name="uni0429" unicode="&#x429;" horiz-adv-x="2007" 
d="M1698 37h143l-55 -311h-41l49 274h-1679l252 1434h41l-246 -1397h727l246 1397h41l-246 -1397h727l246 1397h41z" />
    <glyph glyph-name="uni042A" unicode="&#x42a;" horiz-adv-x="1392" 
d="M319 0l246 1397h-409l6 37h450l-100 -574h399q190 0 294.5 -124.5t70.5 -309.5q-34 -186 -178 -306t-338 -120h-441zM367 37h397q173 0 307.5 112t163.5 281q29 173 -62.5 283t-269.5 110h-397z" />
    <glyph glyph-name="uni042B" unicode="&#x42b;" horiz-adv-x="1515" 
d="M115 0l252 1434h41l-101 -574h400q190 0 294 -124.5t70 -309.5q-34 -186 -178 -306t-338 -120h-440zM1180 0l252 1434h41l-252 -1434h-41zM162 37h397q173 0 307.5 112t163.5 281q30 174 -63 286.5t-269 106.5h-397z" />
    <glyph glyph-name="uni042C" unicode="&#x42c;" 
d="M707 860q190 0 294 -124.5t70 -309.5q-34 -186 -178 -306t-338 -120h-440l252 1434h41l-101 -574h400zM1030 430q30 174 -63 286.5t-269 106.5h-397l-139 -786h397q173 0 307.5 112t163.5 281z" />
    <glyph glyph-name="uni042D" unicode="&#x42d;" horiz-adv-x="1562" 
d="M868 1454q154 0 281.5 -59t207 -158.5t112.5 -236t6 -287.5q-27 -152 -104.5 -286.5t-190.5 -233t-261.5 -156t-310.5 -57.5q-187 0 -333 90t-209 241l34 19q59 -143 197 -228.5t317 -85.5q195 0 370 91t292 247t154 344h-855l7 37h856q28 188 -34 343.5t-204.5 247
t-337.5 91.5q-185 0 -354.5 -88.5t-278.5 -238.5l-32 20q116 158 293.5 251t377.5 93z" />
    <glyph glyph-name="uni042E" unicode="&#x42e;" horiz-adv-x="2170" 
d="M1475 1454q119 0 225 -38t184 -106t132.5 -161.5t70 -204t-3.5 -233.5q-35 -201 -163 -369t-314 -265t-387 -97q-149 0 -275.5 59t-208 158t-116.5 235.5t-9 286.5h-327l-127 -719h-41l252 1434h41l-119 -678h327q42 193 170.5 353t311 252.5t377.5 92.5zM2042 717
q25 143 -7 272.5t-108.5 223t-195.5 149t-261 55.5t-280.5 -55.5t-248 -149t-187.5 -223t-103 -272.5q-34 -190 30.5 -351.5t208.5 -255.5t333 -94t365.5 94t298 255t155.5 352z" />
    <glyph glyph-name="uni042F" unicode="&#x42f;" horiz-adv-x="1310" 
d="M1268 1434l-252 -1434h-41l108 614h-495l-525 -614h-51l527 616q-152 14 -243.5 137.5t-62.5 282.5q31 171 166.5 284.5t315.5 113.5h553zM578 651h512l131 746h-512q-155 0 -282 -106.5t-153 -260.5t64.5 -266.5t239.5 -112.5z" />
    <glyph glyph-name="uni0430" unicode="&#x430;" horiz-adv-x="1355" 
d="M1221 1024h41l-181 -1024h-41l52 289q-79 -144 -219 -226.5t-310 -82.5q-108 0 -202 45.5t-156.5 121t-90 179t-8.5 213.5q40 225 209 365t396 140q170 0 293.5 -104.5t154.5 -267.5zM569 16q207 0 363.5 133.5t193.5 342.5q24 137 -25 256.5t-154.5 189.5t-241.5 70
q-207 0 -364 -133.5t-194 -342.5q-18 -103 7 -198t82 -165t144 -111.5t189 -41.5z" />
    <glyph glyph-name="uni0431" unicode="&#x431;" 
d="M520 -23q-107 0 -194.5 37t-144.5 104t-79.5 166.5t-1.5 217.5q17 98 37 168t54.5 140.5t84 124.5t124 106t175.5 98q63 29 146.5 61t134 52t103.5 48.5t86 64.5t51 85l32 -18q-17 -43 -48 -79t-67.5 -60t-90 -49t-100.5 -42.5t-115.5 -44.5t-120.5 -51
q-184 -84 -279 -189.5t-141 -291.5q101 149 243.5 227t290.5 78q129 0 228 -61.5t145 -173.5t21 -249q-35 -206 -195 -337.5t-379 -131.5zM526 14q198 0 345.5 123t181.5 316q34 191 -69.5 315.5t-291.5 124.5q-175 0 -328 -111t-223 -280q-38 -220 68 -354t317 -134z" />
    <glyph glyph-name="uni0432" unicode="&#x432;" horiz-adv-x="1064" 
d="M977 764q-34 -182 -203 -234q98 -24 141 -94.5t25 -165.5q-22 -121 -109 -195.5t-243 -74.5h-494l180 1024h459q135 0 199.5 -75t44.5 -185zM647 545q117 0 193.5 59t95.5 162q17 103 -38.5 162t-170.5 59h-418l-78 -442h416zM899 272q20 110 -39.5 173t-183.5 63h-451
l-84 -471h453q124 0 204.5 62t100.5 173z" />
    <glyph glyph-name="uni0433" unicode="&#x433;" horiz-adv-x="819" 
d="M889 1024l-6 -37h-574l-174 -987h-41l180 1024h615z" />
    <glyph glyph-name="uni0434" unicode="&#x434;" horiz-adv-x="1210" 
d="M899 37h145l-57 -311h-41l51 274h-983l-51 -274h-41l58 311h108q81 91 128.5 200.5t74.5 260.5l92 526h690zM141 37h717l168 950h-608l-86 -489q-53 -288 -191 -461z" />
    <glyph glyph-name="uni0435" unicode="&#x435;" horiz-adv-x="1222" 
d="M711 1044q114 0 202 -44t138 -118.5t68.5 -170.5t0.5 -201l-4 -23h-977q-28 -210 83 -340.5t317 -130.5q140 0 255.5 56.5t182.5 154.5l31 -20q-74 -107 -199 -167t-277 -60q-151 0 -259 69t-153 191.5t-18 275.5q26 150 110 270t214.5 189t284.5 69zM145 524h940
q28 217 -76 350.5t-302 133.5q-206 0 -363.5 -135.5t-198.5 -348.5z" />
    <glyph glyph-name="uni0436" unicode="&#x436;" horiz-adv-x="1310" 
d="M1327 1024l-606 -496l438 -528h-47l-430 518l-92 -518h-41l90 518l-610 -518h-58l633 537l-424 487h47l418 -477l84 477h41l-84 -479l584 479h57z" />
    <glyph glyph-name="uni0437" unicode="&#x437;" horiz-adv-x="911" 
d="M823 772q-14 -85 -69.5 -149.5t-149.5 -92.5q104 -26 151 -100.5t29 -171.5q-21 -119 -129.5 -198.5t-281.5 -79.5q-307 0 -344 235l34 18q25 -217 316 -217q147 0 245.5 67.5t118.5 178.5t-45 178.5t-196 67.5h-123l6 37h88q123 0 207.5 63.5t101.5 167.5
q19 102 -50.5 167t-194.5 65q-119 0 -209 -52t-138 -137l-30 19q54 94 151.5 150t231.5 56q146 0 223.5 -81t56.5 -191z" />
    <glyph glyph-name="uni0438" unicode="&#x438;" 
d="M1053 1024h41l-181 -1024h-41l170 958l-907 -958h-41l180 1024h41l-170 -958z" />
    <glyph glyph-name="uni0439" unicode="&#x439;" 
d="M475 1231l6 33h492l-6 -33h-492zM1053 1024h41l-181 -1024h-41l170 958l-907 -958h-41l180 1024h41l-170 -958z" />
    <glyph glyph-name="uni043A" unicode="&#x43a;" horiz-adv-x="944" 
d="M963 1024l-691 -496l521 -528h-54l-512 520l-92 -520h-41l180 1024h41l-84 -479l668 479h64z" />
    <glyph glyph-name="uni043B" unicode="&#x43b;" 
d="M1094 1024l-181 -1024h-41l175 987h-619l-100 -571q-22 -125 -59.5 -211.5t-88 -131.5t-106 -62t-123.5 -11l6 37q131 -10 212.5 85t117.5 294l106 608h701z" />
    <glyph glyph-name="uni043C" unicode="&#x43c;" horiz-adv-x="1331" 
d="M1237 1024l-180 -1024h-41l170 969l-551 -650h-12l-318 652l-170 -971h-41l180 1024h50l313 -639l543 639h57z" />
    <glyph glyph-name="uni043D" unicode="&#x43d;" 
d="M1053 1024h41l-181 -1024h-41l86 494h-737l-86 -494h-41l180 1024h41l-86 -494h738z" />
    <glyph glyph-name="uni043E" unicode="&#x43e;" horiz-adv-x="1273" 
d="M545 -20q-109 0 -200.5 42.5t-151 114.5t-84.5 172t-5 211q40 225 220 374.5t405 149.5q145 0 255.5 -71.5t160.5 -196t24 -272.5q-40 -225 -219.5 -374.5t-404.5 -149.5zM549 16q207 0 374.5 143.5t204.5 352.5q24 137 -21.5 251t-146.5 179.5t-235 65.5
q-207 0 -375 -143.5t-205 -352.5q-24 -137 21.5 -251t147 -179.5t235.5 -65.5z" />
    <glyph glyph-name="uni043F" unicode="&#x43f;" 
d="M1094 1024l-181 -1024h-41l175 987h-738l-174 -987h-41l180 1024h820z" />
    <glyph glyph-name="uni0440" unicode="&#x440;" horiz-adv-x="1355" 
d="M793 1044q107 0 201 -45.5t156.5 -121t90 -179t8.5 -213.5q-40 -225 -208.5 -365t-395.5 -140q-171 0 -294 104t-154 266l-134 -760h-40l251 1434h41l-51 -287q79 142 219.5 224.5t309.5 82.5zM1208 492q18 103 -7 198t-82 165t-144 111.5t-189 41.5
q-207 0 -363.5 -133.5t-193.5 -342.5q-18 -103 7 -198t82 -165t144 -111.5t189 -41.5q207 0 363.5 133.5t193.5 342.5z" />
    <glyph glyph-name="uni0441" unicode="&#x441;" 
d="M543 -20q-150 0 -260 71.5t-157.5 194.5t-21.5 272q40 226 218.5 376t408.5 150q147 0 255 -68t147 -181l-35 -21q-34 108 -131.5 171t-241.5 63q-212 0 -377.5 -142.5t-202.5 -353.5q-24 -138 18.5 -251.5t144 -179t241.5 -65.5q138 0 261 63.5t196 170.5l30 -21
q-78 -118 -207.5 -183.5t-285.5 -65.5z" />
    <glyph glyph-name="uni0442" unicode="&#x442;" horiz-adv-x="901" 
d="M950 1024l-6 -37h-389l-174 -987h-41l174 987h-389l6 37h819z" />
    <glyph glyph-name="uni0443" unicode="&#x443;" horiz-adv-x="1044" 
d="M1049 1024h45l-643 -1118q-89 -155 -206.5 -240.5t-242.5 -75.5l6 37q107 -9 217 71t189 220l18 31l-301 1075h39l289 -1026z" />
    <glyph glyph-name="uni0444" unicode="&#x444;" horiz-adv-x="1376" 
d="M803 1049q161 -5 277.5 -78.5t166.5 -196.5t25 -270q-39 -224 -222.5 -373.5t-435.5 -155.5l-67 -385h-41l67 385q-161 5 -277.5 78.5t-166.5 196.5t-25 270q39 224 222.5 373.5t435.5 155.5l67 385h41zM145 512q-37 -212 85.5 -353t349.5 -147l176 1000
q-232 -8 -403 -148t-208 -352zM1231 512q37 212 -85 353t-349 147l-176 -1000q231 8 402 148t208 352z" />
    <glyph glyph-name="uni0445" unicode="&#x445;" horiz-adv-x="1024" 
d="M1032 1024l-493 -502l333 -522h-45l-315 494l-487 -494h-54l518 526l-317 498h45l301 -469l461 469h53z" />
    <glyph glyph-name="uni0446" unicode="&#x446;" horiz-adv-x="1228" 
d="M899 37h164l-55 -311h-41l49 274h-922l180 1024h41l-174 -987h717l174 987h41z" />
    <glyph glyph-name="uni0447" unicode="&#x447;" horiz-adv-x="1126" 
d="M991 1024h41l-180 -1024h-41l74 420q-201 -72 -363 -72q-193 0 -283.5 95.5t-62.5 252.5l57 328h41l-57 -328q-24 -139 52.5 -225t248.5 -86q160 0 375 82z" />
    <glyph glyph-name="uni0448" unicode="&#x448;" horiz-adv-x="1699" 
d="M1565 1024h41l-181 -1024h-1331l180 1024h41l-174 -987h604l175 987h41l-175 -987h605z" />
    <glyph glyph-name="uni0449" unicode="&#x449;" horiz-adv-x="1740" 
d="M1432 37h143l-55 -311h-41l49 274h-1434l180 1024h41l-174 -987h604l175 987h41l-175 -987h605l174 987h41z" />
    <glyph glyph-name="uni044A" unicode="&#x44a;" horiz-adv-x="1105" 
d="M711 610q133 0 217 -86.5t59 -222.5q-24 -137 -134 -219t-251 -82h-385l174 987h-307l6 37h348l-73 -414h346zM946 307q22 116 -47.5 191t-196.5 75h-344l-94 -536h344q126 0 222 76.5t116 193.5z" />
    <glyph glyph-name="uni044B" unicode="&#x44b;" horiz-adv-x="1310" 
d="M588 610q133 0 217 -86.5t59 -222.5q-24 -137 -134 -219t-251 -82h-385l180 1024h41l-73 -414h346zM1176 1024h41l-181 -1024h-41zM823 307q22 116 -47 191t-196 75h-344l-95 -536h344q126 0 222 76.5t116 193.5z" />
    <glyph glyph-name="uni044C" unicode="&#x44c;" horiz-adv-x="983" 
d="M588 610q133 0 217 -86.5t59 -222.5q-24 -137 -134 -219t-251 -82h-385l180 1024h41l-73 -414h346zM823 307q22 116 -47 191t-196 75h-344l-95 -536h344q126 0 222 76.5t116 193.5z" />
    <glyph glyph-name="uni044D" unicode="&#x44d;" 
d="M645 1044q150 0 260 -71.5t157 -194.5t21 -272q-40 -226 -218 -376t-408 -150q-147 0 -255 68t-147 181l35 21q34 -108 131.5 -171t241.5 -63q208 0 370.5 137t204.5 341h-565l8 36h563q30 205 -84 341.5t-321 136.5q-138 0 -261 -63.5t-196 -170.5l-30 21
q78 118 207.5 183.5t285.5 65.5z" />
    <glyph glyph-name="uni044E" unicode="&#x44e;" horiz-adv-x="1658" 
d="M1114 1044q145 0 255.5 -71.5t160.5 -196t24 -272.5q-40 -225 -219.5 -374.5t-404.5 -149.5q-106 0 -195.5 40t-149 108.5t-87 163.5t-13.5 202h-264l-86 -494h-41l180 1024h41l-86 -494h263q43 220 221.5 367t400.5 147zM1513 512q24 137 -21.5 251t-146.5 179.5
t-235 65.5q-207 0 -375 -143.5t-205 -352.5q-24 -137 21.5 -251t147 -179.5t235.5 -65.5q207 0 374.5 143.5t204.5 352.5z" />
    <glyph glyph-name="uni044F" unicode="&#x44f;" horiz-adv-x="1024" 
d="M930 1024l-180 -1024h-41l73 414h-311l-401 -414h-58l408 414q-127 6 -205.5 92t-54.5 217q24 137 134.5 219t250.5 82h385zM444 451h344l95 536h-344q-126 0 -222 -76.5t-116 -193.5q-22 -117 46.5 -191.5t196.5 -74.5z" />
    <glyph glyph-name="uni0451" unicode="&#x451;" horiz-adv-x="1222" 
d="M571 1188q-17 0 -27 12t-7 29t17.5 29t31.5 12t26 -12t6 -29t-16.5 -29t-30.5 -12zM899 1188q-17 0 -27.5 12t-7.5 29t17.5 29t31.5 12t26.5 -12t6.5 -29t-16.5 -29t-30.5 -12zM711 1044q114 0 202 -44t138 -118.5t68.5 -170.5t0.5 -201l-4 -23h-977q-28 -210 83 -340.5
t317 -130.5q140 0 255.5 56.5t182.5 154.5l31 -20q-74 -107 -199 -167t-277 -60q-151 0 -259 69t-153 191.5t-18 275.5q26 150 110 270t214.5 189t284.5 69zM145 524h940q28 217 -76 350.5t-302 133.5q-206 0 -363.5 -135.5t-198.5 -348.5z" />
    <glyph glyph-name="uni0452" unicode="&#x452;" horiz-adv-x="1218" 
d="M764 1044q173 0 265 -108.5t61 -284.5l-148 -835q-23 -129 -104.5 -196t-223.5 -50l7 37q122 -13 191.5 42.5t88.5 166.5l148 835q27 155 -50 256t-239 101q-176 0 -310.5 -121.5t-175.5 -321.5l-98 -565h-41l215 1219h-164l7 34h163l31 181h41l-31 -181h369l-6 -34h-369
l-82 -459q71 138 193 211t262 73z" />
    <glyph glyph-name="uni0453" unicode="&#x453;" horiz-adv-x="819" 
d="M758 1413l-211 -246h-39l205 246h45zM889 1024l-6 -37h-574l-174 -987h-41l180 1024h615z" />
    <glyph glyph-name="uni0454" unicode="&#x454;" 
d="M725 1008q-208 0 -370.5 -137t-204.5 -341h565l-8 -36h-564q-30 -204 84.5 -341t321.5 -137q138 0 261 63.5t196 170.5l30 -21q-78 -118 -207.5 -183.5t-285.5 -65.5q-150 0 -260 71.5t-157.5 194.5t-21.5 272q40 226 218.5 376t408.5 150q147 0 255 -68t147 -181
l-35 -21q-34 108 -131.5 171t-241.5 63z" />
    <glyph glyph-name="uni0455" unicode="&#x455;" horiz-adv-x="954" 
d="M416 -20q-281 0 -359 215l37 16q66 -195 326 -195q130 0 225 57.5t115 162.5q10 55 -5.5 97.5t-50 69t-81.5 47t-100 36.5t-105.5 32t-99 38t-80.5 51.5t-48.5 75t-3.5 105.5q21 121 122.5 188.5t246.5 67.5q110 0 197.5 -53.5t119.5 -142.5l-34 -17q-30 81 -109 129
t-178 48q-125 0 -215 -58.5t-109 -169.5q-9 -52 7.5 -91.5t51 -65t81.5 -45t100 -35t105.5 -32t98.5 -40t79.5 -54.5t47.5 -79t3 -111q-21 -116 -127.5 -181.5t-257.5 -65.5z" />
    <glyph glyph-name="uni0456" unicode="&#x456;" horiz-adv-x="409" 
d="M350 1333q-21 0 -32.5 14t-6.5 33q5 20 20 33.5t36 13.5q20 0 31 -14t8 -33t-19 -33t-37 -14zM94 0l180 1024h41l-180 -1024h-41z" />
    <glyph glyph-name="uni0457" unicode="&#x457;" horiz-adv-x="409" 
d="M160 1188q-17 0 -27.5 12t-7.5 29t17.5 29t31.5 12t26.5 -12t6.5 -29t-16.5 -29t-30.5 -12zM487 1188q-17 0 -27 12t-7 29t17.5 29t31.5 12t26.5 -12t6.5 -29t-17 -29t-31 -12zM94 0l180 1024h41l-180 -1024h-41z" />
    <glyph glyph-name="uni0458" unicode="&#x458;" horiz-adv-x="428" 
d="M385 1427q20 0 31 -14t8 -33t-18.5 -33t-36.5 -14t-32.5 14t-6.5 33q5 20 19.5 33.5t35.5 13.5zM80 -184l213 1208h41l-213 -1208q-23 -129 -104.5 -196t-223.5 -50l6 37q122 -13 192 42.5t89 166.5z" />
    <glyph glyph-name="uni0459" unicode="&#x459;" horiz-adv-x="1701" 
d="M1317 569q129 0 208 -78t54 -212q-25 -135 -126 -207t-236 -72h-365l174 987h-598l-100 -571q-22 -125 -59.5 -211.5t-88 -132t-106 -62t-123.5 -10.5l6 37q132 -10 212.5 82.5t117.5 296.5l106 608h680l-80 -455h324zM1538 287q20 115 -43 180t-184 65h-324l-88 -495
h324q121 0 208 67.5t107 182.5z" />
    <glyph glyph-name="uni045A" unicode="&#x45a;" horiz-adv-x="1681" 
d="M1296 569q130 0 209 -78t54 -212q-25 -135 -126.5 -207t-236.5 -72h-365l95 532h-697l-94 -532h-41l180 1024h41l-79 -455h696l80 455h41l-80 -455h323zM1518 287q20 115 -43.5 180t-184.5 65h-323l-88 -495h323q121 0 208.5 67.5t107.5 182.5z" />
    <glyph glyph-name="uni045B" unicode="&#x45b;" horiz-adv-x="1218" 
d="M764 1044q173 0 265 -108.5t61 -284.5l-115 -651h-41l115 651q27 155 -50 256t-239 101q-176 0 -310.5 -121.5t-175.5 -321.5l-98 -565h-41l215 1219h-164l7 34h163l31 181h41l-31 -181h369l-6 -34h-369l-82 -459q71 138 193 211t262 73z" />
    <glyph glyph-name="uni045C" unicode="&#x45c;" horiz-adv-x="944" 
d="M778 1413l-211 -246h-39l205 246h45zM963 1024l-691 -496l521 -528h-54l-512 520l-92 -520h-41l180 1024h41l-84 -479l668 479h64z" />
    <glyph glyph-name="uni045E" unicode="&#x45e;" horiz-adv-x="1044" 
d="M874 1264l-6 -33h-491l6 33h491zM1049 1024h45l-643 -1118q-89 -155 -206.5 -240.5t-242.5 -75.5l6 37q107 -9 217 71t189 220l18 31l-301 1075h39l289 -1026z" />
    <glyph glyph-name="uni045F" unicode="&#x45f;" 
d="M1053 1024h41l-181 -1024h-389l-49 -274h-41l49 274h-389l180 1024h41l-174 -987h738z" />
    <glyph glyph-name="uni0490" unicode="&#x490;" horiz-adv-x="1024" 
d="M1128 1679h41l-51 -282h-717l-245 -1397h-41l252 1434h716z" />
    <glyph glyph-name="uni0491" unicode="&#x491;" horiz-adv-x="819" 
d="M885 1237h41l-43 -250h-574l-174 -987h-41l180 1024h574z" />
    <glyph glyph-name="Wgrave" unicode="&#x1e80;" horiz-adv-x="2007" 
d="M1243 1577l-123 246h-41l131 -246h33zM408 0l-164 1434h39l157 -1385l699 1385h49l213 -1385l643 1385h43l-668 -1434h-49l-213 1384l-700 -1384h-49z" />
    <glyph glyph-name="wgrave" unicode="&#x1e81;" horiz-adv-x="1576" 
d="M862 1167h-33l-131 246h41zM1540 1024h45l-516 -1024h-45l-156 969l-495 -969h-45l-156 1024h39l147 -969l496 969h45l154 -971z" />
    <glyph glyph-name="Wacute" unicode="&#x1e82;" horiz-adv-x="2007" 
d="M1141 1577h39l211 246h-45zM408 0l-164 1434h39l157 -1385l699 1385h49l213 -1385l643 1385h43l-668 -1434h-49l-213 1384l-700 -1384h-49z" />
    <glyph glyph-name="wacute" unicode="&#x1e83;" horiz-adv-x="1576" 
d="M1010 1413l-211 -246h-39l205 246h45zM1540 1024h45l-516 -1024h-45l-156 969l-495 -969h-45l-156 1024h39l147 -969l496 969h45l154 -971z" />
    <glyph glyph-name="Wdieresis" unicode="&#x1e84;" horiz-adv-x="2007" 
d="M1030 1597q-17 0 -27.5 12t-7.5 29t17.5 29t31.5 12t26.5 -12t6.5 -29t-16.5 -29t-30.5 -12zM1358 1597q-17 0 -27.5 12t-7.5 29t17.5 29t31.5 12t26.5 -12t6.5 -29t-16.5 -29t-30.5 -12zM408 0l-164 1434h39l157 -1385l699 1385h49l213 -1385l643 1385h43l-668 -1434
h-49l-213 1384l-700 -1384h-49z" />
    <glyph glyph-name="wdieresis" unicode="&#x1e85;" horiz-adv-x="1576" 
d="M649 1188q-17 0 -27.5 12t-7.5 29t18 29t32 12t26 -12t6 -29t-16.5 -29t-30.5 -12zM977 1188q-17 0 -27.5 12t-7.5 29t17.5 29t31.5 12t26.5 -12t6.5 -29t-16.5 -29t-30.5 -12zM1540 1024h45l-516 -1024h-45l-156 969l-495 -969h-45l-156 1024h39l147 -969l496 969h45
l154 -971z" />
    <glyph glyph-name="Ygrave" unicode="&#x1ef2;" horiz-adv-x="1146" 
d="M813 1577h-33l-131 246h41zM1268 1434l-645 -760l-119 -674h-41l119 676l-379 758h43l360 -725l615 725h47z" />
    <glyph glyph-name="ygrave" unicode="&#x1ef3;" horiz-adv-x="1044" 
d="M664 1167h-33l-131 246h41zM1049 1024h45l-643 -1118q-89 -155 -206.5 -240.5t-242.5 -75.5l6 37q107 -9 217 71t189 220l18 31l-301 1075h39l289 -1026z" />
    <glyph glyph-name="endash" unicode="&#x2013;" horiz-adv-x="1427" 
d="M223 614l6 37h1018l-6 -37h-1018z" />
    <glyph glyph-name="emdash" unicode="&#x2014;" horiz-adv-x="1632" 
d="M223 614l6 37h1223l-6 -37h-1223z" />
    <glyph glyph-name="quoteleft" unicode="&#x2018;" horiz-adv-x="389" 
d="M231 1075l148 359h39l-131 -359h-56z" />
    <glyph glyph-name="quoteright" unicode="&#x2019;" horiz-adv-x="389" 
d="M418 1434l-148 -359h-39l131 359h56z" />
    <glyph glyph-name="quotesinglbase" unicode="&#x201a;" horiz-adv-x="389" 
d="M178 72l-147 -359h-39l131 359h55z" />
    <glyph glyph-name="quotedblleft" unicode="&#x201c;" horiz-adv-x="593" 
d="M231 1075l148 359h39l-131 -359h-56zM436 1075l148 359h39l-131 -359h-56z" />
    <glyph glyph-name="quotedblright" unicode="&#x201d;" horiz-adv-x="593" 
d="M418 1434l-148 -359h-39l131 359h56zM623 1434l-148 -359h-39l131 359h56z" />
    <glyph glyph-name="quotedblbase" unicode="&#x201e;" horiz-adv-x="593" 
d="M178 72l-147 -359h-39l131 359h55zM383 72l-147 -359h-39l131 359h55z" />
    <glyph glyph-name="dagger" unicode="&#x2020;" horiz-adv-x="942" 
d="M893 1049l-6 -37h-307l-179 -1012h-41l179 1012h-308l7 37h307l67 385h41l-67 -385h307z" />
    <glyph glyph-name="daggerdbl" unicode="&#x2021;" horiz-adv-x="942" 
d="M887 1012h-307l-105 -590h307l-6 -37h-307l-68 -385h-41l68 385h-307l6 37h307l105 590h-308l7 37h307l67 385h41l-67 -385h307z" />
    <glyph glyph-name="bullet" unicode="&#x2022;" horiz-adv-x="493" 
d="M262 594q-52 0 -81.5 38t-20.5 91q9 51 50.5 84t94.5 33q51 0 80.5 -37t20.5 -88q-9 -52 -50.5 -86.5t-93.5 -34.5z" />
    <glyph glyph-name="ellipsis" unicode="&#x2026;" horiz-adv-x="1146" 
d="M90 -20q-22 0 -34 15.5t-7 37.5q4 23 21 36t39 13t34 -15.5t7 -37.5q-4 -23 -21 -36t-39 -13zM479 -20q-22 0 -34 15.5t-7 37.5q4 23 21 36t39 13t34 -15.5t7 -37.5q-4 -23 -21 -36t-39 -13zM868 -20q-22 0 -34 15.5t-7 37.5q4 23 21 36t39 13t34 -15.5t7 -37.5
q-4 -23 -21 -36t-39 -13z" />
    <glyph glyph-name="perthousand" unicode="&#x2030;" horiz-adv-x="2250" 
d="M518 848q-133 0 -209 89.5t-53 217.5q23 129 125.5 214t239.5 85q133 0 209 -89.5t53 -217.5q-23 -129 -125.5 -214t-239.5 -85zM522 885q119 0 209.5 75.5t110.5 190.5q20 114 -44.5 190t-181.5 76t-208 -76t-111 -190t44 -190t181 -76zM168 162l1192 1128l37 -18
l-1192 -1129zM944 -20q-133 0 -209 89.5t-53 217.5q23 129 125.5 214t239.5 85q133 0 209 -89.5t53 -217.5q-23 -129 -125.5 -214t-239.5 -85zM1702 -20q-133 0 -209 89.5t-53 217.5q24 129 125.5 214t238.5 85q133 0 209 -89.5t53 -217.5q-24 -129 -125.5 -214t-238.5 -85z
M948 16q118 0 209 75.5t111 191.5q20 114 -44.5 190t-181.5 76t-208 -76t-111 -190t44 -190.5t181 -76.5zM1706 16q118 0 208.5 75.5t110.5 191.5q20 114 -44 190t-181 76t-208 -76t-111 -190t44 -190.5t181 -76.5z" />
    <glyph glyph-name="guilsinglleft" unicode="&#x2039;" horiz-adv-x="663" 
d="M539 961l-269 -332l146 -324h-43l-148 328l264 328h50z" />
    <glyph glyph-name="guilsinglright" unicode="&#x203a;" horiz-adv-x="665" 
d="M334 961l147 -328l-264 -328h-49l268 332l-145 324h43z" />
    <glyph glyph-name="fraction" unicode="&#x2044;" horiz-adv-x="491" 
d="M-248 0h-47l1106 1434h47z" />
    <glyph glyph-name="Euro" unicode="&#x20ac;" horiz-adv-x="1269" 
d="M930 1454q140 0 235.5 -72t134.5 -202l-34 -17q-34 122 -121 188t-217 66q-192 0 -343 -142.5t-227 -397.5h607l-7 -37h-610q-11 -44 -26 -123q-10 -53 -17 -123h610l-6 -37h-606q-14 -255 85.5 -398t291.5 -143q131 0 242 67t186 191l35 -18q-80 -132 -201.5 -204
t-267.5 -72q-210 0 -318 155.5t-94 421.5h-192l6 37h188q7 75 17 127q14 74 26 119h-188l6 37h192q78 269 238.5 423t374.5 154z" />
    <glyph glyph-name="uni20BD" unicode="&#x20bd;" horiz-adv-x="1126" 
d="M797 1434q107 0 192 -57t124.5 -154t19.5 -207q-29 -169 -168 -285.5t-312 -116.5h-409l-45 -249h573l-6 -37h-573l-58 -328h-41l58 328h-185l6 37h185l45 249h-185l7 37h184l137 783h451zM1094 1024q28 154 -61.5 263.5t-241.5 109.5h-410l-131 -746h409
q155 0 282 109.5t153 263.5z" />
    <glyph glyph-name="uni2116" unicode="&#x2116;" horiz-adv-x="2101" 
d="M1769 881q-121 0 -191 85.5t-50 204.5q22 120 119.5 201.5t224.5 81.5q124 0 194 -86t48 -205q-21 -121 -116.5 -201.5t-228.5 -80.5zM115 0l252 1434h41l700 -1366l242 1366h41l-252 -1434h-41l-701 1366l-241 -1366h-41zM1778 918q107 0 191.5 71t103.5 178
q19 106 -41 178t-166 72t-192 -72.5t-105 -177.5t42 -177t167 -72zM1456 643l8 37h545l-8 -37h-545z" />
    <glyph glyph-name="trademark" unicode="&#x2122;" horiz-adv-x="1034" 
d="M596 1434l-6 -39h-127l-66 -371h-41l66 371h-123l6 39h291zM1053 1434l-72 -410h-41l59 336l-192 -242h-8l-107 244l-59 -338h-41l72 410h41l106 -250l197 250h45z" />
    <glyph glyph-name="estimated" unicode="&#x212e;" horiz-adv-x="1761" 
d="M1047 1454q217 0 374 -99t223.5 -267t30.5 -371q-6 -31 -37 -31h-1146q-31 0 -37 -31l-68 -393q-5 -22 6 -39q140 -182 447 -182q294 0 512 199q18 18 39 18h71q21 0 25.5 -12t-12.5 -27q-267 -239 -648 -239q-177 0 -317.5 61t-224.5 164.5t-117 241t-6 290.5
q27 152 104.5 284t191.5 227.5t266.5 150.5t322.5 55zM1450 1176q3 22 -8 38q-138 179 -406 179q-264 0 -469 -183q-17 -17 -20 -39l-70 -393q-6 -30 25 -30h839q31 0 37 30z" />
    <glyph glyph-name="oneeighth" unicode="&#x215b;" horiz-adv-x="1720" 
d="M449 1380v-2l-259 -88l-6 37l295 107h21l-146 -820h-41zM1313 1434h47l-1106 -1434h-47zM1630 616q-12 -66 -60 -114.5t-118 -73.5q72 -27 108 -86t23 -139q-20 -106 -105.5 -167t-211.5 -61q-123 0 -193.5 66t-50.5 170q13 81 70 138t141 81q-61 26 -93 77t-20 118
q20 103 102 161t191 58q105 0 170.5 -62.5t46.5 -165.5zM1346 446q86 0 158 48.5t85 126.5q17 87 -36 136.5t-144 49.5q-92 0 -161.5 -49t-86.5 -137q-13 -79 42.5 -127t142.5 -48zM1542 207q15 92 -42.5 147.5t-160.5 55.5q-105 0 -183 -55.5t-93 -147.5q-17 -89 41 -142
t166 -53q105 0 180 52.5t92 142.5z" />
    <glyph glyph-name="threeeighths" unicode="&#x215c;" horiz-adv-x="1921" 
d="M670 840q-20 -109 -101 -179.5t-213 -70.5q-198 0 -241 151l37 19q32 -133 206 -133q114 0 185.5 62.5t87.5 154.5q15 93 -34 155t-163 62h-4l-14 26l274 310h-440l6 37h487l-6 -37l-268 -301q111 -9 164 -82t37 -174zM1513 1434h48l-1106 -1434h-47zM1831 616
q-12 -66 -60 -114.5t-118 -73.5q72 -27 108 -86t23 -139q-20 -106 -106 -167t-212 -61q-123 0 -193 66t-50 170q13 81 70 138t141 81q-61 26 -93 77t-20 118q20 103 102 161t191 58q105 0 170.5 -62.5t46.5 -165.5zM1546 446q86 0 158.5 48.5t85.5 126.5q17 87 -36 136.5
t-144 49.5q-92 0 -161.5 -49t-86.5 -137q-13 -79 42 -127t142 -48zM1743 207q15 92 -42.5 147.5t-160.5 55.5q-105 0 -183 -55.5t-93 -147.5q-17 -89 40.5 -142t165.5 -53q106 0 181 52.5t92 142.5z" />
    <glyph glyph-name="fiveeighths" unicode="&#x215d;" horiz-adv-x="1908" 
d="M664 840q-20 -111 -106 -180.5t-208 -69.5q-189 0 -237 145l34 19q15 -61 67.5 -94t137.5 -33q104 0 179 58.5t94 158.5q17 100 -38 158.5t-159 58.5h-225l96 373h434l-6 -37h-397l-80 -299h184q118 0 183.5 -73.5t46.5 -184.5zM1501 1434h47l-1106 -1434h-47zM1819 616
q-11 -66 -60 -114.5t-119 -73.5q73 -27 109 -86t23 -139q-20 -106 -106 -167t-212 -61q-123 0 -193.5 66t-50.5 170q13 81 70 138t141 81q-61 26 -92.5 77t-19.5 118q20 103 102 161t191 58q105 0 170.5 -62.5t46.5 -165.5zM1534 446q86 0 158.5 48.5t85.5 126.5
q17 87 -36.5 136.5t-144.5 49.5q-92 0 -161 -49t-86 -137q-13 -79 42 -127t142 -48zM1731 207q15 92 -42.5 147.5t-160.5 55.5q-105 0 -183.5 -55.5t-93.5 -147.5q-17 -89 41 -142t166 -53q106 0 181 52.5t92 142.5z" />
    <glyph glyph-name="seveneighths" unicode="&#x215e;" horiz-adv-x="1906" 
d="M768 1434l-6 -33l-481 -787h-45l479 783h-498l6 37h545zM1499 1434h47l-1106 -1434h-47zM1817 616q-11 -66 -60 -114.5t-119 -73.5q72 -27 108 -86t23 -139q-20 -106 -105.5 -167t-211.5 -61q-123 0 -193.5 66t-50.5 170q13 81 70 138t141 81q-61 26 -92.5 77t-19.5 118
q20 104 101.5 161.5t190.5 57.5q105 0 171 -62.5t47 -165.5zM1532 446q86 0 158.5 48.5t85.5 126.5q17 87 -36.5 136.5t-144.5 49.5q-92 0 -161 -49t-86 -137q-13 -79 42 -127t142 -48zM1729 207q15 92 -42.5 147.5t-160.5 55.5q-105 0 -183.5 -55.5t-93.5 -147.5
q-17 -89 41 -142t166 -53q106 0 181 52.5t92 142.5z" />
    <glyph glyph-name="arrowleft" unicode="&#x2190;" horiz-adv-x="1720" 
d="M1616 735l-6 -37h-1364l489 -596h-49l-506 615l723 614h58l-701 -596h1356z" />
    <glyph glyph-name="arrowup" unicode="&#x2191;" horiz-adv-x="1515" 
d="M1425 819l-8 -51l-489 594l-240 -1362h-41l240 1354l-701 -594l11 59l723 615z" />
    <glyph glyph-name="arrowright" unicode="&#x2192;" horiz-adv-x="1720" 
d="M1108 1331l506 -614l-723 -615h-57l700 596h-1358l6 37h1366l-489 596h49z" />
    <glyph glyph-name="arrowdown" unicode="&#x2193;" horiz-adv-x="1515" 
d="M702 80l699 592l-10 -58l-723 -614l-506 614l8 48l489 -594l240 1366h41z" />
    <glyph glyph-name="arrowboth" unicode="&#x2194;" horiz-adv-x="2088" 
d="M1577 1208l405 -491l-579 -492h-57l557 473h-1657l387 -473h-49l-404 492l578 491h57l-555 -473h1657l-389 473h49z" />
    <glyph glyph-name="arrowupdn" unicode="&#x2195;" horiz-adv-x="1310" 
d="M1245 1075l-385 467l-299 -1651l557 476l-10 -60l-578 -491l-401 491l8 53l383 -469l299 1651l-555 -475l10 59l574 492l405 -492z" />
    <glyph glyph-name="uni2196" unicode="&#x2196;" horiz-adv-x="1314" 
d="M1165 1163h-843l794 -960l-33 -27l-790 963l-150 -844l-30 39l153 868h869z" />
    <glyph glyph-name="uni2197" unicode="&#x2197;" horiz-adv-x="1314" 
d="M426 1202h866l-153 -868l-47 -39l147 840l-1126 -963l-25 31l1129 960h-838z" />
    <glyph glyph-name="uni2198" unicode="&#x2198;" horiz-adv-x="1314" 
d="M1235 1090l31 -39l-152 -869h-868l-33 39h844l-795 963l31 26l792 -964z" />
    <glyph glyph-name="uni2199" unicode="&#x2199;" horiz-adv-x="1314" 
d="M1288 1178l-1128 -957h839l-45 -39h-868l152 869l47 39l-148 -840l1125 958z" />
    <glyph glyph-name="partialdiff" unicode="&#x2202;" 
d="M649 1454q115 0 208.5 -52.5t152.5 -150t79 -235t-10 -307.5q-63 -350 -236 -539.5t-401 -189.5q-184 0 -276.5 124.5t-59.5 309.5q37 210 182 338.5t355 128.5q241 0 401 -127q28 190 -10.5 340.5t-140 236.5t-250.5 86q-145 0 -258 -69l8 45q113 61 256 61zM446 16
q213 0 372.5 186.5t219.5 508.5q-170 133 -399 133q-189 0 -324 -118t-170 -316q-31 -175 53 -284.5t248 -109.5z" />
    <glyph glyph-name="emptyset" unicode="&#x2205;" horiz-adv-x="1728" 
d="M1688 1475l-205 -205q101 -103 143.5 -248.5t13.5 -310.5q-27 -151 -108 -286.5t-196 -233t-262 -154.5t-300 -57q-255 0 -430 157l-178 -178h-53l204 203q-102 105 -144.5 251t-12.5 310q27 151 108 286.5t196 233t262 154.5t300 57q251 0 430 -158l178 179h54zM201 717
q-27 -156 11 -293t132 -234l1083 1080q-160 147 -403 147q-143 0 -282 -55t-249.5 -148.5t-188.5 -223.5t-103 -273zM1599 717q27 155 -11.5 292t-131.5 234l-1085 -1079q164 -148 405 -148q190 0 367.5 93.5t299.5 255t156 352.5z" />
    <glyph glyph-name="product" unicode="&#x220f;" horiz-adv-x="1310" 
d="M43 -410l324 1844h901l-324 -1844h-41l318 1807h-820l-317 -1807h-41z" />
    <glyph glyph-name="summation" unicode="&#x2211;" horiz-adv-x="1110" 
d="M-18 -410l6 41l731 908l-393 866l6 29h827l-6 -37h-786l395 -867l-729 -903h839l-6 -37h-884z" />
    <glyph glyph-name="minus" unicode="&#x2212;" horiz-adv-x="1105" 
d="M176 698l6 37h819l-6 -37h-819z" />
    <glyph glyph-name="radical" unicode="&#x221a;" horiz-adv-x="1288" 
d="M553 0l-242 578h-155l6 36h172l241 -573l805 1597h45l-827 -1638h-45z" />
    <glyph glyph-name="infinity" unicode="&#x221e;" horiz-adv-x="1677" 
d="M1321 1024q127 0 199.5 -87t48.5 -224q-24 -138 -121.5 -220.5t-226.5 -82.5q-45 0 -85 11.5t-73.5 35t-59.5 46.5t-52.5 60.5t-41.5 60.5t-37 62q-45 -49 -69.5 -75t-75 -71t-91 -68.5t-96.5 -42.5t-112 -19q-130 0 -201 87t-47 224q24 138 121.5 220.5t226.5 82.5
q53 0 102 -19t82 -43t69 -67.5t54 -71.5t46 -75q35 39 48.5 53.5t50 51.5t58.5 54t60.5 44t69.5 39.5t72 23t81 10.5zM430 446q49 0 98.5 17t87.5 39.5t84 63t73 68t69 72.5q8 9 12 13q-28 50 -44 75.5t-49.5 68.5t-63.5 65.5t-75 40.5t-96 18q-115 0 -199 -75t-106 -195
t36.5 -195.5t172.5 -75.5zM1528 717q22 120 -36 195t-173 75q-42 0 -82.5 -10.5t-81 -35t-69.5 -44.5t-69.5 -60t-59 -59.5t-58.5 -62.5q22 -40 35.5 -62.5t38.5 -59.5t48 -58.5t54.5 -44.5t68.5 -33.5t79 -10.5q115 0 199 75t106 196z" />
    <glyph glyph-name="integral" unicode="&#x222b;" horiz-adv-x="882" 
d="M-164 -418l8 41q96 -46 185.5 8.5t136.5 188.5l485 1392q53 154 159 213.5t237 14.5l-7 -39q-114 44 -207.5 -8.5t-140.5 -188.5l-485 -1392q-52 -150 -155.5 -212t-215.5 -18z" />
    <glyph glyph-name="approxequal" unicode="&#x2248;" horiz-adv-x="1171" 
d="M641 864q-52 41 -100.5 61.5t-85.5 22t-71 -12t-57.5 -32t-45 -46t-33 -47t-21.5 -40.5l-34 16q14 33 34.5 66.5t63 73t92 56t123 -1.5t153.5 -83q51 -42 99.5 -62.5t86 -21.5t71.5 12t58 32t45.5 46t33 47t20.5 41l37 -16q-9 -22 -22 -44.5t-36.5 -52.5t-51 -53
t-66.5 -38t-81.5 -15t-97.5 22.5t-114 69.5zM170 442l-37 17q10 22 23 44.5t37 53t51 53t66 38t81.5 15t97.5 -23.5t113 -70q71 -58 135.5 -74.5t108 -3t81.5 48t56.5 64t32.5 60.5l37 -17q-9 -22 -22 -44.5t-36.5 -52t-50.5 -52t-66 -38t-81.5 -15t-98 23t-114.5 68.5
q-52 41 -101 61.5t-86 21.5t-71.5 -12t-58 -32t-44.5 -46t-32.5 -47t-20.5 -41z" />
    <glyph glyph-name="notequal" unicode="&#x2260;" horiz-adv-x="1085" 
d="M1012 903h-281l-237 -373h452l-8 -36h-469l-217 -340h-45l217 340h-285l8 36h302l237 373h-473l6 37h492l217 340h45l-217 -340h262z" />
    <glyph glyph-name="lessequal" unicode="&#x2264;" horiz-adv-x="1105" 
d="M1079 1188l-6 -43l-827 -311l717 -312l-7 -39l-759 334l8 37zM96 246l6 37h818l-7 -37h-817z" />
    <glyph glyph-name="greaterequal" unicode="&#x2265;" horiz-adv-x="1105" 
d="M262 1188l760 -334l-8 -37l-875 -334l6 43l828 312l-717 311zM96 246l6 37h818l-7 -37h-817z" />
    <glyph glyph-name="lozenge" unicode="&#x25ca;" horiz-adv-x="1093" 
d="M436 0l-256 717l508 717h41l258 -717l-510 -717h-41zM461 47l481 676l-237 663l-480 -675z" />
    <glyph glyph-name="i.loclTRK" horiz-adv-x="409" 
d="M324 1188q-26 0 -41 17.5t-11 43.5q5 26 25.5 44t46.5 18t41 -18t10 -44t-25 -43.5t-46 -17.5zM94 0l180 1024h41l-180 -1024h-41z" />
    <glyph glyph-name="f_f_j" horiz-adv-x="1572" 
d="M1327 1438q-170 0 -261.5 -77.5t-119.5 -234.5l-18 -102h551l-213 -1208q-22 -127 -106.5 -194t-221.5 -52l6 37q122 -13 192 42.5t89 166.5l207 1171h-510l-174 -987h-41l174 987h-510l-174 -987h-41l174 987h-185l7 37h184l14 82q32 180 138.5 271.5t289.5 76.5l-6 -37
q-320 25 -381 -311l-14 -82h510l18 102q29 176 134 262.5t294 86.5q101 0 201 -21l-6 -37q-100 21 -201 21z" />
    <glyph glyph-name="f_j" horiz-adv-x="1021" 
d="M772 1417q-170 0 -261.5 -77t-119.5 -234l-14 -82h551l-213 -1208q-22 -127 -106.5 -194t-221.5 -52l6 37q122 -13 192 42.5t89 166.5l207 1171h-510l-174 -987h-41l174 987h-185l7 37h184l14 82q31 176 135 262t293 86q106 0 201 -20l-6 -37q-95 20 -201 20z" />
    <glyph glyph-name="uni0414.loclBGR" horiz-adv-x="1454" 
d="M1309 37l-6 -37l-50 -274h-41l50 274h-1250l-49 -274h-41l55 311h129l758 1397h51l267 -1397h127zM152 37h989l-256 1354z" />
    <glyph glyph-name="uni041B.loclBGR" horiz-adv-x="1224" 
d="M-49 0l799 1434h51l293 -1434h-41l-283 1389l-774 -1389h-45z" />
    <glyph glyph-name="uni0424.loclBGR" horiz-adv-x="1771" 
d="M1071 1454q157 -4 284 -59t209 -151t115 -234t4 -301q-38 -218 -162 -383t-307.5 -253.5t-402.5 -92.5l-33 -185h-41l33 185q-157 4 -283.5 59t-208.5 151t-114.5 234t-3.5 301q38 218 162.5 383t307.5 253.5t400 92.5l33 184h41zM201 717q-35 -199 22 -356.5t200.5 -249
t352.5 -95.5l248 1401q-324 -6 -546.5 -200.5t-276.5 -499.5zM1642 717q35 199 -22.5 356t-201.5 248.5t-353 95.5l-248 -1401q324 6 548 201t277 500z" />
    <glyph glyph-name="uni0414.ss01" horiz-adv-x="1413" 
d="M1339 1434l-245 -1397h143l-6 -37h-1270l6 37h109q78 69 146.5 198.5t103.5 321.5l153 877h860zM367 557q-62 -349 -236 -520h922l239 1360h-778z" />
    <glyph glyph-name="uni0426.ss01" horiz-adv-x="1413" 
d="M1104 37h143l-6 -37h-1126l252 1434h41l-246 -1397h901l246 1397h41z" />
    <glyph glyph-name="uni0429.ss01" horiz-adv-x="2007" 
d="M1698 37h143l-6 -37h-1720l252 1434h41l-246 -1397h727l246 1397h41l-246 -1397h727l246 1397h41z" />
    <glyph glyph-name="uni0414.loclBGR.ss01" horiz-adv-x="1454" 
d="M1182 37h127l-6 -37h-1332l6 37h129l758 1397h51zM152 37h989l-256 1354z" />
    <glyph glyph-name="uni0432.loclBGR" horiz-adv-x="1189" 
d="M795 821q158 -28 230.5 -142t41.5 -282q-35 -202 -169.5 -309.5t-348.5 -107.5q-209 0 -310.5 131t-60.5 360l92 524q39 223 160.5 341t319.5 118q153 0 239.5 -95t65.5 -220q-16 -89 -83.5 -174.5t-176.5 -143.5zM743 1417q-174 0 -285.5 -109t-146.5 -313l-41 -231
l293 53q92 15 172 12q119 58 191 143t88 173q18 108 -56.5 190t-214.5 82zM1026 406q38 209 -87 314.5t-382 59.5l-293 -53l-45 -256q-38 -214 52 -334.5t284 -120.5q191 0 315 102t156 288z" />
    <glyph glyph-name="uni0433.loclBGR" horiz-adv-x="952" 
d="M379 -20q-159 0 -245 82.5t-64 203.5q13 76 58 128t107 77.5t134.5 42.5t144.5 32t132.5 36.5t104 65.5t54.5 110q19 108 -51.5 179t-194.5 71q-117 0 -204.5 -52t-135.5 -139l-33 21q54 94 151 150t228 56q139 0 220 -83.5t61 -202.5q-12 -74 -56.5 -124.5t-106 -75
t-133.5 -41t-144.5 -32t-133.5 -38t-105 -68t-56 -113.5q-20 -108 58 -179t216 -71q137 0 234 54.5t145 152.5l33 -18q-117 -225 -418 -225z" />
    <glyph glyph-name="uni0434.loclBGR" horiz-adv-x="1376" 
d="M1241 1024h41l-170 -961q-40 -230 -194.5 -361.5t-393.5 -131.5q-177 0 -291 69t-147 173l35 18q28 -94 134.5 -158.5t270.5 -64.5q218 0 362.5 120.5t182.5 335.5l39 224q-77 -141 -215.5 -224t-300.5 -83q-153 0 -269 75.5t-169 204.5t-29 279q35 218 206 361.5
t388 143.5q181 0 305 -103.5t154 -268.5zM596 16q198 0 354.5 131.5t194.5 329.5l2 17q23 140 -25.5 258.5t-155.5 187t-247 68.5q-201 0 -359 -136t-192 -340q-23 -140 25.5 -259t155.5 -188t247 -69z" />
    <glyph glyph-name="uni0436.loclBGR" horiz-adv-x="1310" 
d="M-29 0l633 537l-424 487h47l418 -477l156 887h41l-156 -889l584 479h57l-606 -496l438 -528h-47l-430 518l-92 -518h-41l90 518l-610 -518h-58z" />
    <glyph glyph-name="uni0438.loclBGR" horiz-adv-x="1177" 
d="M1042 1024h41l-180 -1024h-41l47 262q-71 -137 -193 -209.5t-261 -72.5q-173 0 -265 108.5t-61 284.5l115 651h41l-115 -651q-27 -155 50 -256t239 -101q174 0 308 120.5t175 318.5z" />
    <glyph glyph-name="uni0439.loclBGR" horiz-adv-x="1177" 
d="M956 1264l-6 -33h-491l6 33h491zM1042 1024h41l-180 -1024h-41l47 262q-71 -137 -193 -209.5t-261 -72.5q-173 0 -265 108.5t-61 284.5l115 651h41l-115 -651q-27 -155 50 -256t239 -101q174 0 308 120.5t175 318.5z" />
    <glyph glyph-name="uni043A.loclBGR" horiz-adv-x="944" 
d="M963 1024l-691 -496l521 -528h-54l-512 520l-92 -520h-41l252 1434h41l-156 -891l668 481h64z" />
    <glyph glyph-name="uni043B.loclBGR" horiz-adv-x="1007" 
d="M877 0h-39l-248 979l-594 -979h-45l620 1024h45z" />
    <glyph glyph-name="uni043F.loclBGR" horiz-adv-x="1177" 
d="M723 1044q173 0 265 -108.5t61 -284.5l-115 -651h-41l115 651q27 155 -50 256t-239 101q-174 0 -308 -120.5t-175 -318.5l-101 -569h-41l180 1024h41l-47 -262q71 137 193.5 209.5t261.5 72.5z" />
    <glyph glyph-name="uni0442.loclBGR" horiz-adv-x="1792" 
d="M1380 1044q71 0 129 -22.5t100 -68.5t56.5 -116.5t-0.5 -166.5l-117 -670h-41l117 670q28 161 -41.5 249.5t-208.5 88.5q-155 0 -272 -107.5t-156 -302.5l-104 -598h-41l117 670q29 162 -39 250t-207 88q-156 0 -273.5 -107.5t-156.5 -298.5l-107 -602h-41l180 1024h41
l-41 -233q44 86 112.5 144.5t140.5 83.5t149 25q125 0 206 -68.5t85 -201.5q66 134 177 202t236 68z" />
    <glyph glyph-name="uni0446.loclBGR" horiz-adv-x="1218" 
d="M928 143q-9 -52 13.5 -79t70.5 -27h41l-58 -332h-41l52 295q-62 0 -95.5 39.5t-23.5 103.5l20 117q-70 -135 -192 -207.5t-260 -72.5q-173 0 -265 108.5t-61 284.5l115 651h41l-115 -651q-27 -155 50 -256t239 -101q172 0 304.5 116t176.5 310l102 582h41z" />
    <glyph glyph-name="uni0448.loclBGR" horiz-adv-x="1792" 
d="M1657 1024h41l-180 -1024h-41l41 233q-44 -86 -112.5 -144.5t-140.5 -83.5t-149 -25q-125 0 -206 68.5t-85 201.5q-66 -134 -177 -202t-236 -68q-71 0 -129 22.5t-100 68.5t-56.5 116.5t0.5 166.5l117 670h41l-117 -670q-28 -161 41.5 -249.5t208.5 -88.5
q155 0 272 107.5t156 302.5l104 598h41l-117 -670q-29 -162 39 -250t207 -88q156 0 273.5 107.5t156.5 298.5z" />
    <glyph glyph-name="uni0449.loclBGR" horiz-adv-x="1832" 
d="M1542 143q-9 -52 13.5 -79t70.5 -27h41l-55 -311h-41l49 274q-61 0 -95 39.5t-24 103.5l15 78q-67 -122 -174.5 -181.5t-225.5 -59.5q-125 0 -206 68.5t-85 201.5q-66 -134 -177 -202t-236 -68q-71 0 -129 22.5t-100 68.5t-56.5 116.5t0.5 166.5l117 670h41l-117 -670
q-28 -161 41.5 -249.5t208.5 -88.5q155 0 272 107.5t156 302.5l104 598h41l-117 -670q-29 -162 39 -250t207 -88q155 0 272.5 105t157.5 297l107 606h41z" />
    <glyph glyph-name="uni044C.loclBGR" horiz-adv-x="993" 
d="M557 655q166 0 256 -98.5t64 -247.5q-27 -149 -140 -239t-282 -90q-186 0 -273.5 96t-60.5 252l123 696h41l-66 -369h338zM836 317q23 132 -55.5 216.5t-229.5 84.5h-338l-51 -290q-26 -141 50 -226.5t243 -85.5q150 0 253.5 84t127.5 217z" />
    <glyph glyph-name="uni044A.loclBGR" horiz-adv-x="1167" 
d="M731 655q166 0 256 -98.5t64 -247.5q-27 -149 -140 -239t-282 -90q-186 0 -273.5 96t-60.5 252l117 659h-328l6 37h369l-66 -369h338zM1010 317q23 132 -55.5 216.5t-229.5 84.5h-338l-51 -290q-26 -141 50 -226.5t243 -85.5q150 0 253.5 84t127.5 217z" />
    <glyph glyph-name="uni044E.loclBGR" horiz-adv-x="1658" 
d="M1114 1044q145 0 255.5 -71.5t160.5 -196t24 -272.5q-40 -225 -219.5 -374.5t-404.5 -149.5q-106 0 -195.5 40t-149 108.5t-87 163.5t-13.5 202h-264l-86 -494h-41l252 1434h41l-158 -904h263q43 220 221.5 367t400.5 147zM1513 512q24 137 -21.5 251t-146.5 179.5
t-235 65.5q-207 0 -375 -143.5t-205 -352.5q-24 -137 21.5 -251t147 -179.5t235.5 -65.5q207 0 374.5 143.5t204.5 352.5z" />
    <glyph glyph-name="zero.sinf" horiz-adv-x="839" 
d="M272 -352q-154 0 -227 120.5t-39 315.5q34 196 144 314t266 118q154 0 227 -120.5t39 -315.5q-34 -196 -144 -314t-266 -118zM274 -315q137 0 236 107.5t131 289.5t-28.5 289.5t-198.5 107.5q-137 0 -236 -107.5t-131 -289.5t28.5 -289.5t198.5 -107.5z" />
    <glyph glyph-name="one.sinf" horiz-adv-x="481" 
d="M313 492h21l-146 -820h-41l136 766v-2l-258 -88l-7 37z" />
    <glyph glyph-name="two.sinf" horiz-adv-x="708" 
d="M-66 -328l5 31l452 371q57 46 94.5 102.5t44.5 108.5q13 79 -36 136.5t-144 57.5q-83 0 -151.5 -43.5t-100.5 -109.5l-35 18q37 75 114.5 123.5t174.5 48.5q114 0 172 -67.5t45 -165.5q-16 -124 -149 -234l-414 -340h479l-6 -37h-545z" />
    <glyph glyph-name="three.sinf" horiz-adv-x="692" 
d="M575 492l-6 -37l-268 -301q111 -9 164 -82t37 -174q-20 -109 -101 -179.5t-213 -70.5q-198 0 -241 151l37 19q32 -133 206 -133q114 0 185.5 62.5t87.5 154.5q15 93 -34 155t-163 62h-4l-14 26l274 310h-440l6 37h487z" />
    <glyph glyph-name="four.sinf" horiz-adv-x="735" 
d="M565 -106l-6 -37h-127l-33 -185h-41l33 185h-465l6 37l420 598h43l-418 -598h420l43 247h41l-43 -247h127z" />
    <glyph glyph-name="five.sinf" horiz-adv-x="655" 
d="M559 455h-397l-80 -299h184q118 0 183.5 -73.5t46.5 -184.5q-20 -111 -106 -180.5t-208 -69.5q-189 0 -237 145l35 19q32 -127 204 -127q104 0 179 58.5t94 158.5q17 100 -38 158.5t-159 58.5h-225l96 373h434z" />
    <glyph glyph-name="six.sinf" horiz-adv-x="686" 
d="M283 178q117 0 186 -76.5t49 -191.5q-22 -117 -112.5 -189.5t-210.5 -72.5q-119 0 -189 76.5t-49 193.5q14 79 66 143l358 431h49l-285 -342q67 28 138 28zM479 -86q17 101 -41.5 164t-161.5 63q-102 0 -182.5 -63t-97.5 -164q-18 -102 40.5 -165.5t160.5 -63.5
q103 0 183.5 63.5t98.5 165.5z" />
    <glyph glyph-name="seven.sinf" horiz-adv-x="688" 
d="M57 492h545l-6 -33l-481 -787h-45l479 783h-498z" />
    <glyph glyph-name="eight.sinf" horiz-adv-x="727" 
d="M580 289q-12 -66 -60.5 -115t-118.5 -74q72 -27 108 -86t23 -139q-20 -105 -105.5 -166t-211.5 -61q-124 0 -194 65.5t-50 169.5q13 81 70 138t141 81q-61 26 -92.5 77t-19.5 118q20 104 101.5 161.5t190.5 57.5q105 0 171 -62t47 -165zM295 119q86 0 158.5 48t85.5 126
q17 87 -36.5 136.5t-144.5 49.5q-92 0 -161 -49t-86 -137q-13 -79 42 -126.5t142 -47.5zM492 -121q15 92 -42.5 147.5t-160.5 55.5q-105 0 -183.5 -55.5t-93.5 -147.5q-17 -89 41 -141.5t166 -52.5q106 0 181 52t92 142z" />
    <glyph glyph-name="nine.sinf" horiz-adv-x="686" 
d="M340 516q119 0 189 -76.5t49 -193.5q-15 -80 -66 -144l-358 -430h-50l285 342q-67 -28 -137 -28q-117 0 -186.5 76.5t-49.5 191.5q21 117 112.5 189.5t211.5 72.5zM539 250q18 102 -40.5 165.5t-160.5 63.5q-103 0 -184 -63.5t-99 -165.5q-17 -101 41.5 -164t161.5 -63
q102 0 183 63t98 164z" />
    <glyph glyph-name="zero.tf" horiz-adv-x="1167" 
d="M494 -20q-162 0 -266.5 94t-135 258.5t5.5 388.5q59 336 231 534.5t416 198.5q162 0 266.5 -94t135 -258.5t-5.5 -388.5q-59 -336 -231 -534.5t-416 -198.5zM496 16q222 0 384 187.5t220 513.5q57 326 -39 513t-318 187t-384.5 -187t-219.5 -513q-58 -326 38.5 -513.5
t318.5 -187.5z" />
    <glyph glyph-name="one.tf" horiz-adv-x="1167" 
d="M573 41h459l-8 -41h-1022l8 41h522l236 1348l-369 -117l-6 35l393 127h31z" />
    <glyph glyph-name="two.tf" horiz-adv-x="1167" 
d="M33 0l6 37l702 541q149 115 241 223t112 223q31 175 -64 284t-287 109q-141 0 -256.5 -69.5t-185.5 -186.5l-35 21q77 125 206.5 198.5t277.5 73.5q200 0 309.5 -116.5t75.5 -313.5q-15 -84 -70.5 -170.5t-127 -156.5t-169.5 -146l-670 -514h903l-6 -37h-962z" />
    <glyph glyph-name="three.tf" horiz-adv-x="1167" 
d="M1151 1434l-6 -37l-490 -557q207 -9 318.5 -128.5t79.5 -305.5q-34 -194 -190.5 -310t-383.5 -116q-166 0 -277.5 66.5t-148.5 184.5l39 21q29 -108 129.5 -172t259.5 -64q216 0 358.5 111t172.5 283t-72.5 282.5t-318.5 110.5h-13l-12 24l500 570h-811l6 37h860z" />
    <glyph glyph-name="four.tf" horiz-adv-x="1167" 
d="M1059 365l-6 -37h-185l-57 -328h-41l57 328h-798l6 37l753 1069h48l-752 -1069h750l84 475h40l-84 -475h185z" />
    <glyph glyph-name="five.tf" horiz-adv-x="1167" 
d="M1169 1397h-751l-135 -557h358q140 0 242.5 -55t149 -155t24.5 -227q-34 -193 -187.5 -308t-375.5 -115q-167 0 -278 69t-142 189l37 18q27 -109 127 -174.5t258 -65.5q209 0 349.5 111.5t170.5 282.5t-71 282t-310 111h-402l154 631h789z" />
    <glyph glyph-name="six.tf" horiz-adv-x="1167" 
d="M651 922q221 0 340 -134.5t82 -343.5t-196 -336.5t-385 -127.5q-221 0 -339 134t-81 343q30 175 149 297l633 680h49l-528 -572q126 60 276 60zM1032 451q22 122 -13.5 219.5t-131 156t-238.5 58.5q-216 0 -359 -122.5t-177 -311.5q-22 -123 13 -220.5t130.5 -156
t239.5 -58.5q216 0 359 123t177 312z" />
    <glyph glyph-name="seven.tf" horiz-adv-x="1167" 
d="M244 1434h962l-6 -37l-891 -1397h-45l893 1397h-919z" />
    <glyph glyph-name="eight.tf" horiz-adv-x="1167" 
d="M1133 1083q-23 -127 -115.5 -217.5t-231.5 -124.5q148 -35 218 -134.5t45 -241.5q-32 -180 -179 -282.5t-376 -102.5q-226 0 -342 107t-84 286q25 144 129 240t266 128q-126 39 -186 132t-37 219q28 164 165 263t340 99q198 0 307 -104t81 -267zM627 758
q192 0 315.5 93.5t149.5 235.5q24 142 -66.5 236t-282.5 94t-315 -94t-147 -236q-26 -142 64 -235.5t282 -93.5zM1008 369q27 157 -71 254.5t-316 97.5t-351.5 -97.5t-160.5 -254.5q-29 -157 71 -255t316 -98q218 0 350.5 97.5t161.5 255.5z" />
    <glyph glyph-name="nine.tf" horiz-adv-x="1167" 
d="M748 1454q221 0 338.5 -134t80.5 -343q-30 -175 -149 -297l-633 -680h-49l528 571q-124 -59 -276 -59q-221 0 -340 134t-82 343t196.5 337t385.5 128zM1126 983q22 123 -13 220t-130.5 155.5t-239.5 58.5q-216 0 -359 -122.5t-177 -311.5q-22 -122 13.5 -219.5t131 -156
t238.5 -58.5q216 0 359 122.5t177 311.5z" />
    <glyph glyph-name="zero.dnom" horiz-adv-x="839" 
d="M330 -25q-154 0 -227.5 121.5t-39.5 315.5q34 196 144 314t266 118q154 0 227 -120.5t39 -315.5q-34 -196 -143.5 -314.5t-265.5 -118.5zM332 12q137 0 235.5 107.5t130.5 290.5q32 182 -28.5 289.5t-198.5 107.5q-137 0 -236 -107.5t-131 -289.5t29 -290t199 -108z" />
    <glyph glyph-name="one.dnom" horiz-adv-x="501" 
d="M371 819h20l-145 -819h-41l135 766v-2l-258 -88l-6 37z" />
    <glyph glyph-name="two.dnom" horiz-adv-x="710" 
d="M-6 0l4 31l453 370q57 46 94.5 102.5t44.5 108.5q13 79 -36.5 137t-143.5 58q-82 0 -151 -43.5t-101 -110.5l-35 19q37 75 114.5 123.5t174.5 48.5q114 0 172 -68t45 -166q-15 -122 -150 -233l-413 -340h479l-6 -37h-545z" />
    <glyph glyph-name="three.dnom" horiz-adv-x="702" 
d="M635 819l-6 -37l-269 -301q111 -9 164 -82t37 -174q-20 -109 -100.5 -179.5t-212.5 -70.5q-102 0 -162 41t-80 111l37 18q14 -61 65 -97t142 -36q114 0 185 62t87 155q15 93 -33.5 155t-162.5 62h-4l-15 27l275 309h-441l6 37h488z" />
    <glyph glyph-name="four.dnom" horiz-adv-x="735" 
d="M623 221l-7 -37h-127l-32 -184h-41l33 184h-465l6 37l420 598h43l-418 -598h420l43 248h41l-43 -248h127z" />
    <glyph glyph-name="five.dnom" horiz-adv-x="690" 
d="M618 782h-397l-80 -299h185q118 0 183 -73.5t46 -184.5q-20 -111 -105.5 -180.5t-207.5 -69.5q-95 0 -155 39t-83 107l35 18q15 -61 67.5 -94t137.5 -33q104 0 178.5 58.5t93.5 158.5q17 100 -38 158.5t-159 58.5h-225l96 373h435z" />
    <glyph glyph-name="six.dnom" horiz-adv-x="686" 
d="M340 506q117 0 186 -76.5t49 -191.5q-22 -117 -112.5 -190t-210.5 -73q-119 0 -189 77t-49 194q14 79 66 143l358 430h49l-284 -342q69 29 137 29zM537 242q17 101 -41.5 164t-161.5 63q-102 0 -183 -63t-98 -164q-18 -102 40.5 -166t160.5 -64q103 0 184 64t99 166z" />
    <glyph glyph-name="seven.dnom" horiz-adv-x="688" 
d="M115 819h544l-6 -33l-481 -786h-45l479 782h-497z" />
    <glyph glyph-name="eight.dnom" horiz-adv-x="727" 
d="M637 616q-12 -66 -60 -114.5t-118 -73.5q72 -27 108 -86t23 -139q-20 -106 -106 -167t-212 -61q-123 0 -193 66t-50 170q13 81 70 138t141 81q-61 26 -93 77t-20 118q20 103 102 161t191 58q105 0 170.5 -62.5t46.5 -165.5zM352 446q86 0 158.5 48.5t85.5 126.5
q17 87 -36 136.5t-144 49.5q-92 0 -161.5 -49t-86.5 -137q-13 -79 42 -127t142 -48zM549 207q15 92 -42.5 147.5t-160.5 55.5q-105 0 -183 -55.5t-93 -147.5q-17 -89 40.5 -142t165.5 -53q106 0 181 52.5t92 142.5z" />
    <glyph glyph-name="nine.dnom" horiz-adv-x="686" 
d="M397 844q119 0 189 -77t49 -194q-14 -79 -66 -143l-358 -430h-49l284 342q-69 -29 -137 -29q-117 0 -186 77t-49 192q22 117 112.5 189.5t210.5 72.5zM596 578q18 102 -40.5 165.5t-160.5 63.5q-103 0 -183.5 -63.5t-98.5 -165.5q-17 -101 41 -164.5t161 -63.5
q102 0 183 63.5t98 164.5z" />
    <glyph glyph-name="zero.numr" horiz-adv-x="839" 
d="M438 590q-154 0 -227 120.5t-39 315.5q34 196 144 314t266 118q154 0 227 -120.5t39 -315.5q-34 -196 -144 -314t-266 -118zM440 627q137 0 236 107.5t131 289.5t-28.5 289.5t-198.5 107.5q-137 0 -236 -107.5t-131 -289.5t28.5 -289.5t198.5 -107.5z" />
    <glyph glyph-name="one.numr" horiz-adv-x="501" 
d="M479 1434h21l-146 -820h-41l136 766v-2l-259 -88l-6 37z" />
    <glyph glyph-name="two.numr" horiz-adv-x="708" 
d="M100 614l4 31l453 371q57 46 94.5 102.5t44.5 108.5q13 79 -36 136.5t-144 57.5q-83 0 -151.5 -43.5t-100.5 -109.5l-35 18q37 75 114.5 123.5t174.5 48.5q114 0 172 -67.5t45 -165.5q-16 -124 -149 -234l-414 -340h479l-6 -37h-545z" />
    <glyph glyph-name="three.numr" horiz-adv-x="702" 
d="M743 1434l-6 -37l-268 -301q111 -9 164 -82t37 -174q-20 -109 -101 -179.5t-213 -70.5q-198 0 -241 151l37 19q32 -133 206 -133q114 0 185.5 62.5t87.5 154.5q15 93 -34 155t-163 62h-4l-14 26l274 310h-440l6 37h487z" />
    <glyph glyph-name="four.numr" horiz-adv-x="735" 
d="M731 836l-6 -37h-127l-33 -185h-41l33 185h-465l6 37l420 598h43l-418 -598h420l43 247h41l-43 -247h127z" />
    <glyph glyph-name="five.numr" horiz-adv-x="690" 
d="M727 1397h-397l-80 -299h184q118 0 183.5 -73.5t46.5 -184.5q-20 -111 -106 -180.5t-208 -69.5q-189 0 -237 145l34 19q15 -61 67.5 -94t137.5 -33q104 0 179 58.5t94 158.5q17 100 -38 158.5t-159 58.5h-225l96 373h434z" />
    <glyph glyph-name="six.numr" horiz-adv-x="686" 
d="M449 1120q117 0 186 -76.5t49 -191.5q-21 -117 -112.5 -189.5t-211.5 -72.5q-119 0 -188.5 76.5t-48.5 193.5q15 82 65 144l359 430h49l-285 -342q67 28 138 28zM645 856q17 101 -41.5 164t-161.5 63q-102 0 -182.5 -63t-97.5 -164q-18 -102 40 -165.5t160 -63.5
q103 0 184 63.5t99 165.5z" />
    <glyph glyph-name="seven.numr" horiz-adv-x="688" 
d="M223 1434h545l-6 -33l-481 -787h-45l479 783h-498z" />
    <glyph glyph-name="eight.numr" horiz-adv-x="727" 
d="M745 1231q-12 -66 -60.5 -115.5t-117.5 -73.5q72 -27 108 -86t23 -139q-20 -105 -105.5 -166t-211.5 -61q-124 0 -194 65.5t-50 169.5q13 81 70 138t141 81q-61 26 -92.5 77t-19.5 118q20 104 101.5 161.5t190.5 57.5q105 0 170.5 -62t46.5 -165zM461 1061q86 0 158.5 48
t85.5 126q17 87 -36.5 136.5t-144.5 49.5q-92 0 -161.5 -49t-86.5 -137q-13 -79 42.5 -126.5t142.5 -47.5zM657 821q15 92 -42 147.5t-160 55.5q-105 0 -183.5 -55.5t-93.5 -147.5q-17 -89 41 -141.5t166 -52.5q106 0 180.5 52t91.5 142z" />
    <glyph glyph-name="nine.numr" horiz-adv-x="686" 
d="M506 1458q119 0 188.5 -76.5t48.5 -193.5q-15 -82 -65 -144l-359 -430h-49l285 342q-67 -28 -137 -28q-117 0 -186.5 76.5t-49.5 191.5q21 117 112.5 189.5t211.5 72.5zM705 1192q18 102 -40.5 165.5t-160.5 63.5q-103 0 -184 -63.5t-99 -165.5q-17 -101 41.5 -164
t161.5 -63q102 0 183 63t98 164z" />
    <glyph glyph-name="zero.sups" horiz-adv-x="839" 
d="M496 918q-155 0 -228 121t-39 315q34 196 144 314t266 118q154 0 227 -120.5t39 -315.5q-34 -196 -143.5 -314t-265.5 -118zM498 954q137 0 235.5 107.5t130.5 290.5q32 182 -28.5 289.5t-198.5 107.5q-137 0 -236 -107.5t-131 -289.5t29 -290t199 -108z" />
    <glyph glyph-name="one.sups" horiz-adv-x="501" 
d="M537 1761h20l-145 -819h-41l135 766v-2l-258 -88l-6 37z" />
    <glyph glyph-name="two.sups" horiz-adv-x="710" 
d="M160 942l4 31l452 370q57 46 95 102.5t45 108.5q13 79 -36.5 137t-144.5 58q-82 0 -150.5 -43.5t-100.5 -110.5l-35 19q37 75 114.5 123.5t174.5 48.5q114 0 172 -68t45 -166q-15 -122 -150 -233l-414 -340h480l-6 -37h-545z" />
    <glyph glyph-name="three.sups" horiz-adv-x="702" 
d="M801 1761l-6 -37l-269 -301q111 -9 164 -82t37 -174q-20 -109 -100.5 -179t-212.5 -70q-199 0 -242 151l37 18q14 -61 65 -97t142 -36q114 0 185 62t87 155q15 93 -34 155.5t-162 62.5h-5l-14 26l275 309h-441l6 37h488z" />
    <glyph glyph-name="four.sups" horiz-adv-x="735" 
d="M788 1163l-6 -37h-127l-32 -184h-41l32 184h-464l6 37l419 598h43l-417 -598h420l43 248h41l-43 -248h126z" />
    <glyph glyph-name="five.sups" horiz-adv-x="690" 
d="M784 1724h-397l-80 -299h185q118 0 183 -73.5t46 -184.5q-20 -111 -105.5 -180t-207.5 -69q-95 0 -155.5 38.5t-82.5 106.5l35 18q15 -61 67.5 -94t137.5 -33q104 0 178.5 58.5t93.5 158.5q17 100 -38 159t-159 59h-225l96 372h435z" />
    <glyph glyph-name="six.sups" horiz-adv-x="686" 
d="M506 1448q117 0 186 -76.5t49 -191.5q-22 -117 -112.5 -189.5t-210.5 -72.5q-119 0 -189 76.5t-49 193.5q14 79 66 143l358 430h49l-284 -342q69 29 137 29zM702 1184q17 101 -41 164t-161 63q-102 0 -183 -63t-98 -164q-18 -102 40.5 -166t160.5 -64q103 0 183.5 63.5
t98.5 166.5z" />
    <glyph glyph-name="seven.sups" horiz-adv-x="688" 
d="M283 1761h544l-6 -32l-481 -787h-45l479 782h-498z" />
    <glyph glyph-name="eight.sups" horiz-adv-x="727" 
d="M803 1559q-12 -66 -60.5 -115.5t-117.5 -73.5q72 -27 108 -86t23 -139q-20 -105 -106 -166t-212 -61q-123 0 -193 65.5t-50 169.5q13 81 70 138t141 81q-61 26 -93 77t-20 118q20 103 102 161t191 58q105 0 170.5 -62t46.5 -165zM518 1389q86 0 158.5 48t85.5 126
q17 87 -36 136.5t-144 49.5q-92 0 -161.5 -49t-86.5 -137q-13 -79 42 -126.5t142 -47.5zM715 1149q15 92 -42.5 147.5t-160.5 55.5q-105 0 -183 -55.5t-93 -147.5q-17 -89 40.5 -142t165.5 -53q106 0 181 52.5t92 142.5z" />
    <glyph glyph-name="nine.sups" horiz-adv-x="686" 
d="M563 1786q119 0 189 -76.5t49 -193.5q-15 -80 -66 -144l-358 -430h-49l284 342q-69 -29 -137 -29q-117 0 -186 77t-49 192q22 117 112.5 189.5t210.5 72.5zM762 1520q18 102 -40.5 165.5t-160.5 63.5q-103 0 -183.5 -63.5t-98.5 -165.5q-17 -101 41 -164.5t161 -63.5
q102 0 183 63.5t98 164.5z" />
    <glyph glyph-name="cent.tf" horiz-adv-x="1167" 
d="M1133 979q-25 76 -81.5 130.5t-138.5 80.5l-483 -944q73 -25 154 -25q138 0 260.5 63.5t195.5 170.5l31 -21q-79 -118 -208 -184t-285 -66q-90 0 -164 27l-109 -211h-43l115 225q-137 61 -202.5 195.5t-35.5 302.5q40 226 218.5 376t408.5 150q59 0 127 -14l102 199h43
l-108 -211q88 -29 149.5 -87.5t87.5 -136.5zM395 258l482 942q-55 12 -117 12q-140 0 -264.5 -65.5t-208 -178.5t-107.5 -251q-28 -156 30.5 -279t184.5 -180z" />
    <glyph glyph-name="dollar.tf" horiz-adv-x="1167" 
d="M1094 1188q-28 100 -107 161.5t-209 67.5l-119 -676q45 -15 82.5 -29.5t76 -33.5t67.5 -39t57 -45t44.5 -52.5t29.5 -61t13 -71t-5 -81.5q-29 -163 -158.5 -253.5t-341.5 -94.5l-32 -185h-41l32 185q-173 4 -283 77.5t-132 196.5l36 20q19 -122 120.5 -188.5t264.5 -69.5
l123 699q-41 14 -74.5 27.5t-69 31t-62 36.5t-52.5 43.5t-41 51.5t-27.5 60.5t-12 70.5t5.5 82q26 149 154 241.5t310 94.5l33 184h41l-33 -184q133 -8 223 -72t119 -176zM319 1114q-5 -40 -5.5 -73t11.5 -63t26 -53.5t38.5 -46t48.5 -39t56 -33t61.5 -28.5t65.5 -24
l116 663q-170 -4 -282.5 -91.5t-135.5 -211.5zM983 332q13 74 -5.5 133.5t-68 103t-110.5 74t-148 59.5l-121 -686q199 6 313 91.5t140 224.5z" />
    <glyph glyph-name="Euro.tf" horiz-adv-x="1167" 
d="M846 1454q136 0 231 -80t121 -217l-35 -18q-23 132 -109.5 205t-211.5 73q-180 0 -323 -142.5t-216 -397.5h565l-6 -37h-569q-15 -58 -27 -123q-8 -41 -16 -123h569l-6 -37h-565q-17 -255 74.5 -398t271.5 -143q125 0 237.5 74t180.5 207l32 -18q-73 -141 -193.5 -220
t-258.5 -79q-199 0 -300.5 155.5t-86.5 421.5h-166l6 37h162q6 62 18 129l25 117h-162l6 37h166q78 269 231.5 423t354.5 154z" />
    <glyph glyph-name="florin.tf" horiz-adv-x="1167" 
d="M848 1208q60 149 167.5 211t233.5 19l-8 -41q-109 45 -204 -9.5t-150 -187.5l-189 -463h326l-6 -39h-336l-363 -891q-60 -149 -167.5 -210.5t-233.5 -18.5l6 41q111 -45 206.5 9.5t150.5 187.5l360 882h-319l6 39h327z" />
    <glyph glyph-name="uni20BD.tf" horiz-adv-x="1167" 
d="M858 1434q107 0 192 -57t124.5 -154t19.5 -207q-29 -169 -167.5 -285.5t-311.5 -116.5h-451l-45 -249h615l-7 -37h-614l-57 -328h-41l57 328h-184l6 37h184l45 249h-184l6 37h184l138 783h491zM1155 1024q28 154 -61.5 263.5t-241.5 109.5h-451l-131 -746h451
q155 0 281.5 109.5t152.5 263.5z" />
    <glyph glyph-name="sterling.tf" horiz-adv-x="1167" 
d="M846 1417q-162 0 -266.5 -96t-130.5 -246l-74 -422h530l-6 -37h-532l-103 -579h819l-6 -37h-1085l6 37h225l103 579h-185l6 37h187l74 422q30 172 147.5 275.5t290.5 103.5q129 0 218.5 -67t131.5 -187l-33 -20q-41 113 -116.5 175t-200.5 62z" />
    <glyph glyph-name="yen.tf" horiz-adv-x="1167" 
d="M1278 1434l-631 -744h389l-6 -37h-401l-39 -225h401l-6 -37h-401l-70 -391h-41l70 391h-398l7 37h397l39 225h-398l7 37h389l-373 744h43l360 -725l613 725h49z" />
    <glyph glyph-name="brevecy" horiz-adv-x="573" 
d="M168 1231l6 33h492l-7 -33h-491z" />
    </font>
</defs>
</svg>
